<svg width="24" height="34" viewBox="0 0 24 34" fill="none" xmlns="http://www.w3.org/2000/svg">
<path d="M7.86661 0.146899C7.79803 0.230613 7.68723 0.314328 7.60809 0.330024C7.53422 0.350953 7.41288 0.403274 7.33901 0.450364C7.20183 0.544543 6.79558 1.05206 6.79558 1.14101C6.79558 1.16717 6.73227 1.25612 6.64785 1.33983C6.34712 1.64329 6.29436 1.80549 6.23632 2.61648C6.21522 2.83623 6.23105 2.97749 6.2627 3.00365C6.29436 3.01935 6.32074 3.06644 6.32074 3.09783C6.32074 3.13446 6.29963 3.12923 6.26798 3.08214C6.2416 3.04028 6.21522 3.02982 6.21522 3.05598C6.21522 3.08737 6.31019 3.22341 6.42626 3.36467C6.66896 3.65767 6.69006 3.77801 6.5054 3.89835C6.34184 4.003 6.24687 3.9716 5.84062 3.6786C5.36578 3.32805 4.548 3.01935 4.07843 3.00889C3.62469 3.00365 3.42948 3.08737 3.29758 3.35421C3.20789 3.5321 3.20789 3.56873 3.28175 3.81987C3.32923 3.9716 3.36617 4.1338 3.36617 4.18089C3.36617 4.22798 2.97046 4.65178 2.49035 5.12268C2.01023 5.5988 1.59342 6.02784 1.56704 6.07493C1.54066 6.12202 1.50373 6.30514 1.4879 6.47257C1.45625 6.77604 1.45625 6.78127 1.62508 6.90161C1.78863 7.01672 1.8836 7.03241 2.39538 7.05334C2.60114 7.05857 2.61697 7.06904 2.64863 7.226C2.66445 7.32018 2.71721 7.46668 2.75942 7.54516C2.8755 7.77015 2.78053 8.42417 2.60114 8.63868C2.51145 8.74333 2.47452 8.83227 2.5009 8.90029C2.54838 9.05726 2.38483 10.4019 2.21072 11.2443C2.17378 11.4222 2.17906 11.5007 2.23182 11.5582C2.28458 11.6158 2.28986 11.6629 2.24765 11.7361C2.15796 11.8931 2.2371 12.5994 2.39538 13.0756C2.5009 13.3842 2.62752 13.6197 2.85967 13.9284C3.20789 14.3888 3.41893 14.5353 3.92015 14.6504C4.06788 14.6818 4.31585 14.7655 4.47413 14.8283C4.63241 14.8963 4.9648 15.001 5.21277 15.069C5.46075 15.1318 5.69289 15.205 5.72982 15.2364C5.76148 15.2626 5.79314 15.3725 5.79314 15.4771C5.79314 15.6969 5.7351 15.7963 5.48713 15.9637C4.48996 16.6596 4.09953 16.9421 3.91487 17.0991C3.79352 17.2037 3.55083 17.4025 3.37144 17.5438C3.14457 17.7165 3.0496 17.8211 3.06543 17.8839C3.07598 17.931 3.09709 17.999 3.10764 18.0409C3.13402 18.1403 2.40593 18.6321 1.64618 19.014C1.16606 19.26 1.01834 19.3594 0.970851 19.4692C0.933919 19.5739 0.881159 19.6157 0.780914 19.6157C0.311348 19.6157 0.0528229 19.8721 0.00533874 20.3901C-0.0368695 20.8453 0.174171 21.1906 0.532941 21.2586C0.62791 21.2743 1.2241 21.2639 1.8625 21.2325C2.5009 21.2063 3.47696 21.1592 4.03094 21.1383C5.05449 21.0912 5.16529 21.0703 5.32885 20.8767C5.46075 20.725 5.67706 20.7354 5.75093 20.8976C5.78786 20.9761 5.8881 21.0494 6.02528 21.0964C6.23632 21.1645 6.2416 21.1749 6.27325 21.4522C6.29436 21.6092 6.32074 21.9388 6.33657 22.19L6.36295 22.6504H5.79314C5.28664 22.6504 5.21805 22.6609 5.19167 22.7446C5.16529 22.8178 5.11781 22.8335 4.97535 22.8178C4.76959 22.7917 4.63241 22.8754 4.63241 23.0219C4.63241 23.1265 4.55327 23.1527 4.50051 23.069C4.44247 22.98 4.28419 23.0114 4.15229 23.1422C4.08371 23.205 3.92542 23.3253 3.80408 23.3986C3.68273 23.4771 3.54027 23.6026 3.48751 23.6811C3.43475 23.7596 3.2923 23.927 3.16568 24.0526C2.94408 24.2724 2.93881 24.2828 3.01795 24.4032C3.11292 24.5444 3.06016 24.602 2.88077 24.5601C2.7858 24.5392 2.73832 24.5654 2.67501 24.6805C2.61169 24.7851 2.60114 24.8584 2.63807 24.9211C2.71194 25.052 2.64863 25.1618 2.5009 25.1618C2.40065 25.1618 2.35845 25.2089 2.28986 25.3763C2.24237 25.4967 2.21599 25.638 2.2371 25.7007C2.26348 25.7792 2.25292 25.8001 2.18961 25.774C2.1052 25.7426 2.04188 25.8734 1.96274 26.2606C1.94692 26.36 1.89943 26.4646 1.8625 26.496C1.82557 26.5222 1.77808 26.6164 1.76225 26.6948C1.7306 26.8152 1.74643 26.8518 1.83612 26.8727C1.89416 26.8884 1.94164 26.9198 1.94164 26.946C1.94164 27.0506 1.93109 27.0716 1.87833 27.0559C1.84667 27.0454 1.76753 27.0925 1.69894 27.1553C1.54066 27.3018 1.53011 27.5477 1.67256 27.5948C1.86778 27.6576 1.85195 27.9349 1.65146 27.9349C1.50373 27.9349 1.48263 27.961 1.46152 28.1703C1.44569 28.2959 1.46152 28.3325 1.55121 28.343C1.66201 28.3587 1.7517 28.5366 1.69894 28.6255C1.68311 28.6464 1.62508 28.6674 1.57232 28.6674C1.45097 28.6674 1.40876 28.7302 1.40876 28.9185C1.40876 29.1801 1.44569 29.2691 1.56704 29.2848C1.70422 29.3057 1.66201 29.3999 1.50901 29.3999C1.40348 29.3999 1.40348 29.4208 1.43514 29.719C1.45097 29.8969 1.4668 30.1481 1.4668 30.2736C1.4668 30.462 1.4879 30.5143 1.57232 30.5352C1.69894 30.5666 1.70422 30.598 1.5987 30.6765C1.53539 30.7236 1.53011 30.7759 1.57759 30.9538C1.63035 31.1422 1.66201 31.1788 1.76225 31.1788C1.90998 31.1788 1.91526 31.1893 1.80974 31.3881C1.69367 31.6078 1.79391 31.8067 2.01023 31.8067C2.16323 31.8067 2.16323 31.8119 2.07882 31.9061C1.96274 32.0369 2.01023 32.2462 2.22127 32.4816C2.30568 32.581 2.40065 32.7275 2.42703 32.8112C2.47979 32.963 2.64335 33.0885 2.78053 33.0885C2.82274 33.0885 2.85967 33.1461 2.86494 33.2089C2.8755 33.3449 2.95464 33.4182 3.15512 33.46C3.23427 33.4757 3.31341 33.5385 3.33979 33.6013C3.37144 33.6641 3.46641 33.7373 3.55083 33.7635C3.64052 33.7896 3.79352 33.8472 3.89377 33.8943C4.00456 33.9414 4.27364 33.9832 4.5691 33.9937C4.97535 34.0094 5.0756 33.9989 5.16001 33.9257C5.21805 33.8734 5.29719 33.8524 5.3605 33.8681C5.50296 33.9152 5.74038 33.8001 5.74038 33.6798C5.74038 33.5699 5.89338 33.549 5.99363 33.6484C6.04111 33.6955 6.09915 33.6693 6.25743 33.5176C6.36822 33.4129 6.48957 33.324 6.5265 33.324C6.56871 33.324 6.78503 33.1356 7.0119 32.9054C7.40232 32.513 7.50257 32.3299 7.37594 32.2514C7.28098 32.1938 7.37594 32.1154 7.5184 32.1311C7.70306 32.152 7.88772 31.9165 7.8033 31.77C7.73999 31.6497 7.81385 31.5451 7.97213 31.5451C8.08293 31.5451 8.29397 31.1317 8.24121 31.0009C8.22011 30.9486 8.23594 30.9172 8.2887 30.9172C8.33618 30.9172 8.38366 30.8649 8.40477 30.7969C8.51029 30.3992 8.56305 30.2527 8.62636 30.1795C8.72133 30.0696 8.71605 29.8237 8.61581 29.7871C8.50501 29.74 8.51556 29.6092 8.63691 29.6092C8.68967 29.6092 8.77409 29.5516 8.82157 29.4784C8.92182 29.3266 8.93237 29.0859 8.84268 29.0859C8.58415 29.0807 8.59998 28.7511 8.85851 28.6988C8.98513 28.6726 9.01151 28.6464 9.01151 28.5104C9.01151 28.3901 8.97985 28.3377 8.87961 28.2907C8.80575 28.2593 8.74771 28.2122 8.74771 28.186C8.74771 28.0761 8.86378 27.9349 8.95347 27.9349C9.0801 27.9349 9.11703 27.8355 9.08538 27.5895C9.05372 27.3436 9.03262 27.307 8.89016 27.3018C8.78464 27.2965 8.78992 27.2913 8.91654 27.239C9.09065 27.171 9.13814 27.0559 9.06427 26.8675C8.97458 26.6321 9.00096 26.4856 9.22783 26.0094C9.34918 25.7583 9.48108 25.4758 9.52856 25.3816C9.59715 25.2298 9.59715 25.1985 9.53384 25.1514C9.4758 25.1095 9.48108 25.1043 9.55494 25.1304C9.61825 25.1514 9.66046 25.1252 9.69212 25.0415C9.7185 24.9787 9.90316 24.5915 10.1089 24.1782C10.3252 23.7491 10.473 23.3934 10.4571 23.341C10.4308 23.2678 10.436 23.2626 10.4835 23.3306C10.5205 23.3829 10.5416 23.3881 10.5416 23.341C10.5416 23.3044 10.6207 23.2783 10.7473 23.2783C10.8792 23.2783 10.9636 23.2521 10.9847 23.1998C11.0428 23.048 11.1325 23.1161 11.0955 23.2835C11.0533 23.4666 11.1166 23.5399 11.3119 23.5399C11.391 23.5399 11.4807 23.4614 11.5968 23.2783C11.6917 23.1318 11.8025 23.0166 11.8447 23.0166C11.945 23.0166 12.4145 22.7393 12.5887 22.5824C12.6731 22.5039 12.7206 22.4882 12.7469 22.5301C12.7786 22.5771 12.8314 22.5771 12.9844 22.5248C13.264 22.4306 13.4328 22.258 13.4012 22.101C13.3853 22.0016 13.417 21.9545 13.5542 21.8708C13.6544 21.8132 13.8021 21.6824 13.8813 21.5778C14.1345 21.2586 14.1978 21.0494 14.2084 20.4686C14.2084 20.1808 14.2401 19.9087 14.2717 19.8669C14.3034 19.8303 14.3192 19.6838 14.3139 19.5373C14.3086 19.396 14.335 19.1867 14.372 19.0716C14.4142 18.9617 14.4353 18.8518 14.4194 18.8257C14.4036 18.8048 14.4142 18.6321 14.4458 18.449C14.4775 18.2449 14.4827 18.0199 14.4511 17.8734C14.4247 17.7269 14.43 17.6118 14.4564 17.5857C14.4933 17.549 14.488 17.4706 14.4511 17.3555C14.3878 17.1566 14.277 16.2724 14.3139 16.2201C14.3245 16.1991 14.3139 16.0317 14.2875 15.8486C14.2295 15.4457 14.2717 15.3777 14.5724 15.3777C14.7993 15.3725 15.0262 15.2364 15.0262 15.1056C15.0262 15.0167 15.1317 14.9068 15.2161 14.9068C15.2636 14.9068 15.2742 14.9696 15.2583 15.1004C15.2425 15.2417 15.2583 15.3149 15.3164 15.362C15.3955 15.4143 15.3955 15.43 15.3164 15.5504C15.2214 15.6969 15.253 15.9271 15.3797 15.9742C15.4377 16.0003 15.443 16.0265 15.4061 16.0736C15.3216 16.173 15.3427 16.7799 15.4324 16.8113C15.4852 16.8322 15.4905 16.8689 15.4535 16.9369C15.3902 17.052 15.4377 17.1305 15.596 17.1776C15.7121 17.2142 15.7121 17.2194 15.6224 17.3711C15.5274 17.5281 15.5274 17.5333 15.6699 17.6537C15.7859 17.7531 15.8123 17.8107 15.7859 17.931C15.7595 18.0513 15.7806 18.0984 15.8967 18.1717C16.0022 18.2397 16.0286 18.292 16.0075 18.381C15.9864 18.4751 16.0339 18.5536 16.2133 18.742C16.3452 18.8728 16.4507 19.0088 16.4507 19.0507C16.4507 19.1344 16.7198 19.4065 16.7989 19.4065C16.8253 19.4065 16.8781 19.4535 16.915 19.5163C16.9625 19.5896 17.0152 19.6105 17.0838 19.5896C17.1577 19.5687 17.1893 19.5791 17.1893 19.6314C17.1893 19.7518 17.3107 19.8198 17.5903 19.8564C17.7328 19.8774 17.87 19.9244 17.8911 19.9663C17.9122 20.0029 17.9808 20.0343 18.0335 20.0343C18.0863 20.0343 18.1971 20.0605 18.2709 20.0971C18.3817 20.1494 18.4134 20.1442 18.4767 20.0605C18.54 19.9715 18.5506 19.9715 18.6825 20.0552C18.8407 20.1599 19.1679 20.1233 19.247 19.9872C19.2839 19.9192 19.3103 19.914 19.4 19.9663C19.5425 20.0552 19.6533 20.05 19.6849 19.9611C19.7007 19.9244 19.8221 19.8721 19.954 19.8564C20.1439 19.825 20.2231 19.7832 20.3339 19.6419C20.4183 19.532 20.4974 19.4745 20.5449 19.4954C20.6874 19.5477 20.9723 19.3437 21.0936 19.103C21.1939 18.9094 21.2308 18.878 21.331 18.9042C21.4788 18.9408 21.5737 18.8362 21.5579 18.6687C21.5421 18.5641 21.5684 18.5432 21.6898 18.5432C21.8692 18.5379 22.0697 18.3234 21.98 18.2188C21.8956 18.1193 21.98 17.9415 22.1119 17.9415C22.3229 17.9415 22.4706 17.795 22.4548 17.6118C22.4443 17.481 22.4601 17.4496 22.5287 17.4601C22.6606 17.481 22.7503 17.2927 22.6659 17.1619C22.592 17.0415 22.6817 16.895 22.8294 16.895C22.9402 16.895 23.0827 16.6491 23.0721 16.4608C23.0668 16.3613 23.0932 16.3195 23.1565 16.3195C23.2884 16.3195 23.4256 15.88 23.3306 15.7596C23.2621 15.6602 23.3201 15.5347 23.4414 15.5347C23.5206 15.5347 23.6261 15.3097 23.6261 15.1475C23.6261 15.0795 23.663 14.9487 23.7105 14.8545C23.7738 14.7289 23.7844 14.6452 23.7527 14.5458C23.7158 14.4411 23.7263 14.3888 23.8055 14.3103C23.8846 14.2319 23.9004 14.1638 23.8741 13.9336C23.853 13.7296 23.8635 13.6406 23.9216 13.5935C23.9849 13.5412 23.9796 13.5098 23.9004 13.379C23.816 13.2325 23.816 13.2221 23.9057 13.175C23.969 13.1383 23.9954 13.0546 23.9954 12.8663C23.9954 12.7198 23.9743 12.6047 23.9427 12.6047C23.9163 12.6047 23.8899 12.568 23.8899 12.5262C23.8899 12.4843 23.9163 12.4477 23.9427 12.4477C24.0376 12.4477 24.006 11.9873 23.911 11.9349C23.853 11.9035 23.8424 11.8774 23.8846 11.8512C23.969 11.7989 23.9585 11.6367 23.8635 11.5582C23.8055 11.5111 23.7949 11.4745 23.8371 11.4327C23.9321 11.3385 23.8952 11.1554 23.7738 11.1135C23.7 11.0926 23.6789 11.0716 23.7211 11.0507C23.8266 11.0089 23.8002 10.7682 23.6789 10.7368C23.5628 10.7054 23.5417 10.6426 23.6261 10.5903C23.7211 10.5327 23.6841 10.3758 23.547 10.2502C23.4573 10.1665 23.4256 10.0932 23.4467 10.02C23.4625 9.94672 23.4256 9.85254 23.3412 9.75313C23.2673 9.66419 23.204 9.55431 23.204 9.50722C23.204 9.46013 23.1618 9.38688 23.109 9.35026C23.0563 9.31363 22.9982 9.24038 22.9771 9.18806C22.9613 9.14097 22.8927 9.09911 22.8347 9.09911C22.7608 9.09911 22.7292 9.06249 22.7292 8.97877C22.7292 8.85844 22.4812 8.5759 22.3757 8.5759C22.344 8.5759 22.3071 8.52881 22.2913 8.47126C22.2754 8.39801 22.2174 8.36661 22.1277 8.36661C22.0433 8.36661 21.9905 8.33522 21.9905 8.28813C21.9905 8.21488 21.6951 8.105 21.4735 8.105C21.4102 8.105 21.3416 8.07361 21.3258 8.03175C21.2835 7.92711 21.1464 7.88525 21.0672 7.94804C21.0197 7.98467 20.9828 7.97943 20.9353 7.92188C20.8509 7.81724 20.7401 7.82247 20.6821 7.92711C20.6451 7.99513 20.6135 8.00036 20.5238 7.95327C20.3761 7.87479 20.1861 7.88002 20.0067 7.9742C19.9223 8.01606 19.8168 8.03699 19.764 8.02129C19.6163 7.9742 19.0254 8.20965 18.8618 8.37708C18.7774 8.46079 18.6825 8.51835 18.6455 8.50788C18.5664 8.47649 18.5295 8.49742 18.2498 8.73286C18.1285 8.82704 18.0335 8.95261 18.0335 9.00494C18.0335 9.07819 17.9913 9.09911 17.8489 9.09911C17.7011 9.09911 17.6589 9.12004 17.6378 9.21945C17.6167 9.28747 17.6114 9.37642 17.622 9.41828C17.6325 9.46536 17.5851 9.49676 17.5006 9.50722C17.316 9.52815 17.1471 9.70604 17.2316 9.78976C17.3054 9.86301 17.1682 10.0409 17.0311 10.0409C16.9836 10.0409 16.9203 10.0671 16.8939 10.0932C16.857 10.1298 16.6565 9.95719 16.2766 9.57524C15.9653 9.25608 15.7121 8.98401 15.7121 8.96308C15.7121 8.93692 15.7912 8.99447 15.8862 9.08342L16.055 9.24561L16.3716 9.06772C16.5457 8.96831 16.8095 8.83227 16.9625 8.75902C17.1946 8.64915 17.2474 8.59683 17.2896 8.4294C17.3846 8.11024 17.3582 7.87479 17.2157 7.6655L17.0838 7.47191L17.1841 7.33588C17.3582 7.12136 17.6273 6.84406 17.9913 6.4935C18.329 6.17957 18.3501 6.16911 18.6192 6.16911C18.846 6.16911 18.9726 6.12725 19.3472 5.92843C19.8643 5.65112 19.9856 5.56218 19.9856 5.44184C19.9856 5.25871 19.8696 4.96571 19.801 4.96571C19.7588 4.96571 19.6374 4.91339 19.5319 4.85061C19.3525 4.74596 19.2628 4.7355 18.4609 4.73027H17.5851L17.0627 4.97618C16.2766 5.35289 15.9759 5.58311 15.1423 6.44641L14.7518 6.84929L14.4986 6.76557C14.3614 6.71848 14.1873 6.69232 14.1187 6.70279C14.0132 6.71848 13.9974 6.74464 14.0079 6.91207C14.0185 7.10043 14.0185 7.10566 13.8813 7.05334C13.6017 6.9487 12.8102 6.52489 12.8102 6.47781C12.8102 6.45164 12.7469 6.43072 12.6678 6.43072C12.5939 6.43072 12.0294 6.28422 11.4174 6.11155C10.8054 5.93366 10.1881 5.76623 10.0403 5.74007C9.59187 5.65112 9.59715 5.65636 9.8715 5.41045C10.1617 5.1593 10.2514 4.90293 10.1933 4.51575C10.1511 4.23321 10.2039 4.08148 10.3569 4.02392C10.5046 3.96637 10.7737 3.48501 10.7315 3.35421C10.7104 3.29142 10.7526 3.2391 10.8581 3.17632C10.9953 3.09783 11.0164 3.05598 11.0164 2.84669C11.0164 2.71589 11.0217 2.61124 11.0322 2.61124C11.1114 2.61124 11.7392 2.88855 11.8184 2.95657C11.9608 3.08737 11.9766 3.02458 11.8606 2.79437C11.8025 2.67926 11.755 2.55369 11.755 2.51183C11.755 2.3444 11.3804 1.67992 11.1694 1.48633C11.0481 1.37122 10.9636 1.3189 10.9795 1.36599C11.0006 1.41831 10.99 1.46017 10.9636 1.46017C10.932 1.46017 10.9109 1.43924 10.9109 1.41308C10.9109 1.33983 10.4835 0.7329 10.2989 0.53931C9.99285 0.214917 9.92954 0.204453 8.67385 0.19922C8.62109 0.19922 8.4628 0.152131 8.32035 0.0945773C8.17262 0.0422558 8.04072 -0.0048336 8.01962 0.000398551C7.99851 0.000398551 7.92993 0.0684166 7.86661 0.146899ZM4.05733 3.65244C4.20505 3.77278 4.16285 3.8408 3.91487 3.88789C3.76714 3.91928 3.74604 3.90882 3.71438 3.78848C3.69328 3.71523 3.69328 3.63151 3.70911 3.60535C3.76187 3.52164 3.92542 3.5478 4.05733 3.65244ZM10.5996 5.95982C10.8739 6.04877 11.3224 6.17957 11.5968 6.25282C11.8711 6.32607 12.1191 6.40979 12.1455 6.43595C12.2299 6.51443 11.9503 6.4935 11.8342 6.40979C11.7761 6.37316 11.602 6.32607 11.4438 6.30514C11.2855 6.28422 11.0955 6.23713 11.0217 6.19527C10.9425 6.15864 10.8001 6.11155 10.6998 6.09063C10.5416 6.06446 10.4835 6.08539 10.2936 6.24236C10.1775 6.347 10.0667 6.43072 10.0509 6.43072C10.0351 6.43072 10.0087 6.37316 9.99285 6.30514C9.97702 6.23189 9.90316 6.10632 9.82929 6.02261C9.76071 5.93889 9.71322 5.85518 9.73433 5.83425C9.80819 5.76623 10.1248 5.80809 10.5996 5.95982ZM12.5201 6.48304C12.615 6.52489 12.615 6.53013 12.4937 6.53013C12.4198 6.53013 12.3249 6.5092 12.2826 6.48304C12.2193 6.44118 12.2193 6.43072 12.309 6.43595C12.3671 6.43595 12.462 6.45688 12.5201 6.48304ZM16.5773 8.34045C16.6354 8.38231 16.667 8.4294 16.6512 8.45033C16.6143 8.48172 16.3979 8.36138 16.3979 8.30383C16.3979 8.24104 16.4665 8.25674 16.5773 8.34045ZM16.2238 8.61252C16.1764 8.65961 16.1236 8.68577 16.1025 8.67008C16.0497 8.61776 16.1341 8.52358 16.2291 8.52358C16.3083 8.52358 16.3083 8.52881 16.2238 8.61252ZM9.09065 8.7381C9.56022 8.90029 9.55494 8.88983 9.48108 9.50199C9.42832 9.89963 9.42832 10.1665 9.47052 10.6112L9.52856 11.192L9.28586 11.6367C8.97985 12.1861 8.87433 12.2175 8.58943 11.8303C8.36256 11.5268 8.11986 11.4013 7.76109 11.4013C7.4076 11.4013 7.40232 11.3542 7.70833 10.8257C7.87189 10.538 7.98269 10.4072 8.12514 10.3287C8.36784 10.2031 8.37839 10.1508 8.16735 10.1089C7.95631 10.0671 7.92465 10.0043 8.05127 9.86824C8.19373 9.71128 8.2887 9.52292 8.30452 9.34503C8.31508 9.26654 8.36256 9.07295 8.41004 8.91599C8.48391 8.65961 8.50501 8.62822 8.63691 8.62822C8.71078 8.62822 8.92182 8.67531 9.09065 8.7381ZM16.1394 9.66419C16.456 9.97812 16.7145 10.2502 16.7145 10.2763C16.7145 10.3025 16.6881 10.2973 16.6512 10.2607C16.6143 10.224 16.5562 10.1979 16.514 10.1979C16.419 10.1979 15.7648 9.63803 15.7279 9.52292C15.7121 9.47583 15.6382 9.36072 15.5696 9.26654C15.3164 8.93169 15.5749 9.10958 16.1394 9.66419ZM10.531 9.46013C10.8739 9.71128 10.8634 9.7322 10.3991 9.71651L9.98758 9.70081L9.97175 9.53338C9.95592 9.39211 9.97175 9.37119 10.0562 9.39735C10.1142 9.40781 10.1775 9.39735 10.1933 9.36595C10.2461 9.28224 10.2936 9.2927 10.531 9.46013ZM20.0648 9.68512C20.0437 9.77929 20.0015 9.90487 19.9698 9.96242C19.9171 10.0618 19.9171 10.0618 19.8748 9.96242C19.7852 9.72697 19.859 9.56478 20.0806 9.52292C20.0912 9.51769 20.0806 9.59617 20.0648 9.68512ZM20.6557 9.71128C20.6293 9.95719 20.2336 11.3228 20.2125 11.26C20.202 11.2338 20.1386 10.9827 20.0701 10.7054L19.9487 10.1926L20.1123 9.85778C20.2705 9.52815 20.2811 9.52292 20.4816 9.51769H20.6821L20.6557 9.71128ZM20.7876 9.78976C20.7507 9.82638 20.7243 9.83162 20.7243 9.80022C20.7243 9.72697 20.7876 9.66419 20.8245 9.70081C20.8351 9.71651 20.8193 9.75837 20.7876 9.78976ZM21.1147 9.72174C21.1464 9.7636 20.4288 11.6524 20.355 11.7309C20.3339 11.757 20.2969 11.71 20.2811 11.6262C20.26 11.5321 20.3233 11.2129 20.4658 10.6949C20.5818 10.2607 20.6926 9.89963 20.7085 9.88394C20.7243 9.86824 20.7243 9.9101 20.7085 9.97288C20.6557 10.1979 20.777 10.1508 20.8826 9.91533C20.9775 9.68512 21.0567 9.62233 21.1147 9.72174ZM19.764 9.86824C19.7957 9.95196 19.8326 10.0566 19.8485 10.1037C19.8748 10.1926 19.4686 11.2443 19.4053 11.2443C19.3525 11.2443 19.2259 10.0095 19.2734 9.93626C19.3103 9.87871 19.5899 9.7322 19.6744 9.72697C19.6955 9.72697 19.7324 9.78976 19.764 9.86824ZM21.4313 9.95196L21.5843 10.0723L21.4946 10.4699L21.4049 10.8728L20.9723 11.2338C20.7348 11.4379 20.5343 11.5949 20.5238 11.5896C20.508 11.5687 21.0303 10.1979 21.1358 9.99904C21.1833 9.9101 21.2361 9.83162 21.2519 9.83162C21.2677 9.83162 21.3469 9.88917 21.4313 9.95196ZM19.2417 10.5955C19.3209 11.2391 19.3156 11.5635 19.2153 11.7937C19.1731 11.8983 19.1256 11.9768 19.1098 11.9663C19.0782 11.9297 18.8249 10.5589 18.8249 10.3967C18.8249 10.2554 19.0782 10.0095 19.1468 10.0828C19.1679 10.1037 19.2101 10.3339 19.2417 10.5955ZM14.9207 10.3025C14.9207 10.3287 14.8837 10.3548 14.8415 10.3548C14.7993 10.3548 14.7624 10.3287 14.7624 10.3025C14.7624 10.2711 14.7993 10.2502 14.8415 10.2502C14.8837 10.2502 14.9207 10.2711 14.9207 10.3025ZM21.7742 10.3496C21.8164 10.4228 21.8059 10.4804 21.7215 10.585C21.579 10.7629 21.5051 10.7577 21.5473 10.5746C21.5843 10.4176 21.6634 10.2502 21.7003 10.2502C21.7109 10.2502 21.7478 10.2973 21.7742 10.3496ZM20.1017 11.7937C20.0384 12.0239 19.9751 12.1233 19.7904 12.2698C19.6638 12.3744 19.5477 12.4529 19.5372 12.4372C19.5266 12.4268 19.4897 12.2175 19.4528 11.9716L19.3895 11.5268L19.5794 11.0821C19.6849 10.8414 19.7957 10.5693 19.8326 10.4856C19.8907 10.3339 19.9012 10.3548 20.0384 10.9199C20.1756 11.485 20.1809 11.5216 20.1017 11.7937ZM18.9041 11.3385C18.9832 11.778 19.036 12.1495 19.0307 12.1599C19.0201 12.1704 18.9146 12.0971 18.8038 12.003C18.6297 11.8617 18.6033 11.8146 18.6561 11.7518C18.7299 11.6629 18.6877 11.5059 18.5875 11.5059C18.5506 11.5059 18.4609 11.4588 18.3817 11.396C18.1654 11.2234 18.1918 10.967 18.4661 10.6531C18.6192 10.4752 18.6983 10.4228 18.7247 10.4699C18.7458 10.5066 18.8249 10.899 18.9041 11.3385ZM22.038 10.8571L22.1172 11.0769L21.7003 11.5268C21.4682 11.7727 21.2677 11.9768 21.2466 11.9768C21.2308 11.9768 21.2677 11.7361 21.3363 11.4431C21.4418 10.967 21.4788 10.8885 21.6318 10.7629C21.8586 10.5746 21.9483 10.5955 22.038 10.8571ZM21.2361 11.5739C21.1305 12.0344 21.1147 12.0762 21.0145 12.0448C20.9564 12.0291 20.7823 12.0187 20.6346 12.0239C20.355 12.0344 20.2969 11.9873 20.3972 11.8408C20.4499 11.757 21.3152 11.0245 21.3363 11.0455C21.3416 11.0559 21.2994 11.2914 21.2361 11.5739ZM18.1918 11.2181C18.1918 11.3542 18.1179 11.3908 18.0599 11.2966C18.0124 11.2234 18.0652 11.0873 18.139 11.0873C18.1654 11.0873 18.1918 11.1449 18.1918 11.2181ZM22.2068 11.4588L22.2754 11.6681L21.9008 12.0396C21.6001 12.3378 21.5104 12.4006 21.4154 12.3692C21.3574 12.3535 21.2783 12.2907 21.2519 12.2384C21.2044 12.1547 21.2624 12.071 21.6318 11.689C21.8692 11.4431 22.0855 11.2443 22.1066 11.2443C22.1277 11.2443 22.1752 11.3385 22.2068 11.4588ZM20.202 11.8879C20.1597 11.9297 20.1439 11.914 20.1439 11.8408C20.1439 11.6995 20.2178 11.6262 20.2389 11.7414C20.2494 11.7884 20.2336 11.8565 20.202 11.8879ZM19.458 12.4163C19.458 12.5052 19.4369 12.5 19.2998 12.3692C19.1362 12.2122 19.1362 12.1861 19.2628 11.8722C19.3103 11.7518 19.3156 11.7623 19.3842 12.0291C19.4211 12.1861 19.4528 12.364 19.458 12.4163ZM22.3071 11.9977C22.3071 12.0657 22.3229 12.2227 22.3387 12.3483C22.3651 12.5576 22.3546 12.5994 22.1752 12.7982C22.0327 12.9657 21.943 13.0232 21.8322 13.0232C21.7056 13.0232 21.6792 12.9971 21.6581 12.8506C21.6423 12.7616 21.6159 12.6308 21.5948 12.568C21.5632 12.4686 21.6107 12.4006 21.8586 12.1599C22.191 11.846 22.3071 11.8041 22.3071 11.9977ZM20.2283 12.0605C20.1703 12.0971 20.1123 12.1233 20.0964 12.1076C20.0859 12.0919 20.1175 12.0448 20.1756 12.0082C20.2283 11.9663 20.2864 11.9454 20.3022 11.9611C20.318 11.9716 20.2811 12.0187 20.2283 12.0605ZM18.8249 12.1652C19.0571 12.432 18.9779 12.4477 18.7088 12.1913C18.5558 12.05 18.5084 11.9768 18.5664 11.9768C18.6192 11.9768 18.7299 12.0605 18.8249 12.1652ZM20.355 12.2122C20.355 12.2541 20.3339 12.2907 20.3022 12.2907C20.2758 12.2907 20.2494 12.2541 20.2494 12.2122C20.2494 12.1704 20.2758 12.1338 20.3022 12.1338C20.3339 12.1338 20.355 12.1704 20.355 12.2122ZM20.8298 12.1809C20.8298 12.2122 20.8087 12.2489 20.777 12.2646C20.7507 12.2803 20.7243 12.2593 20.7243 12.2175C20.7243 12.1704 20.7507 12.1338 20.777 12.1338C20.8087 12.1338 20.8298 12.1547 20.8298 12.1809ZM21.0619 12.2122C21.0408 12.2541 21.0092 12.2907 20.9828 12.2907C20.9564 12.2907 20.9353 12.2541 20.9353 12.2122C20.9353 12.1704 20.9723 12.1338 21.0145 12.1338C21.0619 12.1338 21.0778 12.1652 21.0619 12.2122ZM20.566 12.2907C20.566 12.3483 20.5449 12.3954 20.5132 12.3954C20.4869 12.3954 20.4605 12.3483 20.4605 12.2907C20.4605 12.2332 20.4869 12.1861 20.5132 12.1861C20.5449 12.1861 20.566 12.2332 20.566 12.2907ZM20.1439 12.3378C20.1439 12.4006 20.0384 12.4686 20.0015 12.432C19.9645 12.3954 20.0331 12.2907 20.0964 12.2907C20.1228 12.2907 20.1439 12.3117 20.1439 12.3378ZM19.3789 12.5942C19.342 12.6308 19.1415 12.4425 19.1415 12.3797C19.1415 12.3483 19.1995 12.3797 19.2734 12.4477C19.3472 12.5157 19.3947 12.5837 19.3789 12.5942ZM21.1569 12.5105C21.0778 12.589 21.0303 12.5419 21.0725 12.4268C21.0989 12.364 21.1253 12.3535 21.1622 12.3901C21.2044 12.432 21.2044 12.4634 21.1569 12.5105ZM19.1151 12.5C19.1309 12.5262 19.1204 12.5523 19.094 12.5523C19.0623 12.5523 19.036 12.5262 19.036 12.5C19.036 12.4686 19.0465 12.4477 19.0571 12.4477C19.0729 12.4477 19.0993 12.4686 19.1151 12.5ZM20.355 12.5C20.355 12.6517 20.0753 12.9709 19.9487 12.9709C19.8379 12.9709 19.8696 12.8715 20.0437 12.6517C20.1967 12.4582 20.355 12.3849 20.355 12.5ZM20.6188 12.5785C20.5818 12.6204 20.5291 12.657 20.4974 12.657C20.471 12.657 20.4869 12.6099 20.5396 12.5523C20.6504 12.432 20.7243 12.4529 20.6188 12.5785ZM20.9353 12.5C20.9353 12.5262 20.9142 12.5523 20.8826 12.5523C20.8562 12.5523 20.8298 12.5262 20.8298 12.5C20.8298 12.4686 20.8562 12.4477 20.8826 12.4477C20.9142 12.4477 20.9353 12.4686 20.9353 12.5ZM21.3838 12.5523C21.368 12.5785 21.3258 12.6047 21.2994 12.6047C21.2677 12.6047 21.2624 12.5785 21.2783 12.5523C21.2941 12.5209 21.3363 12.5 21.3627 12.5C21.3943 12.5 21.3996 12.5209 21.3838 12.5523ZM19.9329 12.5994C19.9329 12.6622 19.8274 12.7302 19.7904 12.6936C19.7535 12.657 19.8221 12.5523 19.8854 12.5523C19.9118 12.5523 19.9329 12.5733 19.9329 12.5994ZM17.9174 12.9343C18.0388 13.0546 18.139 13.1697 18.139 13.1907C18.139 13.311 17.9227 13.1959 17.6642 12.9395C17.3898 12.6674 17.3793 12.6517 17.5323 12.6884C17.622 12.7041 17.7908 12.8192 17.9174 12.9343ZM20.9617 12.7459C20.9353 12.8244 20.9406 12.8296 20.9934 12.7721C21.0303 12.7407 21.0831 12.7093 21.1147 12.7093C21.1411 12.7093 21.0936 12.7826 21.0039 12.8663C20.8667 13.0023 20.7981 13.0232 20.624 13.0128C20.5027 13.0075 20.4077 12.9971 20.4077 12.9866C20.4077 12.9761 20.4499 12.9238 20.5027 12.8715C20.7085 12.6622 21.0303 12.5733 20.9617 12.7459ZM21.5473 12.8506C21.4893 12.9081 21.4471 12.8192 21.4893 12.725C21.5315 12.6361 21.5315 12.6361 21.5526 12.725C21.5684 12.7773 21.5632 12.8349 21.5473 12.8506ZM20.4605 12.7302C20.4605 12.7459 20.4394 12.7721 20.4077 12.7878C20.3813 12.8035 20.355 12.793 20.355 12.7669C20.355 12.7355 20.3813 12.7093 20.4077 12.7093C20.4394 12.7093 20.4605 12.7198 20.4605 12.7302ZM22.3968 12.8506C22.381 12.9657 22.344 13.0023 22.2385 13.0128C22.0644 13.0337 22.0644 13.0075 22.2121 12.8401C22.3599 12.6727 22.4232 12.6727 22.3968 12.8506ZM21.3363 12.9657C21.2941 13.0337 20.9881 13.0442 20.9881 12.9761C20.9881 12.95 21.0408 12.8977 21.1094 12.8506C21.2044 12.7826 21.2361 12.7826 21.2994 12.8401C21.3363 12.8767 21.3521 12.9343 21.3363 12.9657ZM20.7507 13.1279C20.7348 13.154 20.6821 13.1802 20.6399 13.1802C20.5977 13.1802 20.566 13.154 20.566 13.1279C20.566 13.0965 20.6135 13.0756 20.6768 13.0756C20.7348 13.0756 20.7665 13.0965 20.7507 13.1279ZM21.5368 13.1854C21.521 13.2116 21.484 13.2221 21.4577 13.2011C21.4313 13.1854 21.4207 13.1488 21.4418 13.1226C21.4577 13.0965 21.4946 13.086 21.521 13.1069C21.5473 13.1226 21.5579 13.1593 21.5368 13.1854ZM21.8428 13.154C21.8428 13.1802 21.8164 13.2116 21.7848 13.2221C21.7531 13.2325 21.7267 13.2011 21.7267 13.154C21.7267 13.1069 21.7531 13.0756 21.7848 13.086C21.8164 13.0965 21.8428 13.1279 21.8428 13.154ZM22.3387 13.4261C22.3282 13.5778 22.3071 13.7191 22.2913 13.7348C22.2754 13.7505 22.1646 13.7505 22.0486 13.7296C21.8745 13.7034 21.827 13.6668 21.8006 13.5621C21.732 13.2953 21.9536 13.0651 22.2385 13.1174C22.3493 13.1383 22.3599 13.1593 22.3387 13.4261ZM21.4102 13.3633C21.4471 13.4104 21.4629 13.4575 21.4471 13.4784C21.4049 13.5151 21.2519 13.3999 21.2519 13.3319C21.2519 13.2587 21.3363 13.2744 21.4102 13.3633ZM21.6265 13.4261C21.5843 13.5046 21.5737 13.5046 21.5684 13.4366C21.5684 13.3476 21.6212 13.2691 21.6634 13.3058C21.674 13.3215 21.6581 13.3738 21.6265 13.4261ZM21.273 13.6616C21.3205 13.7348 21.2888 13.7976 21.0936 13.9912L20.8562 14.2319L20.814 14.0592C20.7876 13.9702 20.7823 13.8133 20.8034 13.7191C20.8351 13.5517 20.8456 13.5412 21.025 13.5569C21.1358 13.5674 21.2413 13.6092 21.273 13.6616ZM21.5684 13.7243C21.5684 13.8133 21.4946 13.8761 21.4471 13.829C21.4049 13.7871 21.4629 13.6511 21.521 13.6511C21.5473 13.6511 21.5684 13.6825 21.5684 13.7243ZM21.7267 13.7557C21.7267 13.7819 21.7056 13.8081 21.674 13.8081C21.6476 13.8081 21.6212 13.7819 21.6212 13.7557C21.6212 13.7243 21.6476 13.7034 21.674 13.7034C21.7056 13.7034 21.7267 13.7243 21.7267 13.7557ZM22.1435 13.8133C22.2702 13.8604 22.3071 13.9022 22.3071 14.0069C22.3071 14.1848 22.2121 14.5301 22.1541 14.5615C22.0802 14.6086 21.7267 14.64 21.7056 14.6033C21.6792 14.5563 21.7689 13.8708 21.8059 13.8081C21.8481 13.74 21.9378 13.74 22.1435 13.8133ZM21.3996 14.0226C21.4102 14.1167 21.368 14.1795 21.2255 14.2633C21.0514 14.3784 20.8826 14.4202 20.8826 14.3522C20.8826 14.2842 21.2783 13.8708 21.331 13.8813C21.3627 13.8918 21.3891 13.9493 21.3996 14.0226ZM21.6212 14.0383C21.6212 14.0801 21.6001 14.1324 21.5684 14.1481C21.5421 14.1638 21.5157 14.1324 21.5157 14.0749C21.5157 14.0121 21.5421 13.965 21.5684 13.965C21.6001 13.965 21.6212 13.9964 21.6212 14.0383ZM17.0627 14.1795C17.0838 14.2214 17.1102 14.2162 17.1471 14.1691C17.1788 14.1167 17.1841 14.1377 17.163 14.2266C17.1155 14.3888 16.9203 14.6086 16.8675 14.5563C16.8517 14.5301 16.8464 14.4254 16.857 14.3156C16.8833 14.1272 16.9836 14.0592 17.0627 14.1795ZM21.6212 14.4045C21.6212 14.4935 21.5473 14.5563 21.4999 14.5092C21.4577 14.4673 21.5157 14.3313 21.5737 14.3313C21.6001 14.3313 21.6212 14.3627 21.6212 14.4045ZM17.9702 14.5563C18.1549 14.5563 18.1918 14.5719 18.1654 14.64C18.1443 14.6871 18.081 14.8545 18.023 15.0114C17.9649 15.1684 17.9069 15.3097 17.8963 15.3201C17.87 15.3515 17.0627 15.5294 16.9414 15.5347C16.8253 15.5347 16.82 15.5137 16.82 15.1213C16.82 14.7237 16.8253 14.6975 16.9678 14.6033C17.221 14.4254 17.4057 14.3888 17.5851 14.4778C17.6747 14.5196 17.8436 14.5563 17.9702 14.5563ZM18.5084 14.8231C18.5084 14.9591 18.4714 15.0114 18.2762 15.1266C18.1496 15.2103 18.0388 15.2731 18.023 15.2731C18.0071 15.2731 18.0493 15.1161 18.1232 14.9173C18.1918 14.7237 18.2604 14.5353 18.2762 14.4935C18.3184 14.3731 18.5084 14.64 18.5084 14.8231ZM19.4633 14.6818C19.5055 14.7341 19.5108 14.7551 19.4739 14.7341C19.4369 14.7132 19.3895 14.7341 19.3578 14.7865C19.3103 14.8702 19.305 14.8597 19.2998 14.7341C19.2998 14.5719 19.3578 14.551 19.4633 14.6818ZM21.3574 14.7184C21.3574 14.7341 21.3363 14.7603 21.3046 14.776C21.2783 14.7917 21.2519 14.7812 21.2519 14.7551C21.2519 14.7237 21.2783 14.6975 21.3046 14.6975C21.3363 14.6975 21.3574 14.708 21.3574 14.7184ZM21.5262 14.8649C21.4471 14.9434 21.3996 14.8963 21.4418 14.7812C21.4682 14.7184 21.4946 14.708 21.5315 14.7446C21.5737 14.7865 21.5737 14.8179 21.5262 14.8649ZM22.0644 14.8388C22.0433 14.9225 21.9958 15.0638 21.9589 15.1527C21.9008 15.2992 21.8639 15.3254 21.7056 15.3254C21.3785 15.3254 21.3627 15.2992 21.5104 14.9853C21.6423 14.708 21.6529 14.7028 21.8745 14.7028C22.0908 14.6975 22.096 14.7028 22.0644 14.8388ZM18.7194 14.8022C18.7194 14.8283 18.6825 14.8545 18.6403 14.8545C18.598 14.8545 18.5611 14.8283 18.5611 14.8022C18.5611 14.7708 18.598 14.7498 18.6403 14.7498C18.6825 14.7498 18.7194 14.7708 18.7194 14.8022ZM21.1094 14.9748C21.0936 15.069 21.0567 15.1632 21.025 15.1946C20.9934 15.2312 20.9828 15.205 21.0092 15.1161C21.025 15.0428 21.0408 14.933 21.0408 14.8649C21.0408 14.7969 21.0619 14.7603 21.0936 14.776C21.12 14.7917 21.1305 14.8806 21.1094 14.9748ZM18.7722 14.9591C18.7722 14.9853 18.7458 15.0114 18.7141 15.0114C18.6877 15.0114 18.6772 14.9853 18.693 14.9591C18.7088 14.9277 18.7352 14.9068 18.7511 14.9068C18.7616 14.9068 18.7722 14.9277 18.7722 14.9591ZM21.3046 15.0742C21.3046 15.1579 21.2888 15.1736 21.2466 15.1318C21.215 15.1004 21.2044 15.0481 21.2202 15.0167C21.2783 14.9277 21.3046 14.9487 21.3046 15.0742ZM18.3553 15.226C18.2868 15.2835 18.2182 15.3149 18.2023 15.2992C18.1654 15.2678 18.3553 15.1213 18.4292 15.1213C18.4609 15.1213 18.4239 15.1684 18.3553 15.226ZM20.3655 15.3358C20.3286 15.3725 20.3022 15.3777 20.3022 15.3463C20.3022 15.2731 20.3655 15.2103 20.4024 15.2469C20.413 15.2626 20.3972 15.3044 20.3655 15.3358ZM20.8298 15.3044C20.8298 15.3934 20.5924 15.7439 20.5449 15.7283C20.4605 15.7021 20.4447 15.5033 20.5132 15.3829C20.566 15.2835 20.8298 15.2207 20.8298 15.3044ZM18.5558 15.362C18.5558 15.3882 18.5347 15.4509 18.5136 15.5085C18.4873 15.5713 18.4978 15.6655 18.54 15.7544C18.6455 15.9585 18.6297 16.105 18.4767 16.5183C18.3553 16.8479 18.1179 17.1828 17.6009 17.7531C17.5112 17.8473 17.5059 17.8473 17.4743 17.7583C17.4531 17.706 17.4637 17.5961 17.4901 17.5176C17.5534 17.3555 17.5059 17.3188 17.4004 17.4444C17.2949 17.57 17.1893 17.4496 17.2421 17.2717C17.3371 16.9473 17.6747 16.1311 17.7486 16.0526C17.7908 16.0056 17.8119 15.9323 17.7961 15.8852C17.775 15.8434 17.8119 15.7126 17.8752 15.5922C17.9596 15.4248 18.0124 15.3777 18.1179 15.3777C18.2498 15.3777 18.2498 15.3829 18.0388 15.5974C17.9227 15.723 17.8225 15.8434 17.8277 15.8748C17.8277 15.9009 17.9491 15.791 18.0968 15.6236C18.2446 15.4614 18.4081 15.3254 18.4661 15.3254C18.5189 15.3254 18.5611 15.3411 18.5558 15.362ZM20.9142 15.5713C20.8562 15.6288 20.814 15.5399 20.8562 15.4457C20.8984 15.3568 20.8984 15.3568 20.9195 15.4457C20.9353 15.498 20.93 15.5556 20.9142 15.5713ZM21.827 15.4666C21.8586 15.4928 21.3996 16.4241 21.3521 16.4241C21.2941 16.4241 21.1358 15.7492 21.1727 15.655C21.2044 15.5765 21.2361 15.5922 21.3891 15.7701C21.5948 16.0108 21.6318 15.9689 21.4365 15.7126C21.2255 15.4405 21.2572 15.362 21.5579 15.4091C21.6951 15.4248 21.8164 15.4509 21.827 15.4666ZM17.3687 15.7701L16.8992 16.1154L16.8517 15.9009C16.8253 15.7858 16.82 15.6759 16.8411 15.655C16.8728 15.6236 17.6167 15.4457 17.7644 15.4353C17.8014 15.43 17.622 15.5818 17.3687 15.7701ZM17.7328 15.8015C17.6853 15.9271 17.6009 16.084 17.5534 16.1521C17.5006 16.2201 17.469 16.3038 17.4848 16.3352C17.5217 16.4346 17.2052 17.1828 17.126 17.1828C17.0891 17.1828 17.0522 17.1095 17.0416 17.0154C17.0258 16.8793 17.068 16.8008 17.2474 16.6073C17.3687 16.4765 17.4584 16.3561 17.4426 16.3404C17.4268 16.3247 17.3371 16.4084 17.2421 16.5288C17.0205 16.8008 16.9467 16.7956 16.8992 16.4974C16.8728 16.2986 16.8833 16.2358 16.9625 16.1573C17.0733 16.0474 17.7908 15.5399 17.8066 15.5556C17.8172 15.5608 17.7803 15.6707 17.7328 15.8015ZM13.7599 15.7178C13.7599 15.8224 13.6439 16.0579 13.5911 16.0579C13.5278 16.0579 13.5383 15.9637 13.6069 15.9271C13.6386 15.9061 13.6491 15.8538 13.6333 15.812C13.6175 15.7701 13.6122 15.7126 13.6333 15.6864C13.6755 15.6131 13.7599 15.6288 13.7599 15.7178ZM21.0039 15.7701C20.9881 15.812 20.9986 15.8486 21.025 15.8486C21.0514 15.8486 21.12 15.9951 21.1727 16.173C21.2255 16.3561 21.2783 16.5288 21.2888 16.5602C21.3258 16.6596 20.8878 17.1671 20.8087 17.12C20.7665 17.0938 20.6188 16.9369 20.4816 16.7695C20.2442 16.4869 20.2336 16.4555 20.3233 16.4032C20.3761 16.3718 20.5449 16.241 20.7032 16.1154C20.9142 15.9375 20.9723 15.8643 20.93 15.8172C20.8984 15.7806 20.8878 15.723 20.9089 15.6916C20.9564 15.6131 21.0408 15.6812 21.0039 15.7701ZM20.777 15.7963C20.777 15.8538 20.7559 15.9009 20.7243 15.9009C20.6979 15.9009 20.6715 15.8538 20.6715 15.7963C20.6715 15.7387 20.6979 15.6916 20.7243 15.6916C20.7559 15.6916 20.777 15.7387 20.777 15.7963ZM20.566 16.0579C20.566 16.1154 20.5449 16.1625 20.5132 16.1625C20.4869 16.1625 20.4605 16.1154 20.4605 16.0579C20.4605 16.0003 20.4869 15.9532 20.5132 15.9532C20.5449 15.9532 20.566 16.0003 20.566 16.0579ZM13.5225 16.2672C13.5383 16.2933 13.5278 16.3195 13.5014 16.3195C13.4698 16.3195 13.4434 16.2933 13.4434 16.2672C13.4434 16.2358 13.4539 16.2148 13.4645 16.2148C13.4803 16.2148 13.5067 16.2358 13.5225 16.2672ZM18.7985 16.3143C18.8144 16.3404 18.8038 16.377 18.7722 16.398C18.7458 16.4137 18.7194 16.3927 18.7194 16.3509C18.7194 16.2567 18.7511 16.241 18.7985 16.3143ZM13.6861 16.7695C13.6439 16.9107 13.5964 17.1252 13.5753 17.2508C13.5172 17.6118 13.417 17.4915 13.4012 17.0415C13.3853 16.6648 13.3959 16.6386 13.5278 16.534C13.723 16.3823 13.7758 16.4555 13.6861 16.7695ZM18.6455 16.5078C18.6297 16.5549 18.6139 16.602 18.6139 16.6125C18.6139 16.623 18.5928 16.6334 18.5664 16.6334C18.54 16.6334 18.5295 16.5863 18.5453 16.5288C18.5611 16.4712 18.598 16.4241 18.6244 16.4241C18.6561 16.4241 18.6614 16.4608 18.6455 16.5078ZM18.8513 16.5916C18.7985 16.8322 18.7194 16.9003 18.7194 16.7067C18.7194 16.5706 18.7985 16.4241 18.8671 16.4241C18.8777 16.4241 18.8724 16.5026 18.8513 16.5916ZM19.6691 16.5078C19.6691 16.5497 19.648 16.5706 19.6163 16.5549C19.5899 16.5392 19.5636 16.5026 19.5636 16.4712C19.5636 16.4451 19.5899 16.4241 19.6163 16.4241C19.648 16.4241 19.6691 16.4608 19.6691 16.5078ZM20.0595 16.4869C20.0437 16.5131 19.9962 16.5235 19.954 16.5078C19.9118 16.4921 19.8801 16.5131 19.8801 16.5549C19.8801 16.5968 19.859 16.6334 19.8274 16.6334C19.7693 16.6334 19.7535 16.5131 19.801 16.466C19.8537 16.4137 20.0912 16.4346 20.0595 16.4869ZM19.5741 16.7067C19.6533 16.7695 19.7166 16.8689 19.7166 16.9369C19.7218 17.0781 19.5266 17.8682 19.458 17.9938C19.4317 18.0409 19.4053 18.1403 19.3947 18.2188C19.3683 18.3967 19.342 18.4176 19.1256 18.449C18.9515 18.4699 18.941 18.4647 18.9093 18.2711C18.7933 17.6118 18.7722 17.0729 18.8513 16.8113L18.9304 16.5392L19.1784 16.5706C19.3209 16.5863 19.495 16.6439 19.5741 16.7067ZM20.7032 17.2246C20.7348 17.3293 20.5343 17.5909 20.4394 17.5595C20.413 17.549 20.3497 17.3816 20.3022 17.1776C20.2547 16.9787 20.1967 16.759 20.1756 16.6857C20.1492 16.5863 20.202 16.623 20.4024 16.8427C20.5502 16.9997 20.6821 17.1723 20.7032 17.2246ZM18.6772 16.8689C18.6877 16.9735 18.635 17.2979 18.5453 17.6171C18.4609 17.9258 18.3817 18.2292 18.3659 18.2972C18.3237 18.4647 18.2709 18.4804 18.0863 18.3862C17.9016 18.292 17.8963 18.3496 18.1654 17.5543C18.329 17.0834 18.5347 16.6857 18.6192 16.6857C18.6403 16.6857 18.6666 16.7695 18.6772 16.8689ZM20.1439 16.9055C20.1756 17.0311 20.2336 17.2456 20.2758 17.3868C20.3602 17.6851 20.3497 17.7322 20.1334 17.8891C19.9276 18.0409 19.9012 17.999 19.8537 17.4392C19.8168 16.9997 19.8485 16.7956 19.954 16.7276C20.0595 16.6543 20.0859 16.6805 20.1439 16.9055ZM18.0599 17.6328C17.9649 17.8944 17.87 18.1193 17.8541 18.1403C17.833 18.156 17.7697 18.1246 17.7117 18.0618C17.6167 17.9676 17.6114 17.9415 17.6747 17.8316C17.7433 17.706 18.1865 17.1566 18.2182 17.1566C18.2234 17.1566 18.1549 17.3711 18.0599 17.6328ZM19.7904 17.7374C19.8168 18.1298 19.8168 18.135 19.6691 18.2188L19.5161 18.3077L19.5372 18.1037C19.5583 17.8839 19.7218 17.2927 19.7482 17.3241C19.7588 17.3345 19.7746 17.5176 19.7904 17.7374ZM18.7616 18.0042L18.8038 18.517H18.6033C18.4134 18.517 18.3448 18.4542 18.4556 18.3862C18.4873 18.3705 18.5084 18.292 18.5084 18.2135C18.5084 18.0409 18.6877 17.3241 18.7088 17.4235C18.7141 17.4653 18.7405 17.7269 18.7616 18.0042ZM13.9182 18.1298C13.9182 18.1717 13.8971 18.1926 13.8655 18.1769C13.8391 18.1612 13.8127 18.1089 13.8127 18.067C13.8127 18.0252 13.8391 18.0042 13.8655 18.0199C13.8971 18.0356 13.9182 18.088 13.9182 18.1298ZM8.90599 21.4208C8.86906 21.4627 8.8163 21.4836 8.78464 21.4627C8.75299 21.4418 8.76881 21.4051 8.82685 21.3633C8.9482 21.2743 8.99568 21.311 8.90599 21.4208ZM8.80047 21.6563C8.80047 21.6824 8.78992 21.7086 8.77937 21.7086C8.76354 21.7086 8.73716 21.6824 8.72133 21.6563C8.7055 21.6249 8.71605 21.604 8.74243 21.604C8.77409 21.604 8.80047 21.6249 8.80047 21.6563ZM8.9693 22.2894C9.0801 22.3469 9.0801 22.3522 8.95347 22.4202C8.78992 22.5091 8.43115 22.5144 8.43115 22.4254C8.43115 22.2789 8.78464 22.19 8.9693 22.2894ZM8.55777 24.1154C8.61581 24.1729 8.48918 24.4921 8.42587 24.4503C8.39949 24.4346 8.37839 24.3822 8.37839 24.3299C8.37839 24.2776 8.34146 24.2043 8.29925 24.1677C8.17262 24.0631 8.20428 23.9951 8.36784 24.0369C8.44698 24.0526 8.53139 24.0892 8.55777 24.1154ZM10.014 24.22C10.014 24.2462 9.98758 24.2724 9.95592 24.2724C9.92954 24.2724 9.91899 24.2462 9.93482 24.22C9.95064 24.1886 9.97702 24.1677 9.99285 24.1677C10.0034 24.1677 10.014 24.1886 10.014 24.22ZM9.61298 24.6491C9.59187 24.7171 9.49163 24.9421 9.39138 25.1514C9.2331 25.4705 9.21728 25.5438 9.28059 25.5856C9.33862 25.6275 9.33335 25.6327 9.24893 25.6223C9.18034 25.6118 9.13814 25.6432 9.12758 25.7112C9.09065 25.8786 8.95347 26.0513 8.84795 26.0513C8.72661 26.0513 8.71605 25.9728 8.82685 25.9257C8.88489 25.9048 8.90071 25.8472 8.88489 25.7164C8.86906 25.6013 8.89016 25.5124 8.93765 25.4705C8.97458 25.4391 9.11176 25.2141 9.2331 24.9735C9.39138 24.6648 9.48635 24.534 9.55494 24.534C9.62881 24.534 9.64463 24.5601 9.61298 24.6491ZM9.80291 24.6595C9.80291 24.6752 9.78181 24.7014 9.75015 24.7171C9.72377 24.7328 9.69739 24.7223 9.69739 24.6962C9.69739 24.6648 9.72377 24.6386 9.75015 24.6386C9.78181 24.6386 9.80291 24.6491 9.80291 24.6595ZM6.30491 25.0572C6.28908 25.1147 6.29963 25.1775 6.32601 25.1932C6.35239 25.2089 6.3735 25.1828 6.3735 25.1409C6.3735 24.9892 6.51068 25.0572 6.62675 25.2612C6.77448 25.5228 6.77448 25.6746 6.61092 25.8682C6.50012 25.999 6.47374 26.0147 6.42626 25.9466C6.38405 25.8839 6.37878 25.8996 6.38405 26.0042C6.3946 26.1455 6.15191 26.4803 5.94087 26.6164C5.79841 26.7105 5.69817 26.5065 5.67706 26.0984C5.66124 25.7583 5.66651 25.7478 5.94087 25.3554C6.21522 24.963 6.36295 24.8427 6.30491 25.0572ZM4.63241 25.4758C4.42137 25.7845 4.36861 25.8368 4.36861 25.7426C4.36861 25.6955 4.78542 25.1618 4.82235 25.1618C4.83818 25.1618 4.74848 25.3031 4.63241 25.4758ZM5.62958 26.1402C5.60848 26.4856 5.63486 26.7315 5.68762 26.7315C5.714 26.7315 5.71927 26.6948 5.70344 26.6425C5.68234 26.585 5.68762 26.5693 5.72982 26.5954C5.76676 26.6164 5.79314 26.6792 5.79314 26.7367C5.79314 26.7943 5.77203 26.8309 5.74565 26.8152C5.72455 26.7995 5.65596 26.878 5.6032 26.9931C5.55044 27.1082 5.47658 27.2024 5.43964 27.2024C5.40271 27.2024 5.38688 27.239 5.40271 27.2808C5.43964 27.375 5.30247 27.3855 5.2286 27.2913C5.0756 27.103 5.05449 26.8832 5.16001 26.5954C5.25498 26.3234 5.50296 25.9571 5.59792 25.9519C5.6243 25.9466 5.64013 26.0356 5.62958 26.1402ZM6.90638 26.0094C6.91165 26.0461 6.91165 26.1088 6.90638 26.1402C6.9011 26.1769 6.93803 26.2815 6.98024 26.3705C7.04883 26.496 7.05411 26.5483 7.00662 26.5954C6.95914 26.6373 6.93276 26.6373 6.91693 26.585C6.9011 26.5536 6.86945 26.5327 6.84307 26.5536C6.81669 26.5693 6.79558 26.5588 6.79558 26.5327C6.79558 26.5065 6.73754 26.4908 6.66368 26.496C6.49485 26.517 6.49485 26.4385 6.67423 26.1664C6.82196 25.9414 6.89583 25.8943 6.90638 26.0094ZM9.11703 26.0513C9.11703 26.0775 9.09065 26.1036 9.059 26.1036C9.03262 26.1036 9.02206 26.0775 9.03789 26.0513C9.05372 26.0199 9.0801 25.999 9.09593 25.999C9.10648 25.999 9.11703 26.0199 9.11703 26.0513ZM6.91165 26.8727C7.033 26.9774 7.033 27.1187 6.91693 27.3122C6.80613 27.5006 6.72172 27.5058 6.60564 27.3332C6.51595 27.1971 6.53706 26.9408 6.6373 26.9408C6.66896 26.9408 6.69006 26.9041 6.69006 26.8623C6.69006 26.7576 6.7903 26.7629 6.91165 26.8727ZM4.92787 26.9774C4.87511 27.0297 4.82762 26.9512 4.87511 26.8832C4.90676 26.8257 4.91732 26.8257 4.93842 26.8832C4.94897 26.9198 4.9437 26.9617 4.92787 26.9774ZM6.37878 27.0297C6.33129 27.1082 6.32601 27.103 6.34184 26.9931C6.3735 26.81 6.37878 26.7995 6.40516 26.8727C6.42098 26.9094 6.41043 26.9774 6.37878 27.0297ZM6.05694 27.2652C6.05694 27.4849 5.99363 27.5843 5.867 27.5582C5.7351 27.5372 5.714 27.3855 5.81424 27.2285C5.94087 27.0402 6.05694 27.0611 6.05694 27.2652ZM5.30247 27.443C5.31829 27.4849 5.30774 27.5477 5.27081 27.5843C5.2286 27.6262 5.21277 27.6262 5.21277 27.5843C5.21277 27.5529 5.19695 27.4901 5.18112 27.443C5.16529 27.396 5.17584 27.3593 5.2075 27.3593C5.24443 27.3593 5.28136 27.396 5.30247 27.443ZM4.98591 27.5268C4.97008 27.5686 4.95425 27.5529 4.95425 27.4954C4.94897 27.4378 4.9648 27.4064 4.98063 27.4273C4.99646 27.443 5.00173 27.4901 4.98591 27.5268ZM5.47658 28.772C5.47658 28.7982 5.45547 28.8243 5.42381 28.8243C5.39743 28.8243 5.37105 28.7982 5.37105 28.772C5.37105 28.7406 5.39743 28.7197 5.42381 28.7197C5.45547 28.7197 5.47658 28.7406 5.47658 28.772ZM3.19206 28.9394C3.17623 28.9813 3.1604 28.9656 3.1604 28.908C3.15512 28.8505 3.17095 28.8191 3.18678 28.84C3.20261 28.8557 3.20789 28.9028 3.19206 28.9394ZM3.38727 28.9028C3.4031 28.9447 3.39255 28.9813 3.36617 28.9813C3.33451 28.9813 3.31341 28.9447 3.31341 28.9028C3.31341 28.861 3.32396 28.8243 3.33451 28.8243C3.34506 28.8243 3.36617 28.861 3.38727 28.9028ZM4.79069 28.9604C4.79069 29.0022 4.76959 29.0232 4.73793 29.0075C4.71155 28.9918 4.68517 28.9551 4.68517 28.9237C4.68517 28.8976 4.71155 28.8767 4.73793 28.8767C4.76959 28.8767 4.79069 28.9133 4.79069 28.9604ZM5.50823 29.0702C5.48185 29.133 5.45547 29.1383 5.41326 29.0964C5.37105 29.0545 5.37105 29.0179 5.42909 28.9499C5.50823 28.8557 5.56099 28.929 5.50823 29.0702ZM5.03339 29.133C5.03867 29.3214 5.03339 29.3371 4.9437 29.2795C4.88566 29.2429 4.84345 29.2063 4.84345 29.1906C4.84345 29.1697 4.99646 28.9551 5.02811 28.929C5.02811 28.929 5.03339 29.0232 5.03339 29.133ZM3.83046 29.0441C3.92015 29.133 3.9096 29.1749 3.78825 29.2063C3.67218 29.2377 3.50334 29.1069 3.55083 29.0284C3.59831 28.9604 3.75659 28.9708 3.83046 29.0441ZM3.47169 29.1383C3.47169 29.1644 3.45058 29.1906 3.41893 29.1906C3.39255 29.1906 3.36617 29.1644 3.36617 29.1383C3.36617 29.1069 3.39255 29.0859 3.41893 29.0859C3.45058 29.0859 3.47169 29.1069 3.47169 29.1383ZM4.56382 29.2534C4.548 29.2952 4.53217 29.2795 4.53217 29.222C4.52689 29.1644 4.54272 29.133 4.55855 29.154C4.57438 29.1697 4.57965 29.2167 4.56382 29.2534ZM3.56138 29.358C3.54555 29.3999 3.52972 29.3842 3.52972 29.3266C3.52445 29.2691 3.54027 29.2377 3.5561 29.2586C3.57193 29.2743 3.57721 29.3214 3.56138 29.358ZM4.93314 29.3528C5.02811 29.447 4.95425 29.5516 4.72738 29.6667C4.49523 29.7818 4.49523 29.7766 4.68517 29.4941C4.82762 29.2795 4.84873 29.2691 4.93314 29.3528ZM6.79558 29.4208C6.79558 29.5725 6.69534 29.8708 6.6373 29.8708C6.6162 29.8708 6.56871 29.8341 6.53178 29.7923C6.4843 29.7347 6.49485 29.6772 6.58982 29.5045C6.72699 29.2691 6.79558 29.2377 6.79558 29.4208ZM5.63486 29.4365C5.63486 29.4627 5.60848 29.515 5.5821 29.5568C5.53989 29.6196 5.52934 29.6144 5.52934 29.515C5.52934 29.4522 5.55572 29.3999 5.5821 29.3999C5.61375 29.3999 5.63486 29.4156 5.63486 29.4365ZM5.867 29.5307C5.8459 29.5725 5.81424 29.6092 5.78786 29.6092C5.76676 29.6092 5.7562 29.5725 5.77203 29.5307C5.79314 29.4888 5.82479 29.4522 5.85117 29.4522C5.87228 29.4522 5.88283 29.4888 5.867 29.5307ZM3.56138 29.6196C3.54555 29.6615 3.52972 29.6458 3.52972 29.5882C3.52445 29.5307 3.54027 29.4993 3.5561 29.5202C3.57193 29.5359 3.57721 29.583 3.56138 29.6196ZM6.02528 29.6144C6.00945 29.6458 6.03056 29.7086 6.07277 29.7557C6.12553 29.8184 6.13608 29.8812 6.10442 29.9597C6.05166 30.101 6.03583 30.1062 5.87228 29.9963C5.714 29.8917 5.70872 29.8237 5.85117 29.6406C5.95142 29.515 6.10442 29.4941 6.02528 29.6144ZM3.41893 29.6092C3.41893 29.6406 3.47696 29.7243 3.55083 29.7975C3.66162 29.9074 3.67218 29.944 3.61942 30.0539C3.56665 30.1742 3.4242 30.2736 3.41365 30.1952C3.41365 30.1742 3.4031 30.101 3.39782 30.0277C3.39255 29.9545 3.36617 29.8184 3.34506 29.7243C3.31868 29.6144 3.32396 29.5568 3.36089 29.5568C3.39255 29.5568 3.41893 29.583 3.41893 29.6092ZM5.16001 29.6876C5.16001 29.7243 5.21277 29.8498 5.27609 29.9702L5.38688 30.1795L5.13363 30.5562L4.87511 30.9277L4.75376 30.6137C4.548 30.0644 4.548 30.0748 4.8118 29.7975C5.02811 29.5621 5.16001 29.5202 5.16001 29.6876ZM4.31585 29.6615C4.31585 29.6876 4.29475 29.7138 4.26309 29.7138C4.23671 29.7138 4.21033 29.6876 4.21033 29.6615C4.21033 29.6301 4.23671 29.6092 4.26309 29.6092C4.29475 29.6092 4.31585 29.6301 4.31585 29.6615ZM4.03622 29.7766C4.02039 29.8184 4.00456 29.8027 4.00456 29.7452C3.99929 29.6876 4.01512 29.6562 4.03094 29.6772C4.04677 29.6929 4.05205 29.74 4.03622 29.7766ZM4.701 29.8446C4.64824 29.9126 4.5902 29.9754 4.5691 29.9754C4.48996 29.9754 4.52689 29.8237 4.62186 29.7714C4.77486 29.6824 4.80124 29.7086 4.701 29.8446ZM4.42137 29.7871C4.42137 29.8027 4.40027 29.8289 4.36861 29.8446C4.34223 29.8603 4.31585 29.8498 4.31585 29.8237C4.31585 29.7923 4.34223 29.7661 4.36861 29.7661C4.40027 29.7661 4.42137 29.7766 4.42137 29.7871ZM4.47413 30.0016C4.47413 30.1324 3.9096 30.9486 3.85684 30.8963C3.84101 30.8806 3.84628 30.6922 3.86739 30.4777L3.90432 30.0905L4.14702 29.9806C4.46358 29.8446 4.47413 29.8446 4.47413 30.0016ZM6.3946 30.0434C6.35767 30.1376 6.26798 30.1638 6.26798 30.0853C6.26798 29.9702 6.33657 29.8655 6.38405 29.9126C6.41043 29.9388 6.41571 29.9963 6.3946 30.0434ZM3.84101 29.9963C3.84101 30.0382 3.80408 30.0801 3.76187 30.101C3.68273 30.1271 3.65107 30.0277 3.71966 29.9597C3.7777 29.8969 3.84101 29.9179 3.84101 29.9963ZM4.02567 29.9754C4.00984 30.0016 3.97291 30.0277 3.94125 30.0277C3.91487 30.0277 3.89377 30.0016 3.89377 29.9754C3.89377 29.944 3.9307 29.9231 3.97818 29.9231C4.02039 29.9231 4.0415 29.944 4.02567 29.9754ZM5.95142 30.1324C5.95142 30.2056 5.80369 30.1376 5.77203 30.0487C5.75093 29.9859 5.76148 29.9859 5.8459 30.0277C5.90393 30.0591 5.95142 30.1062 5.95142 30.1324ZM5.714 30.1324C5.72982 30.1585 5.72455 30.1847 5.69289 30.1847C5.66651 30.1847 5.6243 30.1585 5.60848 30.1324C5.59265 30.101 5.59792 30.0801 5.62958 30.0801C5.65596 30.0801 5.69817 30.101 5.714 30.1324ZM3.80935 30.5614C3.76187 31.2521 3.69856 31.2939 3.5561 30.7393C3.47169 30.4149 3.48224 30.3574 3.67745 30.1952C3.8199 30.0801 3.83573 30.1271 3.80935 30.5614ZM4.69572 30.5876L4.8329 30.9904L4.69572 31.1736C4.62186 31.2782 4.53744 31.3829 4.51634 31.4143C4.49523 31.4404 4.47413 31.1736 4.47413 30.823C4.47413 30.4725 4.48996 30.1847 4.51634 30.1847C4.53744 30.1847 4.61658 30.3678 4.69572 30.5876ZM5.9778 30.2893C6.02001 30.3574 5.95142 30.3574 5.8459 30.2893C5.77731 30.2475 5.77731 30.237 5.85645 30.237C5.90393 30.237 5.96197 30.2579 5.9778 30.2893ZM5.28664 30.7445C5.21805 31.0009 5.13891 31.273 5.11781 31.3619C5.0756 31.5189 5.07032 31.5189 4.98063 31.2468L4.89094 30.98L5.14419 30.6347C5.28136 30.4463 5.40271 30.2893 5.40271 30.2893C5.40799 30.2893 5.35523 30.4934 5.28664 30.7445ZM6.21522 30.3417C6.21522 30.3678 6.19411 30.394 6.16246 30.394C6.13608 30.394 6.1097 30.3678 6.1097 30.3417C6.1097 30.3103 6.13608 30.2893 6.16246 30.2893C6.19411 30.2893 6.21522 30.3103 6.21522 30.3417ZM4.39499 31.5712C4.37916 31.6288 4.31057 31.7177 4.24199 31.7648C4.11536 31.8538 4.11536 31.8538 3.94653 31.6026C3.74076 31.2834 3.76187 31.1736 4.12591 30.6922L4.39499 30.3364L4.41082 30.9015C4.42137 31.2102 4.41082 31.5137 4.39499 31.5712ZM5.65596 30.823C5.72982 31.0114 5.79314 31.1997 5.79314 31.2416C5.78786 31.3358 5.64541 31.498 5.40271 31.6706C5.23915 31.791 5.19167 31.8067 5.15474 31.7491C5.12836 31.7073 5.10725 31.6549 5.10725 31.6288C5.10725 31.498 5.45019 30.3992 5.48185 30.4306C5.49768 30.4568 5.57682 30.6294 5.65596 30.823ZM5.94087 30.5928C5.95142 30.6242 5.93031 30.7498 5.89338 30.8753L5.83007 31.1003L5.7351 30.8701C5.67706 30.7445 5.61903 30.5876 5.6032 30.5196C5.57154 30.394 5.57154 30.394 5.74565 30.4672C5.84062 30.5091 5.93031 30.5666 5.94087 30.5928ZM6.28908 30.598C6.32074 30.6451 6.06749 31.0637 5.94087 31.1683C5.867 31.2259 5.867 31.1945 5.94087 30.891C6.01473 30.598 6.04111 30.5509 6.14135 30.5509C6.20994 30.5509 6.27325 30.5719 6.28908 30.598ZM4.97008 31.3829C5.01756 31.5084 5.04394 31.6549 5.02284 31.7125C5.00173 31.7857 5.01229 31.8067 5.04922 31.7857C5.08615 31.7596 5.10725 31.791 5.10725 31.859C5.10725 31.9375 5.08087 31.9636 5.03339 31.9479C4.99118 31.9322 4.9437 31.9322 4.92787 31.9479C4.90676 31.9689 4.80124 31.9898 4.68517 32.0003C4.48468 32.0212 4.47413 32.0159 4.47413 31.8747C4.46885 31.7334 4.46885 31.7334 4.39499 31.8276C4.35278 31.8851 4.3053 31.9165 4.29475 31.9061C4.27892 31.8904 4.38971 31.702 4.54272 31.4823C4.69572 31.2625 4.8329 31.0951 4.84873 31.116C4.86456 31.1369 4.92259 31.2573 4.97008 31.3829Z" fill="black"/>
</svg>
