<svg width="1314" height="283" viewBox="0 0 1314 283" fill="none" xmlns="http://www.w3.org/2000/svg">
<g filter="url(#filter0_d)">
<path d="M217.572 174.202L246.112 18.1719H305.585L252.777 267H190.57L157.245 125.154L124.604 267H62.5674L9.58887 18.1719H69.2324L97.7725 174.202L131.952 18.1719H182.88L217.572 174.202ZM382.66 101.912C394.965 86.4173 410.688 78.6699 429.828 78.6699C450.222 78.6699 465.603 84.7083 475.971 96.7852C486.339 108.862 491.636 126.692 491.864 150.276V267H434.101V151.644C434.101 141.845 432.107 134.668 428.119 130.11C424.132 125.439 417.353 123.104 407.782 123.104C395.933 123.104 387.559 126.863 382.66 134.383V267H325.067V4.5H382.66V101.912ZM613.373 270.418C585.004 270.418 562.047 261.987 544.501 245.125C526.955 228.149 518.183 206.103 518.183 178.987V174.202C518.183 155.289 521.658 138.598 528.607 124.129C535.671 109.66 545.925 98.4941 559.369 90.6328C572.813 82.6576 588.764 78.6699 607.221 78.6699C633.197 78.6699 653.705 86.7591 668.744 102.938C683.783 119.002 691.303 141.447 691.303 170.271V192.659H576.801C578.852 203.027 583.352 211.173 590.302 217.098C597.252 223.022 606.252 225.984 617.304 225.984C635.533 225.984 649.774 219.604 660.028 206.844L686.347 237.947C679.169 247.859 668.972 255.778 655.756 261.702C642.654 267.513 628.526 270.418 613.373 270.418ZM606.879 123.104C590.017 123.104 579.991 134.269 576.801 156.6H634.906V152.156C635.134 142.928 632.799 135.807 627.899 130.794C623 125.667 615.993 123.104 606.879 123.104ZM804.096 270.418C775.727 270.418 752.769 261.987 735.224 245.125C717.678 228.149 708.905 206.103 708.905 178.987V174.202C708.905 155.289 712.38 138.598 719.33 124.129C726.394 109.66 736.648 98.4941 750.092 90.6328C763.536 82.6576 779.486 78.6699 797.943 78.6699C823.92 78.6699 844.428 86.7591 859.467 102.938C874.506 119.002 882.025 141.447 882.025 170.271V192.659H767.523C769.574 203.027 774.075 211.173 781.024 217.098C787.974 223.022 796.975 225.984 808.026 225.984C826.256 225.984 840.497 219.604 850.751 206.844L877.069 237.947C869.892 247.859 859.695 255.778 846.479 261.702C833.376 267.513 819.249 270.418 804.096 270.418ZM797.602 123.104C780.74 123.104 770.714 134.269 767.523 156.6H825.629V152.156C825.857 142.928 823.521 135.807 818.622 130.794C813.723 125.667 806.716 123.104 797.602 123.104ZM966.107 267H908.344V4.5H966.107V267ZM1091.21 270.418C1062.84 270.418 1039.88 261.987 1022.33 245.125C1004.79 228.149 996.015 206.103 996.015 178.987V174.202C996.015 155.289 999.49 138.598 1006.44 124.129C1013.5 109.66 1023.76 98.4941 1037.2 90.6328C1050.65 82.6576 1066.6 78.6699 1085.05 78.6699C1111.03 78.6699 1131.54 86.7591 1146.58 102.938C1161.62 119.002 1169.13 141.447 1169.13 170.271V192.659H1054.63C1056.68 203.027 1061.18 211.173 1068.13 217.098C1075.08 223.022 1084.08 225.984 1095.14 225.984C1113.36 225.984 1127.61 219.604 1137.86 206.844L1164.18 237.947C1157 247.859 1146.8 255.778 1133.59 261.702C1120.49 267.513 1106.36 270.418 1091.21 270.418ZM1084.71 123.104C1067.85 123.104 1057.82 134.269 1054.63 156.6H1112.74V152.156C1112.97 142.928 1110.63 135.807 1105.73 130.794C1100.83 125.667 1093.83 123.104 1084.71 123.104ZM1304.32 134.212L1285.35 132.845C1267.23 132.845 1255.61 138.541 1250.48 149.935V267H1192.89V82.0879H1246.89L1248.77 105.843C1258.46 87.7275 1271.96 78.6699 1289.28 78.6699C1295.43 78.6699 1300.78 79.3535 1305.34 80.7207L1304.32 134.212Z" fill="#FF0000"/>
<path d="M217.572 174.202L213.668 175.07L221.507 174.922L217.572 174.202ZM246.112 18.1719V14.1719H242.778L242.178 17.4522L246.112 18.1719ZM305.585 18.1719L309.498 19.0023L310.523 14.1719H305.585V18.1719ZM252.777 267V271H256.018L256.69 267.83L252.777 267ZM190.57 267L186.676 267.915L187.401 271H190.57V267ZM157.245 125.154L161.139 124.239L153.347 124.257L157.245 125.154ZM124.604 267V271H127.788L128.502 267.897L124.604 267ZM62.5674 267L58.6551 267.833L59.3294 271H62.5674V267ZM9.58887 18.1719V14.1719H4.64756L5.67656 19.0049L9.58887 18.1719ZM69.2324 18.1719L73.1671 17.4522L72.5671 14.1719H69.2324V18.1719ZM97.7725 174.202L93.8377 174.922L101.68 175.058L97.7725 174.202ZM131.952 18.1719V14.1719H128.734L128.045 17.3159L131.952 18.1719ZM182.88 18.1719L186.785 17.3037L186.088 14.1719H182.88V18.1719ZM221.507 174.922L250.047 18.8916L242.178 17.4522L213.638 173.482L221.507 174.922ZM246.112 22.1719H305.585V14.1719H246.112V22.1719ZM301.672 17.3415L248.864 266.17L256.69 267.83L309.498 19.0023L301.672 17.3415ZM252.777 263H190.57V271H252.777V263ZM194.464 266.085L161.139 124.239L153.351 126.069L186.676 267.915L194.464 266.085ZM153.347 124.257L120.705 266.103L128.502 267.897L161.143 126.051L153.347 124.257ZM124.604 263H62.5674V271H124.604V263ZM66.4797 266.167L13.5012 17.3389L5.67656 19.0049L58.6551 267.833L66.4797 266.167ZM9.58887 22.1719H69.2324V14.1719H9.58887V22.1719ZM65.2977 18.8916L93.8377 174.922L101.707 173.482L73.1671 17.4522L65.2977 18.8916ZM101.68 175.058L135.859 19.0278L128.045 17.3159L93.8651 173.346L101.68 175.058ZM131.952 22.1719H182.88V14.1719H131.952V22.1719ZM178.975 19.04L213.668 175.07L221.477 173.334L186.785 17.3037L178.975 19.04ZM382.66 101.912H378.66V113.381L385.793 104.4L382.66 101.912ZM475.971 96.7852L472.936 99.3907L475.971 96.7852ZM491.864 150.276H495.864V150.257L495.864 150.238L491.864 150.276ZM491.864 267V271H495.864V267H491.864ZM434.101 267H430.101V271H434.101V267ZM428.119 130.11L425.077 132.707L425.093 132.726L425.109 132.744L428.119 130.11ZM382.66 134.383L379.309 132.199L378.66 133.195V134.383H382.66ZM382.66 267V271H386.66V267H382.66ZM325.067 267H321.067V271H325.067V267ZM325.067 4.5V0.5H321.067V4.5H325.067ZM382.66 4.5H386.66V0.5H382.66V4.5ZM385.793 104.4C397.368 89.8229 411.955 82.6699 429.828 82.6699V74.6699C409.42 74.6699 392.561 83.0117 379.528 99.4246L385.793 104.4ZM429.828 82.6699C449.408 82.6699 463.531 88.4354 472.936 99.3907L479.006 94.1796C467.675 80.9813 451.036 74.6699 429.828 74.6699V82.6699ZM472.936 99.3907C482.454 110.477 487.641 127.234 487.864 150.315L495.864 150.238C495.631 126.151 490.224 107.247 479.006 94.1796L472.936 99.3907ZM487.864 150.276V267H495.864V150.276H487.864ZM491.864 263H434.101V271H491.864V263ZM438.101 267V151.644H430.101V267H438.101ZM438.101 151.644C438.101 141.439 436.048 133.097 431.129 127.476L425.109 132.744C428.166 136.238 430.101 142.252 430.101 151.644H438.101ZM431.161 127.513C426.074 121.553 417.871 119.104 407.782 119.104V127.104C416.834 127.104 422.189 129.325 425.077 132.707L431.161 127.513ZM407.782 119.104C395.065 119.104 385.176 123.194 379.309 132.199L386.012 136.566C389.942 130.533 396.802 127.104 407.782 127.104V119.104ZM378.66 134.383V267H386.66V134.383H378.66ZM382.66 263H325.067V271H382.66V263ZM329.067 267V4.5H321.067V267H329.067ZM325.067 8.5H382.66V0.5H325.067V8.5ZM378.66 4.5V101.912H386.66V4.5H378.66ZM544.501 245.125L541.72 248L541.729 248.009L544.501 245.125ZM528.607 124.129L525.013 122.374L525.007 122.386L525.002 122.397L528.607 124.129ZM559.369 90.6328L561.388 94.0858L561.399 94.0795L561.41 94.073L559.369 90.6328ZM668.744 102.938L665.814 105.661L665.824 105.671L668.744 102.938ZM691.303 192.659V196.659H695.303V192.659H691.303ZM576.801 192.659V188.659H571.932L572.877 193.435L576.801 192.659ZM590.302 217.098L592.897 214.054L590.302 217.098ZM660.028 206.844L663.082 204.26L659.949 200.557L656.91 204.338L660.028 206.844ZM686.347 237.947L689.586 240.293L691.424 237.755L689.4 235.363L686.347 237.947ZM655.756 261.702L657.377 265.359L657.385 265.355L657.392 265.352L655.756 261.702ZM576.801 156.6L572.841 156.034L572.189 160.6H576.801V156.6ZM634.906 156.6V160.6H638.906V156.6H634.906ZM634.906 152.156L630.907 152.058L630.906 152.107V152.156H634.906ZM627.899 130.794L625.007 133.557L625.023 133.574L625.039 133.59L627.899 130.794ZM613.373 266.418C585.853 266.418 563.95 258.269 547.273 242.241L541.729 248.009C560.143 265.705 584.154 274.418 613.373 274.418V266.418ZM547.282 242.25C530.606 226.115 522.183 205.152 522.183 178.987H514.183C514.183 207.055 523.305 230.183 541.72 248L547.282 242.25ZM522.183 178.987V174.202H514.183V178.987H522.183ZM522.183 174.202C522.183 155.783 525.565 139.702 532.213 125.861L525.002 122.397C517.75 137.495 514.183 154.796 514.183 174.202H522.183ZM532.202 125.884C538.932 112.098 548.649 101.535 561.388 94.0858L557.35 87.1798C543.201 95.4535 532.41 107.221 525.013 122.374L532.202 125.884ZM561.41 94.073C574.133 86.5257 589.351 82.6699 607.221 82.6699V74.6699C588.176 74.6699 571.494 78.7894 557.328 87.1926L561.41 94.073ZM607.221 82.6699C632.299 82.6699 651.666 90.4406 665.814 105.661L671.674 100.214C655.744 83.0776 634.096 74.6699 607.221 74.6699V82.6699ZM665.824 105.671C679.976 120.788 687.303 142.138 687.303 170.271H695.303C695.303 140.755 687.591 117.216 671.664 100.204L665.824 105.671ZM687.303 170.271V192.659H695.303V170.271H687.303ZM691.303 188.659H576.801V196.659H691.303V188.659ZM572.877 193.435C575.074 204.542 579.966 213.543 587.707 220.142L592.897 214.054C586.738 208.803 582.629 201.512 580.725 191.883L572.877 193.435ZM587.707 220.142C595.525 226.806 605.51 229.984 617.304 229.984V221.984C606.995 221.984 598.979 219.238 592.897 214.054L587.707 220.142ZM617.304 229.984C636.589 229.984 652.04 223.17 663.146 209.349L656.91 204.338C647.508 216.038 634.477 221.984 617.304 221.984V229.984ZM656.975 209.428L683.293 240.531L689.4 235.363L663.082 204.26L656.975 209.428ZM683.107 235.601C676.41 244.849 666.814 252.361 654.12 258.052L657.392 265.352C671.13 259.194 681.928 250.869 689.586 240.293L683.107 235.601ZM654.134 258.046C641.572 263.617 628 266.418 613.373 266.418V274.418C629.052 274.418 643.736 271.409 657.377 265.359L654.134 258.046ZM606.879 119.104C597.468 119.104 589.607 122.268 583.737 128.805C577.99 135.204 574.495 144.454 572.841 156.034L580.761 157.165C582.296 146.414 585.409 138.916 589.689 134.15C593.845 129.522 599.427 127.104 606.879 127.104V119.104ZM576.801 160.6H634.906V152.6H576.801V160.6ZM638.906 156.6V152.156H630.906V156.6H638.906ZM638.905 152.255C639.151 142.304 636.631 134.005 630.76 127.998L625.039 133.59C628.966 137.609 631.117 143.552 630.907 152.058L638.905 152.255ZM630.791 128.031C624.937 121.904 616.757 119.104 606.879 119.104V127.104C615.23 127.104 621.063 129.43 625.007 133.557L630.791 128.031ZM735.224 245.125L732.442 248L732.452 248.009L735.224 245.125ZM719.33 124.129L715.736 122.374L715.73 122.386L715.724 122.397L719.33 124.129ZM750.092 90.6328L752.111 94.0858L752.122 94.0795L752.133 94.073L750.092 90.6328ZM859.467 102.938L856.537 105.661L856.547 105.671L859.467 102.938ZM882.025 192.659V196.659H886.025V192.659H882.025ZM767.523 192.659V188.659H762.655L763.599 193.435L767.523 192.659ZM781.024 217.098L783.619 214.054L781.024 217.098ZM850.751 206.844L853.805 204.26L850.671 200.557L847.633 204.338L850.751 206.844ZM877.069 237.947L880.309 240.293L882.147 237.755L880.123 235.363L877.069 237.947ZM846.479 261.702L848.1 265.359L848.107 265.355L848.115 265.352L846.479 261.702ZM767.523 156.6L763.564 156.034L762.911 160.6H767.523V156.6ZM825.629 156.6V160.6H829.629V156.6H825.629ZM825.629 152.156L821.63 152.058L821.629 152.107V152.156H825.629ZM818.622 130.794L815.73 133.557L815.746 133.574L815.761 133.59L818.622 130.794ZM804.096 266.418C776.576 266.418 754.673 258.269 737.995 242.241L732.452 248.009C750.865 265.705 774.877 274.418 804.096 274.418V266.418ZM738.005 242.25C721.328 226.115 712.905 205.152 712.905 178.987H704.905C704.905 207.055 714.028 230.183 732.442 248L738.005 242.25ZM712.905 178.987V174.202H704.905V178.987H712.905ZM712.905 174.202C712.905 155.783 716.288 139.702 722.936 125.861L715.724 122.397C708.473 137.495 704.905 154.796 704.905 174.202H712.905ZM722.925 125.884C729.655 112.098 739.372 101.535 752.111 94.0858L748.073 87.1798C733.923 95.4535 723.133 107.221 715.736 122.374L722.925 125.884ZM752.133 94.073C764.855 86.5257 780.074 82.6699 797.943 82.6699V74.6699C778.899 74.6699 762.216 78.7894 748.051 87.1926L752.133 94.073ZM797.943 82.6699C823.022 82.6699 842.389 90.4406 856.537 105.661L862.397 100.214C846.467 83.0776 824.818 74.6699 797.943 74.6699V82.6699ZM856.547 105.671C870.698 120.788 878.025 142.138 878.025 170.271H886.025C886.025 140.755 878.313 117.216 862.387 100.204L856.547 105.671ZM878.025 170.271V192.659H886.025V170.271H878.025ZM882.025 188.659H767.523V196.659H882.025V188.659ZM763.599 193.435C765.796 204.542 770.689 213.543 778.429 220.142L783.619 214.054C777.46 208.803 773.352 201.512 771.447 191.883L763.599 193.435ZM778.429 220.142C786.247 226.806 796.232 229.984 808.026 229.984V221.984C797.718 221.984 789.701 219.238 783.619 214.054L778.429 220.142ZM808.026 229.984C827.311 229.984 842.763 223.17 853.869 209.349L847.633 204.338C838.231 216.038 825.2 221.984 808.026 221.984V229.984ZM847.697 209.428L874.016 240.531L880.123 235.363L853.805 204.26L847.697 209.428ZM873.83 235.601C867.133 244.849 857.537 252.361 844.842 258.052L848.115 265.352C861.852 259.194 872.651 250.869 880.309 240.293L873.83 235.601ZM844.857 258.046C832.294 263.617 818.723 266.418 804.096 266.418V274.418C819.775 274.418 834.458 271.409 848.1 265.359L844.857 258.046ZM797.602 119.104C788.191 119.104 780.329 122.268 774.459 128.805C768.713 135.204 765.218 144.454 763.564 156.034L771.483 157.165C773.019 146.414 776.132 138.916 780.412 134.15C784.568 129.522 790.15 127.104 797.602 127.104V119.104ZM767.523 160.6H825.629V152.6H767.523V160.6ZM829.629 156.6V152.156H821.629V156.6H829.629ZM829.628 152.255C829.873 142.304 827.353 134.005 821.483 127.998L815.761 133.59C819.689 137.609 821.84 143.552 821.63 152.058L829.628 152.255ZM821.514 128.031C815.66 121.904 807.48 119.104 797.602 119.104V127.104C805.952 127.104 811.786 129.43 815.73 133.557L821.514 128.031ZM966.107 267V271H970.107V267H966.107ZM908.344 267H904.344V271H908.344V267ZM908.344 4.5V0.5H904.344V4.5H908.344ZM966.107 4.5H970.107V0.5H966.107V4.5ZM966.107 263H908.344V271H966.107V263ZM912.344 267V4.5H904.344V267H912.344ZM908.344 8.5H966.107V0.5H908.344V8.5ZM962.107 4.5V267H970.107V4.5H962.107ZM1022.33 245.125L1019.55 248L1019.56 248.009L1022.33 245.125ZM1006.44 124.129L1002.84 122.374L1002.84 122.386L1002.83 122.397L1006.44 124.129ZM1037.2 90.6328L1039.22 94.0858L1039.23 94.0795L1039.24 94.073L1037.2 90.6328ZM1146.58 102.938L1143.65 105.661L1143.66 105.671L1146.58 102.938ZM1169.13 192.659V196.659H1173.13V192.659H1169.13ZM1054.63 192.659V188.659H1049.76L1050.71 193.435L1054.63 192.659ZM1068.13 217.098L1070.73 214.054L1068.13 217.098ZM1137.86 206.844L1140.91 204.26L1137.78 200.557L1134.74 204.338L1137.86 206.844ZM1164.18 237.947L1167.42 240.293L1169.26 237.755L1167.23 235.363L1164.18 237.947ZM1133.59 261.702L1135.21 265.359L1135.22 265.355L1135.22 265.352L1133.59 261.702ZM1054.63 156.6L1050.67 156.034L1050.02 160.6H1054.63V156.6ZM1112.74 156.6V160.6H1116.74V156.6H1112.74ZM1112.74 152.156L1108.74 152.058L1108.74 152.107V152.156H1112.74ZM1105.73 130.794L1102.84 133.557L1102.85 133.574L1102.87 133.59L1105.73 130.794ZM1091.21 266.418C1063.69 266.418 1041.78 258.269 1025.1 242.241L1019.56 248.009C1037.97 265.705 1061.99 274.418 1091.21 274.418V266.418ZM1025.11 242.25C1008.44 226.115 1000.01 205.152 1000.01 178.987H992.015C992.015 207.055 1001.14 230.183 1019.55 248L1025.11 242.25ZM1000.01 178.987V174.202H992.015V178.987H1000.01ZM1000.01 174.202C1000.01 155.783 1003.4 139.702 1010.05 125.861L1002.83 122.397C995.582 137.495 992.015 154.796 992.015 174.202H1000.01ZM1010.03 125.884C1016.76 112.098 1026.48 101.535 1039.22 94.0858L1035.18 87.1798C1021.03 95.4535 1010.24 107.221 1002.84 122.374L1010.03 125.884ZM1039.24 94.073C1051.96 86.5257 1067.18 82.6699 1085.05 82.6699V74.6699C1066.01 74.6699 1049.33 78.7894 1035.16 87.1926L1039.24 94.073ZM1085.05 82.6699C1110.13 82.6699 1129.5 90.4406 1143.65 105.661L1149.51 100.214C1133.58 83.0776 1111.93 74.6699 1085.05 74.6699V82.6699ZM1143.66 105.671C1157.81 120.788 1165.13 142.138 1165.13 170.271H1173.13C1173.13 140.755 1165.42 117.216 1149.5 100.204L1143.66 105.671ZM1165.13 170.271V192.659H1173.13V170.271H1165.13ZM1169.13 188.659H1054.63V196.659H1169.13V188.659ZM1050.71 193.435C1052.91 204.542 1057.8 213.543 1065.54 220.142L1070.73 214.054C1064.57 208.803 1060.46 201.512 1058.56 191.883L1050.71 193.435ZM1065.54 220.142C1073.36 226.806 1083.34 229.984 1095.14 229.984V221.984C1084.83 221.984 1076.81 219.238 1070.73 214.054L1065.54 220.142ZM1095.14 229.984C1114.42 229.984 1129.87 223.17 1140.98 209.349L1134.74 204.338C1125.34 216.038 1112.31 221.984 1095.14 221.984V229.984ZM1134.81 209.428L1161.13 240.531L1167.23 235.363L1140.91 204.26L1134.81 209.428ZM1160.94 235.601C1154.24 244.849 1144.65 252.361 1131.95 258.052L1135.22 265.352C1148.96 259.194 1159.76 250.869 1167.42 240.293L1160.94 235.601ZM1131.97 258.046C1119.4 263.617 1105.83 266.418 1091.21 266.418V274.418C1106.88 274.418 1121.57 271.409 1135.21 265.359L1131.97 258.046ZM1084.71 119.104C1075.3 119.104 1067.44 122.268 1061.57 128.805C1055.82 135.204 1052.33 144.454 1050.67 156.034L1058.59 157.165C1060.13 146.414 1063.24 138.916 1067.52 134.15C1071.68 129.522 1077.26 127.104 1084.71 127.104V119.104ZM1054.63 160.6H1112.74V152.6H1054.63V160.6ZM1116.74 156.6V152.156H1108.74V156.6H1116.74ZM1116.74 152.255C1116.98 142.304 1114.46 134.005 1108.59 127.998L1102.87 133.59C1106.8 137.609 1108.95 143.552 1108.74 152.058L1116.74 152.255ZM1108.62 128.031C1102.77 121.904 1094.59 119.104 1084.71 119.104V127.104C1093.06 127.104 1098.9 129.43 1102.84 133.557L1108.62 128.031ZM1304.32 134.212L1304.03 138.202L1308.23 138.505L1308.31 134.289L1304.32 134.212ZM1285.35 132.845L1285.63 128.855L1285.49 128.845H1285.35V132.845ZM1250.48 149.935L1246.83 148.293L1246.48 149.076V149.935H1250.48ZM1250.48 267V271H1254.48V267H1250.48ZM1192.89 267H1188.89V271H1192.89V267ZM1192.89 82.0879V78.0879H1188.89V82.0879H1192.89ZM1246.89 82.0879L1250.88 81.7723L1250.59 78.0879H1246.89V82.0879ZM1248.77 105.843L1244.79 106.158L1245.86 119.771L1252.3 107.729L1248.77 105.843ZM1305.34 80.7207L1309.34 80.7974L1309.4 77.7618L1306.49 76.8894L1305.34 80.7207ZM1304.6 130.222L1285.63 128.855L1285.06 136.834L1304.03 138.202L1304.6 130.222ZM1285.35 128.845C1266.47 128.845 1252.89 134.844 1246.83 148.293L1254.13 151.576C1258.33 142.239 1267.99 136.845 1285.35 136.845V128.845ZM1246.48 149.935V267H1254.48V149.935H1246.48ZM1250.48 263H1192.89V271H1250.48V263ZM1196.89 267V82.0879H1188.89V267H1196.89ZM1192.89 86.0879H1246.89V78.0879H1192.89V86.0879ZM1242.91 82.4035L1244.79 106.158L1252.76 105.527L1250.88 81.7723L1242.91 82.4035ZM1252.3 107.729C1261.45 90.6235 1273.74 82.6699 1289.28 82.6699V74.6699C1270.18 74.6699 1255.47 84.8316 1245.25 103.957L1252.3 107.729ZM1289.28 82.6699C1295.15 82.6699 1300.1 83.3239 1304.19 84.552L1306.49 76.8894C1301.47 75.3832 1295.71 74.6699 1289.28 74.6699V82.6699ZM1301.34 80.644L1300.32 134.135L1308.31 134.289L1309.34 80.7974L1301.34 80.644Z" fill="black"/>
</g>
<defs>
<filter id="filter0_d" x="0.647461" y="0.5" width="1312.75" height="281.918" filterUnits="userSpaceOnUse" color-interpolation-filters="sRGB">
<feFlood flood-opacity="0" result="BackgroundImageFix"/>
<feColorMatrix in="SourceAlpha" type="matrix" values="0 0 0 0 0 0 0 0 0 0 0 0 0 0 0 0 0 0 127 0"/>
<feOffset dy="4"/>
<feGaussianBlur stdDeviation="2"/>
<feColorMatrix type="matrix" values="0 0 0 0 0 0 0 0 0 0 0 0 0 0 0 0 0 0 0.25 0"/>
<feBlend mode="normal" in2="BackgroundImageFix" result="effect1_dropShadow"/>
<feBlend mode="normal" in="SourceGraphic" in2="effect1_dropShadow" result="shape"/>
</filter>
</defs>
</svg>
