<svg width="1352" height="270" viewBox="0 0 1352 270" fill="none" xmlns="http://www.w3.org/2000/svg">
<g filter="url(#filter0_d)">
<path d="M157.335 63.3467L100.597 258H71.5439L4.38086 11.3936H36.5098L85.5576 211.857H87.6084L142.809 11.3936H173.912L229.112 211.857H231.163L280.211 11.3936H312.34L245.177 258H216.124L159.386 63.3467H157.335ZM357.115 258V0.626953H386.51V102.824H389.244C393.915 92.4564 401.036 84.4811 410.606 78.8984C420.291 73.3158 432.083 70.5244 445.982 70.5244C465.579 70.5244 481.074 76.5628 492.467 88.6396C503.86 100.603 509.557 117.294 509.557 138.713V258H480.162V145.891C480.162 113.306 465.978 97.0137 437.608 97.0137C421.43 97.0137 408.84 101.742 399.84 111.198C390.953 120.541 386.51 133.13 386.51 148.967V258H357.115ZM636.705 96.501C622.008 96.501 609.931 101.457 600.475 111.369C591.018 121.281 585.72 134.383 584.581 150.676H686.095C685.753 134.383 681.082 121.281 672.081 111.369C663.08 101.457 651.288 96.501 636.705 96.501ZM685.24 210.319H714.635C710.191 226.27 701.134 238.745 687.462 247.746C673.904 256.747 657.099 261.247 637.047 261.247C611.526 261.247 591.303 252.702 576.378 235.612C561.453 218.409 553.99 195.223 553.99 166.057C553.99 137.004 561.51 113.819 576.549 96.501C591.588 79.1833 611.754 70.5244 637.047 70.5244C661.884 70.5244 681.424 78.7845 695.665 95.3047C709.907 111.825 717.027 134.44 717.027 163.151V174.431H584.581V175.798C585.379 194.027 590.506 208.496 599.962 219.206C609.532 229.916 622.122 235.271 637.73 235.271C661.542 235.271 677.379 226.953 685.24 210.319ZM836.656 96.501C821.959 96.501 809.882 101.457 800.426 111.369C790.969 121.281 785.672 134.383 784.532 150.676H886.046C885.704 134.383 881.033 121.281 872.032 111.369C863.032 101.457 851.24 96.501 836.656 96.501ZM885.191 210.319H914.586C910.143 226.27 901.085 238.745 887.413 247.746C873.855 256.747 857.05 261.247 836.998 261.247C811.477 261.247 791.254 252.702 776.329 235.612C761.404 218.409 753.941 195.223 753.941 166.057C753.941 137.004 761.461 113.819 776.5 96.501C791.539 79.1833 811.705 70.5244 836.998 70.5244C861.835 70.5244 881.375 78.7845 895.616 95.3047C909.858 111.825 916.979 134.44 916.979 163.151V174.431H784.532V175.798C785.33 194.027 790.457 208.496 799.913 219.206C809.483 229.916 822.073 235.271 837.682 235.271C861.493 235.271 877.33 226.953 885.191 210.319ZM964.83 258V0.626953H994.225V258H964.83ZM1124.79 96.501C1110.09 96.501 1098.02 101.457 1088.56 111.369C1079.1 121.281 1073.81 134.383 1072.67 150.676H1174.18C1173.84 134.383 1169.17 121.281 1160.17 111.369C1151.17 101.457 1139.37 96.501 1124.79 96.501ZM1173.33 210.319H1202.72C1198.28 226.27 1189.22 238.745 1175.55 247.746C1161.99 256.747 1145.18 261.247 1125.13 261.247C1099.61 261.247 1079.39 252.702 1064.46 235.612C1049.54 218.409 1042.08 195.223 1042.08 166.057C1042.08 137.004 1049.6 113.819 1064.63 96.501C1079.67 79.1833 1099.84 70.5244 1125.13 70.5244C1149.97 70.5244 1169.51 78.7845 1183.75 95.3047C1197.99 111.825 1205.11 134.44 1205.11 163.151V174.431H1072.67V175.798C1073.46 194.027 1078.59 208.496 1088.05 219.206C1097.62 229.916 1110.21 235.271 1125.82 235.271C1149.63 235.271 1165.46 226.953 1173.33 210.319ZM1251.26 258V73.7715H1279.28V101.115H1282.02C1284.75 92.1146 1290.9 84.766 1300.47 79.0693C1310.04 73.3727 1320.93 70.5244 1333.12 70.5244C1338.7 70.5244 1343.6 70.8092 1347.81 71.3789V100.773C1343.83 99.6341 1337.56 99.0645 1329.01 99.0645C1315 99.0645 1303.44 103.28 1294.32 111.711C1285.21 120.142 1280.65 130.852 1280.65 143.84V258H1251.26Z" fill="black"/>
</g>
<defs>
<filter id="filter0_d" x="0.380859" y="0.626953" width="1351.43" height="268.62" filterUnits="userSpaceOnUse" color-interpolation-filters="sRGB">
<feFlood flood-opacity="0" result="BackgroundImageFix"/>
<feColorMatrix in="SourceAlpha" type="matrix" values="0 0 0 0 0 0 0 0 0 0 0 0 0 0 0 0 0 0 127 0"/>
<feOffset dy="4"/>
<feGaussianBlur stdDeviation="2"/>
<feColorMatrix type="matrix" values="0 0 0 0 0 0 0 0 0 0 0 0 0 0 0 0 0 0 0.25 0"/>
<feBlend mode="normal" in2="BackgroundImageFix" result="effect1_dropShadow"/>
<feBlend mode="normal" in="SourceGraphic" in2="effect1_dropShadow" result="shape"/>
</filter>
</defs>
</svg>
