<svg width="1374" height="255" viewBox="0 0 1374 255" fill="none" xmlns="http://www.w3.org/2000/svg">
<g filter="url(#filter0_d)">
<path d="M8.3 17.75H93.7L99.65 169.3L158.1 17.75H227.4L236.5 169.3L295.3 17.75H332.05L245.6 240H166.85L159.5 114.35L107 240H23L8.3 17.75ZM405.009 111.9H407.459C411.892 107.467 417.025 103.383 422.859 99.65C427.759 96.3833 433.592 93.4667 440.359 90.9C447.125 88.3333 454.709 87.05 463.109 87.05C475.242 87.05 485.275 90.2 493.209 96.5C501.142 102.567 505.109 110.967 505.109 121.7C505.109 124.967 504.759 128.7 504.059 132.9C503.359 136.867 502.542 141.183 501.609 145.85C500.675 150.283 499.625 154.833 498.459 159.5C497.525 163.933 496.709 168.017 496.009 171.75L481.309 240H410.259L429.509 148.65C429.975 145.617 430.559 142.583 431.259 139.55C431.959 136.283 432.309 133.367 432.309 130.8C432.309 127.3 431.375 124.5 429.509 122.4C427.875 120.067 425.309 118.9 421.809 118.9C417.609 118.9 413.525 120.417 409.559 123.45C405.825 126.483 402.909 129.167 400.809 131.5L377.709 240H306.309L356.009 4.79998H427.759L405.009 111.9ZM591.187 169.65C590.253 174.783 589.553 179.683 589.087 184.35C588.853 189.017 588.737 193.217 588.737 196.95C588.737 199.05 588.853 201.383 589.087 203.95C589.32 206.517 589.787 208.967 590.487 211.3C591.42 213.4 592.587 215.267 593.987 216.9C595.62 218.3 597.837 219 600.637 219C602.737 219 605.07 218.3 607.637 216.9C610.437 215.5 613.12 213.517 615.687 210.95C618.487 208.383 621.053 205.233 623.387 201.5C625.953 197.767 627.937 193.567 629.337 188.9H686.737L677.637 226.35C672.97 229.383 667.603 231.95 661.537 234.05C655.47 236.15 649.053 237.9 642.287 239.3C635.52 240.467 628.637 241.283 621.637 241.75C614.637 242.45 607.987 242.8 601.687 242.8C590.02 242.8 579.17 241.75 569.137 239.65C559.103 237.55 550.353 233.933 542.887 228.8C535.42 223.667 529.47 216.9 525.037 208.5C520.837 199.867 518.737 189.25 518.737 176.65C518.737 165.217 520.487 154.017 523.987 143.05C527.72 132.083 533.787 122.4 542.187 114C550.82 105.367 562.253 98.4833 576.487 93.35C590.953 88.2167 608.92 85.65 630.387 85.65C653.72 85.65 671.22 89.2667 682.887 96.5C694.787 103.733 700.737 115.05 700.737 130.45C700.737 136.75 699.803 143.633 697.937 151.1C696.07 158.333 693.27 164.517 689.537 169.65H591.187ZM637.737 128C637.737 120.767 636.57 115.867 634.237 113.3C631.903 110.733 629.103 109.45 625.837 109.45C622.103 109.45 618.603 110.733 615.337 113.3C612.303 115.633 609.503 118.9 606.937 123.1C604.37 127.067 602.037 131.733 599.937 137.1C597.837 142.233 596.087 147.717 594.687 153.55H634.587C635.053 150.75 635.52 147.833 635.987 144.8C636.453 142.233 636.803 139.433 637.037 136.4C637.503 133.367 637.737 130.567 637.737 128ZM782.593 169.65C781.66 174.783 780.96 179.683 780.493 184.35C780.26 189.017 780.143 193.217 780.143 196.95C780.143 199.05 780.26 201.383 780.493 203.95C780.726 206.517 781.193 208.967 781.893 211.3C782.826 213.4 783.993 215.267 785.393 216.9C787.026 218.3 789.243 219 792.043 219C794.143 219 796.476 218.3 799.043 216.9C801.843 215.5 804.526 213.517 807.093 210.95C809.893 208.383 812.46 205.233 814.793 201.5C817.36 197.767 819.343 193.567 820.743 188.9H878.143L869.043 226.35C864.376 229.383 859.01 231.95 852.943 234.05C846.876 236.15 840.46 237.9 833.693 239.3C826.926 240.467 820.043 241.283 813.043 241.75C806.043 242.45 799.393 242.8 793.093 242.8C781.426 242.8 770.576 241.75 760.543 239.65C750.51 237.55 741.76 233.933 734.293 228.8C726.826 223.667 720.876 216.9 716.443 208.5C712.243 199.867 710.143 189.25 710.143 176.65C710.143 165.217 711.893 154.017 715.393 143.05C719.126 132.083 725.193 122.4 733.593 114C742.226 105.367 753.66 98.4833 767.893 93.35C782.36 88.2167 800.326 85.65 821.793 85.65C845.126 85.65 862.626 89.2667 874.293 96.5C886.193 103.733 892.143 115.05 892.143 130.45C892.143 136.75 891.21 143.633 889.343 151.1C887.476 158.333 884.676 164.517 880.943 169.65H782.593ZM829.143 128C829.143 120.767 827.976 115.867 825.643 113.3C823.31 110.733 820.51 109.45 817.243 109.45C813.51 109.45 810.01 110.733 806.743 113.3C803.71 115.633 800.91 118.9 798.343 123.1C795.776 127.067 793.443 131.733 791.343 137.1C789.243 142.233 787.493 147.717 786.093 153.55H825.993C826.46 150.75 826.926 147.833 827.393 144.8C827.86 142.233 828.21 139.433 828.443 136.4C828.91 133.367 829.143 130.567 829.143 128ZM965.599 240H894.199L943.899 4.79998H1015.65L965.599 240ZM1076.54 169.65C1075.6 174.783 1074.9 179.683 1074.44 184.35C1074.2 189.017 1074.09 193.217 1074.09 196.95C1074.09 199.05 1074.2 201.383 1074.44 203.95C1074.67 206.517 1075.14 208.967 1075.84 211.3C1076.77 213.4 1077.94 215.267 1079.34 216.9C1080.97 218.3 1083.19 219 1085.99 219C1088.09 219 1090.42 218.3 1092.99 216.9C1095.79 215.5 1098.47 213.517 1101.04 210.95C1103.84 208.383 1106.4 205.233 1108.74 201.5C1111.3 197.767 1113.29 193.567 1114.69 188.9H1172.09L1162.99 226.35C1158.32 229.383 1152.95 231.95 1146.89 234.05C1140.82 236.15 1134.4 237.9 1127.64 239.3C1120.87 240.467 1113.99 241.283 1106.99 241.75C1099.99 242.45 1093.34 242.8 1087.04 242.8C1075.37 242.8 1064.52 241.75 1054.49 239.65C1044.45 237.55 1035.7 233.933 1028.24 228.8C1020.77 223.667 1014.82 216.9 1010.39 208.5C1006.19 199.867 1004.09 189.25 1004.09 176.65C1004.09 165.217 1005.84 154.017 1009.34 143.05C1013.07 132.083 1019.14 122.4 1027.54 114C1036.17 105.367 1047.6 98.4833 1061.84 93.35C1076.3 88.2167 1094.27 85.65 1115.74 85.65C1139.07 85.65 1156.57 89.2667 1168.24 96.5C1180.14 103.733 1186.09 115.05 1186.09 130.45C1186.09 136.75 1185.15 143.633 1183.29 151.1C1181.42 158.333 1178.62 164.517 1174.89 169.65H1076.54ZM1123.09 128C1123.09 120.767 1121.92 115.867 1119.59 113.3C1117.25 110.733 1114.45 109.45 1111.19 109.45C1107.45 109.45 1103.95 110.733 1100.69 113.3C1097.65 115.633 1094.85 118.9 1092.29 123.1C1089.72 127.067 1087.39 131.733 1085.29 137.1C1083.19 142.233 1081.44 147.717 1080.04 153.55H1119.94C1120.4 150.75 1120.87 147.833 1121.34 144.8C1121.8 142.233 1122.15 139.433 1122.39 136.4C1122.85 133.367 1123.09 130.567 1123.09 128ZM1219.99 89.5H1277.04L1282.29 115.75H1284.74C1290.11 107.35 1296.99 100.233 1305.39 94.4C1313.79 88.5667 1324.88 85.65 1338.64 85.65C1339.58 85.65 1340.98 85.7667 1342.84 86C1344.94 86 1347.16 86.35 1349.49 87.05C1352.06 87.5167 1354.63 88.3333 1357.19 89.5C1359.99 90.4333 1362.68 91.8333 1365.24 93.7L1349.84 165.8H1311.69C1311.23 151.333 1309.94 141.3 1307.84 135.7C1305.74 129.867 1302.36 126.95 1297.69 126.95C1295.36 126.95 1292.79 127.533 1289.99 128.7C1287.43 129.633 1284.74 131.85 1281.94 135.35L1259.54 240H1188.14L1219.99 89.5Z" fill="white"/>
<path d="M8.3 17.75V13.75H4.02669L4.30872 18.014L8.3 17.75ZM93.7 17.75L97.6969 17.5931L97.546 13.75H93.7V17.75ZM99.65 169.3L95.6531 169.457L103.382 170.739L99.65 169.3ZM158.1 17.75V13.75H155.356L154.368 16.3106L158.1 17.75ZM227.4 17.75L231.393 17.5102L231.167 13.75H227.4V17.75ZM236.5 169.3L232.507 169.54L240.229 170.747L236.5 169.3ZM295.3 17.75V13.75H292.561L291.571 16.3031L295.3 17.75ZM332.05 17.75L335.778 19.2001L337.898 13.75H332.05V17.75ZM245.6 240V244H248.336L249.328 241.45L245.6 240ZM166.85 240L162.857 240.234L163.077 244H166.85V240ZM159.5 114.35L163.493 114.116L155.809 112.808L159.5 114.35ZM107 240V244H109.664L110.691 241.542L107 240ZM23 240L19.0087 240.264L19.2558 244H23V240ZM8.3 21.75H93.7V13.75H8.3V21.75ZM89.7031 17.9069L95.6531 169.457L103.647 169.143L97.6969 17.5931L89.7031 17.9069ZM103.382 170.739L161.832 19.1894L154.368 16.3106L95.918 167.861L103.382 170.739ZM158.1 21.75H227.4V13.75H158.1V21.75ZM223.407 17.9897L232.507 169.54L240.493 169.06L231.393 17.5102L223.407 17.9897ZM240.229 170.747L299.029 19.1969L291.571 16.3031L232.771 167.853L240.229 170.747ZM295.3 21.75H332.05V13.75H295.3V21.75ZM328.322 16.2999L241.872 238.55L249.328 241.45L335.778 19.2001L328.322 16.2999ZM245.6 236H166.85V244H245.6V236ZM170.843 239.766L163.493 114.116L155.507 114.584L162.857 240.234L170.843 239.766ZM155.809 112.808L103.309 238.458L110.691 241.542L163.191 115.892L155.809 112.808ZM107 236H23V244H107V236ZM26.9913 239.736L12.2913 17.486L4.30872 18.014L19.0087 240.264L26.9913 239.736ZM405.009 111.9L401.096 111.069L400.07 115.9H405.009V111.9ZM407.459 111.9V115.9H409.115L410.287 114.728L407.459 111.9ZM422.859 99.65L425.015 103.019L425.046 102.999L425.077 102.978L422.859 99.65ZM440.359 90.9L438.94 87.16L438.94 87.16L440.359 90.9ZM493.209 96.5L490.721 99.6324L490.75 99.6552L490.779 99.6774L493.209 96.5ZM504.059 132.9L507.998 133.595L508.001 133.576L508.004 133.558L504.059 132.9ZM501.609 145.85L505.523 146.674L505.527 146.654L505.531 146.634L501.609 145.85ZM498.459 159.5L494.578 158.53L494.56 158.603L494.544 158.676L498.459 159.5ZM496.009 171.75L499.919 172.592L499.93 172.54L499.94 172.487L496.009 171.75ZM481.309 240V244H484.539L485.219 240.842L481.309 240ZM410.259 240L406.345 239.175L405.328 244H410.259V240ZM429.509 148.65L433.423 149.475L433.445 149.367L433.462 149.258L429.509 148.65ZM431.259 139.55L435.156 140.449L435.163 140.419L435.17 140.388L431.259 139.55ZM429.509 122.4L426.232 124.694L426.365 124.884L426.519 125.057L429.509 122.4ZM409.559 123.45L407.129 120.273L407.082 120.308L407.036 120.346L409.559 123.45ZM400.809 131.5L397.835 128.824L397.119 129.62L396.896 130.667L400.809 131.5ZM377.709 240V244H380.947L381.621 240.833L377.709 240ZM306.309 240L302.395 239.173L301.375 244H306.309V240ZM356.009 4.79998V0.799982H352.766L352.095 3.97301L356.009 4.79998ZM427.759 4.79998L431.671 5.63111L432.698 0.799982H427.759V4.79998ZM405.009 115.9H407.459V107.9H405.009V115.9ZM410.287 114.728C414.496 110.519 419.399 106.613 425.015 103.019L420.702 96.2809C414.651 100.154 409.287 104.414 404.63 109.072L410.287 114.728ZM425.077 102.978C429.678 99.9113 435.231 97.1232 441.777 94.64L438.94 87.16C431.953 89.8101 425.839 92.8554 420.64 96.3218L425.077 102.978ZM441.777 94.64C448.024 92.2705 455.117 91.05 463.109 91.05V83.05C454.301 83.05 446.226 84.3962 438.94 87.16L441.777 94.64ZM463.109 91.05C474.524 91.05 483.628 93.9994 490.721 99.6324L495.696 93.3675C486.923 86.4006 475.96 83.05 463.109 83.05V91.05ZM490.779 99.6774C497.64 104.924 501.109 112.105 501.109 121.7H509.109C509.109 109.829 504.644 100.209 495.638 93.3226L490.779 99.6774ZM501.109 121.7C501.109 124.692 500.787 128.198 500.113 132.242L508.004 133.558C508.73 129.202 509.109 125.241 509.109 121.7H501.109ZM500.119 132.205C499.426 136.137 498.615 140.423 497.686 145.066L505.531 146.634C506.469 141.943 507.292 137.596 507.998 133.595L500.119 132.205ZM497.694 145.026C496.772 149.407 495.733 153.909 494.578 158.53L502.339 160.47C503.517 155.758 504.579 151.159 505.523 146.674L497.694 145.026ZM494.544 158.676C493.606 163.133 492.783 167.246 492.077 171.013L499.94 172.487C500.634 168.788 501.444 164.734 502.373 160.324L494.544 158.676ZM492.098 170.908L477.398 239.158L485.219 240.842L499.919 172.592L492.098 170.908ZM481.309 236H410.259V244H481.309V236ZM414.173 240.825L433.423 149.475L425.595 147.825L406.345 239.175L414.173 240.825ZM433.462 149.258C433.914 146.324 434.478 143.388 435.156 140.449L427.361 138.651C426.639 141.779 426.037 144.909 425.555 148.042L433.462 149.258ZM435.17 140.388C435.912 136.924 436.309 133.718 436.309 130.8H428.309C428.309 133.015 428.005 135.643 427.347 138.712L435.17 140.388ZM436.309 130.8C436.309 126.57 435.165 122.742 432.498 119.743L426.519 125.057C427.586 126.258 428.309 128.03 428.309 130.8H436.309ZM432.786 120.106C430.229 116.454 426.276 114.9 421.809 114.9V122.9C424.341 122.9 425.521 123.679 426.232 124.694L432.786 120.106ZM421.809 114.9C416.573 114.9 411.657 116.81 407.129 120.273L411.988 126.627C415.394 124.023 418.644 122.9 421.809 122.9V114.9ZM407.036 120.346C403.217 123.449 400.127 126.278 397.835 128.824L403.782 134.176C405.69 132.055 408.434 129.518 412.081 126.554L407.036 120.346ZM396.896 130.667L373.796 239.167L381.621 240.833L404.721 132.333L396.896 130.667ZM377.709 236H306.309V244H377.709V236ZM310.222 240.827L359.922 5.62696L352.095 3.97301L302.395 239.173L310.222 240.827ZM356.009 8.79998H427.759V0.799982H356.009V8.79998ZM423.846 3.96885L401.096 111.069L408.921 112.731L431.671 5.63111L423.846 3.96885ZM591.187 169.65V165.65H587.848L587.251 168.934L591.187 169.65ZM589.087 184.35L585.107 183.952L585.097 184.051L585.092 184.15L589.087 184.35ZM590.487 211.3L586.655 212.449L586.728 212.693L586.831 212.925L590.487 211.3ZM593.987 216.9L590.95 219.503L591.15 219.737L591.384 219.937L593.987 216.9ZM607.637 216.9L605.848 213.322L605.784 213.354L605.721 213.388L607.637 216.9ZM615.687 210.95L612.984 208.001L612.92 208.06L612.858 208.122L615.687 210.95ZM623.387 201.5L620.091 199.234L620.041 199.306L619.995 199.38L623.387 201.5ZM629.337 188.9V184.9H626.361L625.505 187.751L629.337 188.9ZM686.737 188.9L690.624 189.844L691.825 184.9H686.737V188.9ZM677.637 226.35L679.817 229.704L681.149 228.838L681.524 227.294L677.637 226.35ZM661.537 234.05L662.845 237.83L662.845 237.83L661.537 234.05ZM642.287 239.3L642.966 243.242L643.032 243.231L643.097 243.217L642.287 239.3ZM621.637 241.75L621.371 237.759L621.305 237.763L621.239 237.77L621.637 241.75ZM569.137 239.65L568.317 243.565L568.317 243.565L569.137 239.65ZM542.887 228.8L545.153 225.504L545.153 225.504L542.887 228.8ZM525.037 208.5L521.44 210.25L521.469 210.309L521.499 210.367L525.037 208.5ZM523.987 143.05L520.2 141.761L520.188 141.797L520.176 141.834L523.987 143.05ZM542.187 114L539.358 111.172L539.358 111.172L542.187 114ZM576.487 93.35L575.149 89.5803L575.139 89.5837L575.13 89.5872L576.487 93.35ZM682.887 96.5L680.779 99.8996L680.794 99.9089L680.809 99.9181L682.887 96.5ZM697.937 151.1L701.81 152.1L701.814 152.085L701.817 152.07L697.937 151.1ZM689.537 169.65V173.65H691.574L692.772 172.003L689.537 169.65ZM615.337 113.3L617.776 116.47L617.792 116.458L617.808 116.445L615.337 113.3ZM606.937 123.1L610.295 125.273L610.323 125.23L610.35 125.186L606.937 123.1ZM599.937 137.1L603.639 138.615L603.651 138.586L603.662 138.558L599.937 137.1ZM594.687 153.55L590.797 152.617L589.613 157.55H594.687V153.55ZM634.587 153.55V157.55H637.975L638.532 154.208L634.587 153.55ZM635.987 144.8L632.051 144.084L632.042 144.138L632.033 144.192L635.987 144.8ZM637.037 136.4L633.083 135.792L633.06 135.942L633.049 136.093L637.037 136.4ZM587.251 168.934C586.301 174.161 585.585 179.168 585.107 183.952L593.067 184.748C593.522 180.199 594.206 175.405 595.122 170.366L587.251 168.934ZM585.092 184.15C584.856 188.868 584.737 193.136 584.737 196.95H592.737C592.737 193.297 592.851 189.166 593.082 184.55L585.092 184.15ZM584.737 196.95C584.737 199.194 584.861 201.651 585.103 204.312L593.07 203.588C592.846 201.116 592.737 198.906 592.737 196.95H584.737ZM585.103 204.312C585.359 207.13 585.874 209.845 586.655 212.449L594.318 210.151C593.699 208.088 593.281 205.903 593.07 203.588L585.103 204.312ZM586.831 212.925C587.912 215.355 589.281 217.556 590.95 219.503L597.024 214.297C595.893 212.977 594.929 211.445 594.142 209.675L586.831 212.925ZM591.384 219.937C593.937 222.126 597.175 223 600.637 223V215C598.498 215 597.303 214.474 596.59 213.863L591.384 219.937ZM600.637 223C603.617 223 606.616 222.013 609.552 220.412L605.721 213.388C603.524 214.587 601.856 215 600.637 215V223ZM609.426 220.478C612.666 218.858 615.692 216.602 618.515 213.778L612.858 208.122C610.548 210.432 608.208 212.142 605.848 213.322L609.426 220.478ZM618.39 213.899C621.494 211.053 624.284 207.612 626.779 203.62L619.995 199.38C617.823 202.855 615.48 205.714 612.984 208.001L618.39 213.899ZM626.683 203.766C629.502 199.666 631.658 195.084 633.168 190.049L625.505 187.751C624.216 192.049 622.405 195.868 620.091 199.234L626.683 203.766ZM629.337 192.9H686.737V184.9H629.337V192.9ZM682.85 187.956L673.75 225.406L681.524 227.294L690.624 189.844L682.85 187.956ZM675.457 222.996C671.1 225.828 666.034 228.26 660.228 230.27L662.845 237.83C669.173 235.64 674.84 232.939 679.817 229.704L675.457 222.996ZM660.228 230.27C654.336 232.31 648.087 234.015 641.476 235.383L643.097 243.217C650.02 241.785 656.604 239.99 662.845 237.83L660.228 230.27ZM641.607 235.358C634.98 236.501 628.235 237.301 621.371 237.759L621.903 245.741C629.038 245.265 636.06 244.433 642.966 243.242L641.607 235.358ZM621.239 237.77C614.356 238.458 607.84 238.8 601.687 238.8V246.8C608.134 246.8 614.917 246.442 622.035 245.73L621.239 237.77ZM601.687 238.8C590.258 238.8 579.686 237.771 569.956 235.735L568.317 243.565C578.654 245.729 589.782 246.8 601.687 246.8V238.8ZM569.956 235.735C560.373 233.729 552.129 230.3 545.153 225.504L540.621 232.096C548.577 237.566 557.833 241.371 568.317 243.565L569.956 235.735ZM545.153 225.504C538.245 220.755 532.721 214.489 528.574 206.633L521.499 210.367C526.219 219.311 532.595 226.578 540.621 232.096L545.153 225.504ZM528.634 206.75C524.768 198.805 522.737 188.825 522.737 176.65H514.737C514.737 189.675 516.905 200.929 521.44 210.25L528.634 206.75ZM522.737 176.65C522.737 165.632 524.422 154.842 527.797 144.266L520.176 141.834C516.551 153.191 514.737 164.801 514.737 176.65H522.737ZM527.773 144.339C531.304 133.967 537.037 124.807 545.015 116.828L539.358 111.172C530.537 119.993 524.136 130.2 520.2 141.761L527.773 144.339ZM545.015 116.828C553.145 108.698 564.034 102.093 577.844 97.1128L575.13 89.5872C560.472 94.8735 548.495 102.035 539.358 111.172L545.015 116.828ZM577.824 97.1197C591.728 92.1862 609.208 89.65 630.387 89.65V81.65C608.632 81.65 590.179 84.2471 575.149 89.5803L577.824 97.1197ZM630.387 89.65C653.436 89.65 670.047 93.246 680.779 99.8996L684.994 93.1004C672.393 85.2873 654.004 81.65 630.387 81.65V89.65ZM680.809 99.9181C691.371 106.338 696.737 116.27 696.737 130.45H704.737C704.737 113.83 698.202 101.128 684.964 93.0819L680.809 99.9181ZM696.737 130.45C696.737 136.36 695.86 142.913 694.056 150.13L701.817 152.07C703.746 144.353 704.737 137.14 704.737 130.45H696.737ZM694.064 150.1C692.301 156.931 689.692 162.636 686.302 167.297L692.772 172.003C696.848 166.397 699.839 159.735 701.81 152.1L694.064 150.1ZM689.537 165.65H591.187V173.65H689.537V165.65ZM641.737 128C641.737 124.194 641.432 120.827 640.753 117.974C640.079 115.144 638.977 112.568 637.196 110.609L631.277 115.991C631.83 116.599 632.478 117.756 632.97 119.826C633.458 121.873 633.737 124.572 633.737 128H641.737ZM637.196 110.609C634.158 107.267 630.307 105.45 625.837 105.45V113.45C627.9 113.45 629.649 114.2 631.277 115.991L637.196 110.609ZM625.837 105.45C621.106 105.45 616.753 107.1 612.865 110.155L617.808 116.445C620.454 114.366 623.101 113.45 625.837 113.45V105.45ZM612.898 110.129C609.383 112.834 606.276 116.51 603.524 121.014L610.35 125.186C612.731 121.29 615.224 118.433 617.776 116.47L612.898 110.129ZM603.578 120.927C600.838 125.162 598.389 130.078 596.212 135.642L603.662 138.558C605.684 133.389 607.902 128.971 610.295 125.273L603.578 120.927ZM596.235 135.585C594.051 140.922 592.241 146.601 590.797 152.617L598.576 154.483C599.933 148.832 601.622 143.545 603.639 138.615L596.235 135.585ZM594.687 157.55H634.587V149.55H594.687V157.55ZM638.532 154.208C639.002 151.39 639.471 148.457 639.94 145.408L632.033 144.192C631.569 147.21 631.105 150.11 630.641 152.892L638.532 154.208ZM639.922 145.516C640.417 142.794 640.783 139.855 641.025 136.707L633.049 136.093C632.824 139.011 632.49 141.673 632.051 144.084L639.922 145.516ZM640.99 137.008C641.482 133.811 641.737 130.805 641.737 128H633.737C633.737 130.328 633.525 132.922 633.083 135.792L640.99 137.008ZM782.593 169.65V165.65H779.255L778.657 168.934L782.593 169.65ZM780.493 184.35L776.513 183.952L776.503 184.051L776.498 184.15L780.493 184.35ZM781.893 211.3L778.062 212.449L778.135 212.693L778.238 212.925L781.893 211.3ZM785.393 216.9L782.356 219.503L782.556 219.737L782.79 219.937L785.393 216.9ZM799.043 216.9L797.254 213.322L797.19 213.354L797.128 213.388L799.043 216.9ZM807.093 210.95L804.39 208.001L804.326 208.06L804.265 208.122L807.093 210.95ZM814.793 201.5L811.497 199.234L811.447 199.306L811.401 199.38L814.793 201.5ZM820.743 188.9V184.9H817.767L816.912 187.751L820.743 188.9ZM878.143 188.9L882.03 189.844L883.231 184.9H878.143V188.9ZM869.043 226.35L871.223 229.704L872.555 228.838L872.93 227.294L869.043 226.35ZM852.943 234.05L854.251 237.83L854.251 237.83L852.943 234.05ZM833.693 239.3L834.373 243.242L834.438 243.231L834.503 243.217L833.693 239.3ZM813.043 241.75L812.777 237.759L812.711 237.763L812.645 237.77L813.043 241.75ZM760.543 239.65L759.724 243.565L759.724 243.565L760.543 239.65ZM734.293 228.8L736.559 225.504L736.559 225.504L734.293 228.8ZM716.443 208.5L712.846 210.25L712.875 210.309L712.905 210.367L716.443 208.5ZM715.393 143.05L711.606 141.761L711.594 141.797L711.582 141.834L715.393 143.05ZM733.593 114L730.765 111.172L730.765 111.172L733.593 114ZM767.893 93.35L766.555 89.5803L766.546 89.5837L766.536 89.5872L767.893 93.35ZM874.293 96.5L872.185 99.8996L872.2 99.9089L872.215 99.9181L874.293 96.5ZM889.343 151.1L893.216 152.1L893.22 152.085L893.224 152.07L889.343 151.1ZM880.943 169.65V173.65H882.98L884.178 172.003L880.943 169.65ZM806.743 113.3L809.182 116.47L809.198 116.458L809.214 116.445L806.743 113.3ZM798.343 123.1L801.701 125.273L801.729 125.23L801.756 125.186L798.343 123.1ZM791.343 137.1L795.045 138.615L795.057 138.586L795.068 138.558L791.343 137.1ZM786.093 153.55L782.203 152.617L781.019 157.55H786.093V153.55ZM825.993 153.55V157.55H829.381L829.939 154.208L825.993 153.55ZM827.393 144.8L823.457 144.084L823.448 144.138L823.439 144.192L827.393 144.8ZM828.443 136.4L824.489 135.792L824.466 135.942L824.455 136.093L828.443 136.4ZM778.657 168.934C777.707 174.161 776.991 179.168 776.513 183.952L784.473 184.748C784.928 180.199 785.612 175.405 786.528 170.366L778.657 168.934ZM776.498 184.15C776.262 188.868 776.143 193.136 776.143 196.95H784.143C784.143 193.297 784.257 189.166 784.488 184.55L776.498 184.15ZM776.143 196.95C776.143 199.194 776.267 201.651 776.509 204.312L784.477 203.588C784.252 201.116 784.143 198.906 784.143 196.95H776.143ZM776.509 204.312C776.766 207.13 777.28 209.845 778.062 212.449L785.724 210.151C785.106 208.088 784.687 205.903 784.477 203.588L776.509 204.312ZM778.238 212.925C779.318 215.355 780.687 217.556 782.356 219.503L788.43 214.297C787.299 212.977 786.335 211.445 785.548 209.675L778.238 212.925ZM782.79 219.937C785.343 222.126 788.581 223 792.043 223V215C789.904 215 788.709 214.474 787.996 213.863L782.79 219.937ZM792.043 223C795.023 223 798.023 222.013 800.958 220.412L797.128 213.388C794.93 214.587 793.263 215 792.043 215V223ZM800.832 220.478C804.072 218.858 807.098 216.602 809.921 213.778L804.265 208.122C801.954 210.432 799.614 212.142 797.254 213.322L800.832 220.478ZM809.796 213.899C812.9 211.053 815.69 207.612 818.185 203.62L811.401 199.38C809.229 202.855 806.886 205.714 804.39 208.001L809.796 213.899ZM818.089 203.766C820.908 199.666 823.064 195.084 824.574 190.049L816.912 187.751C815.622 192.049 813.811 195.868 811.497 199.234L818.089 203.766ZM820.743 192.9H878.143V184.9H820.743V192.9ZM874.256 187.956L865.156 225.406L872.93 227.294L882.03 189.844L874.256 187.956ZM866.863 222.996C862.506 225.828 857.44 228.26 851.635 230.27L854.251 237.83C860.579 235.64 866.246 232.939 871.223 229.704L866.863 222.996ZM851.635 230.27C845.743 232.31 839.493 234.015 832.883 235.383L834.503 243.217C841.426 241.785 848.01 239.99 854.251 237.83L851.635 230.27ZM833.013 235.358C826.387 236.501 819.641 237.301 812.777 237.759L813.309 245.741C820.445 245.265 827.466 244.433 834.373 243.242L833.013 235.358ZM812.645 237.77C805.762 238.458 799.246 238.8 793.093 238.8V246.8C799.54 246.8 806.324 246.442 813.441 245.73L812.645 237.77ZM793.093 238.8C781.665 238.8 771.092 237.771 761.362 235.735L759.724 243.565C770.06 245.729 781.188 246.8 793.093 246.8V238.8ZM761.362 235.735C751.78 233.729 743.536 230.3 736.559 225.504L732.027 232.096C739.984 237.566 749.24 241.371 759.724 243.565L761.362 235.735ZM736.559 225.504C729.652 220.755 724.127 214.489 719.981 206.633L712.905 210.367C717.626 219.311 724.001 226.578 732.027 232.096L736.559 225.504ZM720.04 206.75C716.175 198.805 714.143 188.825 714.143 176.65H706.143C706.143 189.675 708.311 200.929 712.846 210.25L720.04 206.75ZM714.143 176.65C714.143 165.632 715.828 154.842 719.204 144.266L711.582 141.834C707.958 153.191 706.143 164.801 706.143 176.65H714.143ZM719.18 144.339C722.71 133.967 728.443 124.807 736.421 116.828L730.765 111.172C721.943 119.993 715.542 130.2 711.606 141.761L719.18 144.339ZM736.421 116.828C744.552 108.698 755.441 102.093 769.25 97.1128L766.536 89.5872C751.879 94.8735 739.901 102.035 730.765 111.172L736.421 116.828ZM769.231 97.1197C783.134 92.1862 800.614 89.65 821.793 89.65V81.65C800.038 81.65 781.585 84.2471 766.555 89.5803L769.231 97.1197ZM821.793 89.65C844.843 89.65 861.454 93.246 872.185 99.8996L876.401 93.1004C863.799 85.2873 845.41 81.65 821.793 81.65V89.65ZM872.215 99.9181C882.778 106.338 888.143 116.27 888.143 130.45H896.143C896.143 113.83 889.608 101.128 876.371 93.0819L872.215 99.9181ZM888.143 130.45C888.143 136.36 887.267 142.913 885.462 150.13L893.224 152.07C895.153 144.353 896.143 137.14 896.143 130.45H888.143ZM885.47 150.1C883.707 156.931 881.098 162.636 877.708 167.297L884.178 172.003C888.255 166.397 891.246 159.735 893.216 152.1L885.47 150.1ZM880.943 165.65H782.593V173.65H880.943V165.65ZM833.143 128C833.143 124.194 832.839 120.827 832.159 117.974C831.485 115.144 830.383 112.568 828.603 110.609L822.683 115.991C823.236 116.599 823.884 117.756 824.377 119.826C824.864 121.873 825.143 124.572 825.143 128H833.143ZM828.603 110.609C825.564 107.267 821.713 105.45 817.243 105.45V113.45C819.306 113.45 821.055 114.2 822.683 115.991L828.603 110.609ZM817.243 105.45C812.512 105.45 808.159 107.1 804.272 110.155L809.214 116.445C811.86 114.366 814.507 113.45 817.243 113.45V105.45ZM804.304 110.129C800.789 112.834 797.682 116.51 794.93 121.014L801.756 125.186C804.137 121.29 806.63 118.433 809.182 116.47L804.304 110.129ZM794.985 120.927C792.244 125.162 789.795 130.078 787.618 135.642L795.068 138.558C797.091 133.389 799.308 128.971 801.701 125.273L794.985 120.927ZM787.641 135.585C785.458 140.922 783.647 146.601 782.203 152.617L789.983 154.483C791.339 148.832 793.028 143.545 795.045 138.615L787.641 135.585ZM786.093 157.55H825.993V149.55H786.093V157.55ZM829.939 154.208C830.408 151.39 830.877 148.457 831.346 145.408L823.439 144.192C822.975 147.21 822.511 150.11 822.047 152.892L829.939 154.208ZM831.328 145.516C831.823 142.794 832.189 139.855 832.431 136.707L824.455 136.093C824.23 139.011 823.896 141.673 823.457 144.084L831.328 145.516ZM832.396 137.008C832.888 133.811 833.143 130.805 833.143 128H825.143C825.143 130.328 824.931 132.922 824.489 135.792L832.396 137.008ZM965.599 240V244H968.838L969.512 240.833L965.599 240ZM894.199 240L890.286 239.173L889.266 244H894.199V240ZM943.899 4.79998V0.799982H940.656L939.986 3.97301L943.899 4.79998ZM1015.65 4.79998L1019.56 5.63253L1020.59 0.799982H1015.65V4.79998ZM965.599 236H894.199V244H965.599V236ZM898.113 240.827L947.813 5.62696L939.986 3.97301L890.286 239.173L898.113 240.827ZM943.899 8.79998H1015.65V0.799982H943.899V8.79998ZM1011.74 3.96743L961.687 239.167L969.512 240.833L1019.56 5.63253L1011.74 3.96743ZM1076.54 169.65V165.65H1073.2L1072.6 168.934L1076.54 169.65ZM1074.44 184.35L1070.46 183.952L1070.45 184.051L1070.44 184.15L1074.44 184.35ZM1075.84 211.3L1072.01 212.449L1072.08 212.693L1072.18 212.925L1075.84 211.3ZM1079.34 216.9L1076.3 219.503L1076.5 219.737L1076.74 219.937L1079.34 216.9ZM1092.99 216.9L1091.2 213.322L1091.14 213.354L1091.07 213.388L1092.99 216.9ZM1101.04 210.95L1098.34 208.001L1098.27 208.06L1098.21 208.122L1101.04 210.95ZM1108.74 201.5L1105.44 199.234L1105.39 199.306L1105.35 199.38L1108.74 201.5ZM1114.69 188.9V184.9H1111.71L1110.86 187.751L1114.69 188.9ZM1172.09 188.9L1175.98 189.844L1177.18 184.9H1172.09V188.9ZM1162.99 226.35L1165.17 229.704L1166.5 228.838L1166.88 227.294L1162.99 226.35ZM1146.89 234.05L1148.2 237.83L1148.2 237.83L1146.89 234.05ZM1127.64 239.3L1128.32 243.242L1128.38 243.231L1128.45 243.217L1127.64 239.3ZM1106.99 241.75L1106.72 237.759L1106.66 237.763L1106.59 237.77L1106.99 241.75ZM1054.49 239.65L1053.67 243.565L1053.67 243.565L1054.49 239.65ZM1028.24 228.8L1030.5 225.504L1030.5 225.504L1028.24 228.8ZM1010.39 208.5L1006.79 210.25L1006.82 210.309L1006.85 210.367L1010.39 208.5ZM1009.34 143.05L1005.55 141.761L1005.54 141.797L1005.53 141.834L1009.34 143.05ZM1027.54 114L1024.71 111.172L1024.71 111.172L1027.54 114ZM1061.84 93.35L1060.5 89.5803L1060.49 89.5837L1060.48 89.5872L1061.84 93.35ZM1168.24 96.5L1166.13 99.8996L1166.15 99.9089L1166.16 99.9181L1168.24 96.5ZM1183.29 151.1L1187.16 152.1L1187.17 152.085L1187.17 152.07L1183.29 151.1ZM1174.89 169.65V173.65H1176.93L1178.12 172.003L1174.89 169.65ZM1100.69 113.3L1103.13 116.47L1103.14 116.458L1103.16 116.445L1100.69 113.3ZM1092.29 123.1L1095.65 125.273L1095.67 125.23L1095.7 125.186L1092.29 123.1ZM1085.29 137.1L1088.99 138.615L1089 138.586L1089.01 138.558L1085.29 137.1ZM1080.04 153.55L1076.15 152.617L1074.96 157.55H1080.04V153.55ZM1119.94 153.55V157.55H1123.33L1123.88 154.208L1119.94 153.55ZM1121.34 144.8L1117.4 144.084L1117.39 144.138L1117.38 144.192L1121.34 144.8ZM1122.39 136.4L1118.43 135.792L1118.41 135.942L1118.4 136.093L1122.39 136.4ZM1072.6 168.934C1071.65 174.161 1070.94 179.168 1070.46 183.952L1078.42 184.748C1078.87 180.199 1079.56 175.405 1080.47 170.366L1072.6 168.934ZM1070.44 184.15C1070.21 188.868 1070.09 193.136 1070.09 196.95H1078.09C1078.09 193.297 1078.2 189.166 1078.43 184.55L1070.44 184.15ZM1070.09 196.95C1070.09 199.194 1070.21 201.651 1070.45 204.312L1078.42 203.588C1078.2 201.116 1078.09 198.906 1078.09 196.95H1070.09ZM1070.45 204.312C1070.71 207.13 1071.23 209.845 1072.01 212.449L1079.67 210.151C1079.05 208.088 1078.63 205.903 1078.42 203.588L1070.45 204.312ZM1072.18 212.925C1073.26 215.355 1074.63 217.556 1076.3 219.503L1082.38 214.297C1081.24 212.977 1080.28 211.445 1079.49 209.675L1072.18 212.925ZM1076.74 219.937C1079.29 222.126 1082.53 223 1085.99 223V215C1083.85 215 1082.65 214.474 1081.94 213.863L1076.74 219.937ZM1085.99 223C1088.97 223 1091.97 222.013 1094.9 220.412L1091.07 213.388C1088.88 214.587 1087.21 215 1085.99 215V223ZM1094.78 220.478C1098.02 218.858 1101.04 216.602 1103.87 213.778L1098.21 208.122C1095.9 210.432 1093.56 212.142 1091.2 213.322L1094.78 220.478ZM1103.74 213.899C1106.85 211.053 1109.64 207.612 1112.13 203.62L1105.35 199.38C1103.17 202.855 1100.83 205.714 1098.34 208.001L1103.74 213.899ZM1112.03 203.766C1114.85 199.666 1117.01 195.084 1118.52 190.049L1110.86 187.751C1109.57 192.049 1107.76 195.868 1105.44 199.234L1112.03 203.766ZM1114.69 192.9H1172.09V184.9H1114.69V192.9ZM1168.2 187.956L1159.1 225.406L1166.88 227.294L1175.98 189.844L1168.2 187.956ZM1160.81 222.996C1156.45 225.828 1151.39 228.26 1145.58 230.27L1148.2 237.83C1154.52 235.64 1160.19 232.939 1165.17 229.704L1160.81 222.996ZM1145.58 230.27C1139.69 232.31 1133.44 234.015 1126.83 235.383L1128.45 243.217C1135.37 241.785 1141.96 239.99 1148.2 237.83L1145.58 230.27ZM1126.96 235.358C1120.33 236.501 1113.59 237.301 1106.72 237.759L1107.25 245.741C1114.39 245.265 1121.41 244.433 1128.32 243.242L1126.96 235.358ZM1106.59 237.77C1099.71 238.458 1093.19 238.8 1087.04 238.8V246.8C1093.49 246.8 1100.27 246.442 1107.39 245.73L1106.59 237.77ZM1087.04 238.8C1075.61 238.8 1065.04 237.771 1055.31 235.735L1053.67 243.565C1064.01 245.729 1075.13 246.8 1087.04 246.8V238.8ZM1055.31 235.735C1045.73 233.729 1037.48 230.3 1030.5 225.504L1025.97 232.096C1033.93 237.566 1043.18 241.371 1053.67 243.565L1055.31 235.735ZM1030.5 225.504C1023.6 220.755 1018.07 214.489 1013.93 206.633L1006.85 210.367C1011.57 219.311 1017.95 226.578 1025.97 232.096L1030.5 225.504ZM1013.99 206.75C1010.12 198.805 1008.09 188.825 1008.09 176.65H1000.09C1000.09 189.675 1002.26 200.929 1006.79 210.25L1013.99 206.75ZM1008.09 176.65C1008.09 165.632 1009.77 154.842 1013.15 144.266L1005.53 141.834C1001.9 153.191 1000.09 164.801 1000.09 176.65H1008.09ZM1013.12 144.339C1016.66 133.967 1022.39 124.807 1030.37 116.828L1024.71 111.172C1015.89 119.993 1009.49 130.2 1005.55 141.761L1013.12 144.339ZM1030.37 116.828C1038.5 108.698 1049.39 102.093 1063.2 97.1128L1060.48 89.5872C1045.82 94.8735 1033.85 102.035 1024.71 111.172L1030.37 116.828ZM1063.18 97.1197C1077.08 92.1862 1094.56 89.65 1115.74 89.65V81.65C1093.98 81.65 1075.53 84.2471 1060.5 89.5803L1063.18 97.1197ZM1115.74 89.65C1138.79 89.65 1155.4 93.246 1166.13 99.8996L1170.35 93.1004C1157.74 85.2873 1139.36 81.65 1115.74 81.65V89.65ZM1166.16 99.9181C1176.72 106.338 1182.09 116.27 1182.09 130.45H1190.09C1190.09 113.83 1183.55 101.128 1170.32 93.0819L1166.16 99.9181ZM1182.09 130.45C1182.09 136.36 1181.21 142.913 1179.41 150.13L1187.17 152.07C1189.1 144.353 1190.09 137.14 1190.09 130.45H1182.09ZM1179.42 150.1C1177.65 156.931 1175.04 162.636 1171.65 167.297L1178.12 172.003C1182.2 166.397 1185.19 159.735 1187.16 152.1L1179.42 150.1ZM1174.89 165.65H1076.54V173.65H1174.89V165.65ZM1127.09 128C1127.09 124.194 1126.78 120.827 1126.1 117.974C1125.43 115.144 1124.33 112.568 1122.55 110.609L1116.63 115.991C1117.18 116.599 1117.83 117.756 1118.32 119.826C1118.81 121.873 1119.09 124.572 1119.09 128H1127.09ZM1122.55 110.609C1119.51 107.267 1115.66 105.45 1111.19 105.45V113.45C1113.25 113.45 1115 114.2 1116.63 115.991L1122.55 110.609ZM1111.19 105.45C1106.46 105.45 1102.1 107.1 1098.22 110.155L1103.16 116.445C1105.81 114.366 1108.45 113.45 1111.19 113.45V105.45ZM1098.25 110.129C1094.73 112.834 1091.63 116.51 1088.88 121.014L1095.7 125.186C1098.08 121.29 1100.58 118.433 1103.13 116.47L1098.25 110.129ZM1088.93 120.927C1086.19 125.162 1083.74 130.078 1081.56 135.642L1089.01 138.558C1091.04 133.389 1093.25 128.971 1095.65 125.273L1088.93 120.927ZM1081.59 135.585C1079.4 140.922 1077.59 146.601 1076.15 152.617L1083.93 154.483C1085.28 148.832 1086.97 143.545 1088.99 138.615L1081.59 135.585ZM1080.04 157.55H1119.94V149.55H1080.04V157.55ZM1123.88 154.208C1124.35 151.39 1124.82 148.457 1125.29 145.408L1117.38 144.192C1116.92 147.21 1116.46 150.11 1115.99 152.892L1123.88 154.208ZM1125.27 145.516C1125.77 142.794 1126.13 139.855 1126.38 136.707L1118.4 136.093C1118.18 139.011 1117.84 141.673 1117.4 144.084L1125.27 145.516ZM1126.34 137.008C1126.83 133.811 1127.09 130.805 1127.09 128H1119.09C1119.09 130.328 1118.88 132.922 1118.43 135.792L1126.34 137.008ZM1219.99 89.5V85.5H1216.75L1216.08 88.6718L1219.99 89.5ZM1277.04 89.5L1280.97 88.7155L1280.32 85.5H1277.04V89.5ZM1282.29 115.75L1278.37 116.534L1279.02 119.75H1282.29V115.75ZM1284.74 115.75V119.75H1286.94L1288.12 117.904L1284.74 115.75ZM1305.39 94.4L1307.68 97.6855L1307.68 97.6855L1305.39 94.4ZM1342.84 86L1342.35 89.9691L1342.6 90H1342.84V86ZM1349.49 87.05L1348.35 90.8813L1348.56 90.9455L1348.78 90.9855L1349.49 87.05ZM1357.19 89.5L1355.54 93.1415L1355.73 93.2283L1355.93 93.2947L1357.19 89.5ZM1365.24 93.7L1369.16 94.5355L1369.7 91.9938L1367.6 90.4651L1365.24 93.7ZM1349.84 165.8V169.8H1353.08L1353.76 166.636L1349.84 165.8ZM1311.69 165.8L1307.7 165.929L1307.82 169.8H1311.69V165.8ZM1307.84 135.7L1304.08 137.055L1304.09 137.08L1304.1 137.104L1307.84 135.7ZM1289.99 128.7L1291.36 132.459L1291.45 132.428L1291.53 132.392L1289.99 128.7ZM1281.94 135.35L1278.82 132.851L1278.23 133.589L1278.03 134.513L1281.94 135.35ZM1259.54 240V244H1262.78L1263.46 240.837L1259.54 240ZM1188.14 240L1184.23 239.172L1183.21 244H1188.14V240ZM1219.99 93.5H1277.04V85.5H1219.99V93.5ZM1273.12 90.2845L1278.37 116.534L1286.22 114.966L1280.97 88.7155L1273.12 90.2845ZM1282.29 119.75H1284.74V111.75H1282.29V119.75ZM1288.12 117.904C1293.19 109.961 1299.7 103.225 1307.68 97.6855L1303.11 91.1145C1294.29 97.2414 1287.03 104.739 1281.37 113.596L1288.12 117.904ZM1307.68 97.6855C1315.21 92.4536 1325.42 89.65 1338.64 89.65V81.65C1324.34 81.65 1312.38 84.6797 1303.11 91.1145L1307.68 97.6855ZM1338.64 89.65C1339.32 89.65 1340.52 89.7401 1342.35 89.9691L1343.34 82.0309C1341.44 81.7932 1339.84 81.65 1338.64 81.65V89.65ZM1342.84 90C1344.5 90 1346.33 90.2757 1348.35 90.8813L1350.64 83.2187C1348 82.4243 1345.39 82 1342.84 82V90ZM1348.78 90.9855C1351 91.3887 1353.25 92.1002 1355.54 93.1415L1358.85 85.8585C1356.01 84.5664 1353.13 83.6446 1350.21 83.1145L1348.78 90.9855ZM1355.93 93.2947C1358.31 94.0889 1360.63 95.2914 1362.89 96.9349L1367.6 90.4651C1364.72 88.3753 1361.68 86.7777 1358.46 85.7053L1355.93 93.2947ZM1361.33 92.8645L1345.93 164.964L1353.76 166.636L1369.16 94.5355L1361.33 92.8645ZM1349.84 161.8H1311.69V169.8H1349.84V161.8ZM1315.69 165.671C1315.23 151.213 1313.95 140.578 1311.59 134.296L1304.1 137.104C1305.94 142.022 1307.23 151.453 1307.7 165.929L1315.69 165.671ZM1311.61 134.345C1310.41 131.02 1308.72 128.157 1306.34 126.108C1303.89 123.994 1300.94 122.95 1297.69 122.95V130.95C1299.12 130.95 1300.19 131.365 1301.12 132.167C1302.13 133.035 1303.18 134.547 1304.08 137.055L1311.61 134.345ZM1297.69 122.95C1294.7 122.95 1291.6 123.696 1288.46 125.008L1291.53 132.392C1293.98 131.371 1296.02 130.95 1297.69 130.95V122.95ZM1288.63 124.941C1285.06 126.238 1281.82 129.108 1278.82 132.851L1285.07 137.849C1287.67 134.592 1289.8 133.028 1291.36 132.459L1288.63 124.941ZM1278.03 134.513L1255.63 239.163L1263.46 240.837L1285.86 136.187L1278.03 134.513ZM1259.54 236H1188.14V244H1259.54V236ZM1192.06 240.828L1223.91 90.3282L1216.08 88.6718L1184.23 239.172L1192.06 240.828Z" fill="black"/>
</g>
<defs>
<filter id="filter0_d" x="0.0268555" y="0.800049" width="1373.67" height="254" filterUnits="userSpaceOnUse" color-interpolation-filters="sRGB">
<feFlood flood-opacity="0" result="BackgroundImageFix"/>
<feColorMatrix in="SourceAlpha" type="matrix" values="0 0 0 0 0 0 0 0 0 0 0 0 0 0 0 0 0 0 127 0"/>
<feOffset dy="4"/>
<feGaussianBlur stdDeviation="2"/>
<feColorMatrix type="matrix" values="0 0 0 0 0 0 0 0 0 0 0 0 0 0 0 0 0 0 0.25 0"/>
<feBlend mode="normal" in2="BackgroundImageFix" result="effect1_dropShadow"/>
<feBlend mode="normal" in="SourceGraphic" in2="effect1_dropShadow" result="shape"/>
</filter>
</defs>
</svg>
