<svg width="238" height="90" viewBox="0 0 238 90" fill="none" xmlns="http://www.w3.org/2000/svg">
<path d="M76.4039 6.3C76.8039 6.7 76.7706 7.2 76.3039 7.8C75.2372 9.33333 74.4372 10 73.9039 9.8C73.1039 9.53333 72.3039 9.3 71.5039 9.1C70.7039 8.83333 69.8706 8.6 69.0039 8.4C65.2706 8.73333 61.9372 10.7 59.0039 14.3C56.0706 17.8333 53.4372 23.4333 51.1039 31.1C47.6372 42.3667 42.8039 50.8333 36.6039 56.5C30.4706 62.1 23.0372 64.9 14.3039 64.9C11.9039 64.9 9.83724 64.6 8.10391 64C6.37057 63.3333 4.93724 62.5 3.80391 61.5C2.67057 60.4333 1.83724 59.2333 1.30391 57.9C0.770573 56.5 0.503906 55.1 0.503906 53.7C0.503906 49.7 2.47057 46.3667 6.40391 43.7C6.67057 43.7 6.83724 43.8333 6.90391 44.1C6.97057 44.3667 6.93724 44.6 6.80391 44.8C5.87057 45.5333 5.17057 46.3333 4.70391 47.2C4.30391 48 4.10391 49.1667 4.10391 50.7C4.10391 54.1 5.27057 56.8 7.60391 58.8C10.0039 60.7333 13.5372 61.7 18.2039 61.7C21.4039 61.7 24.3372 61.2667 27.0039 60.4C29.6706 59.5333 32.1039 58.0667 34.3039 56C36.5706 53.8667 38.6372 51.0333 40.5039 47.5C42.4372 43.9667 44.2706 39.5333 46.0039 34.2C48.4039 26.7333 51.2706 20.7333 54.6039 16.2C57.9372 11.6 61.7039 8.73333 65.9039 7.6C61.4372 6.46667 56.8039 5.56666 52.0039 4.9C47.2039 4.23333 42.4372 3.9 37.7039 3.9C33.9706 3.9 30.6372 4.53333 27.7039 5.8C24.8372 7 22.4372 8.63333 20.5039 10.7C18.5706 12.7667 17.1706 15.2 16.3039 18C15.4372 20.7333 15.2039 23.6 15.6039 26.6C15.2039 27.2 14.8372 27.2333 14.5039 26.7C14.1039 23.4333 14.3372 20.2333 15.2039 17.1C16.1372 13.9667 17.7039 11.1667 19.9039 8.7C22.1039 6.23333 24.9706 4.26666 28.5039 2.8C32.0372 1.33333 36.2039 0.599995 41.0039 0.599995C48.1372 0.599995 54.6039 1.19999 60.4039 2.4C66.2706 3.53333 71.6039 4.83333 76.4039 6.3ZM80.2188 58.7C80.3521 58.5667 80.5188 58.5667 80.7188 58.7C80.9188 58.8333 80.9854 59.0333 80.9188 59.3C79.5188 61.2333 78.1188 62.6667 76.7188 63.6C75.3854 64.5333 74.2521 65 73.3188 65C72.7188 65 72.2188 64.7 71.8188 64.1C71.4854 63.5 71.2521 62.7 71.1188 61.7C71.0521 60.6333 71.0854 59.4667 71.2188 58.2C71.4188 56.8667 71.7188 55.5 72.1188 54.1C70.3188 56.9 68.4188 59.3333 66.4187 61.4C64.4188 63.4 62.4854 64.6 60.6188 65C59.4188 65 58.3854 64.4333 57.5188 63.3C56.7188 62.1 56.3188 60.2667 56.3188 57.8C56.3188 55.6 56.7521 53.4333 57.6188 51.3C58.5521 49.1 59.7854 47.1333 61.3188 45.4C62.8521 43.6 64.6188 42.1667 66.6188 41.1C68.6188 40.0333 70.7188 39.5 72.9188 39.5C74.1188 39.5 75.1521 39.6333 76.0188 39.9C76.8854 40.1667 77.6854 40.5667 78.4188 41.1C78.8188 40.7667 79.3521 40.4667 80.0188 40.2C80.7521 39.8667 81.4188 39.7 82.0188 39.7C82.3521 39.7 82.4521 39.8667 82.3188 40.2C80.7854 42.0667 79.4521 44.1333 78.3188 46.4C77.2521 48.6667 76.4188 50.8667 75.8188 53C75.2188 55.1333 74.8188 57.0333 74.6188 58.7C74.4854 60.3 74.6188 61.4 75.0188 62C75.3521 62.4667 75.9521 62.5 76.8188 62.1C77.6854 61.6333 78.8188 60.5 80.2188 58.7ZM62.8188 61.6C63.5521 61.6 64.4854 61.1 65.6188 60.1C66.8188 59.0333 68.0521 57.6667 69.3188 56C70.5854 54.3333 71.8188 52.4667 73.0188 50.4C74.2854 48.2667 75.3854 46.1333 76.3188 44C76.0521 43.1333 75.4188 42.4333 74.4188 41.9C73.4854 41.3667 72.3854 41.1 71.1188 41.1C69.6521 41.1 68.2521 41.5 66.9188 42.3C65.6521 43.0333 64.5188 44.1 63.5188 45.5C62.5188 46.8333 61.7188 48.4333 61.1188 50.3C60.5188 52.1667 60.2188 54.2333 60.2188 56.5C60.2188 57.9667 60.4521 59.2 60.9188 60.2C61.4521 61.1333 62.0854 61.6 62.8188 61.6ZM110.813 58.6C111.013 58.4667 111.213 58.4667 111.413 58.6C111.613 58.7333 111.68 58.9333 111.613 59.2C110.48 60.7333 109.213 62.1 107.813 63.3C106.48 64.4333 105.213 65 104.013 65C101.947 65 100.913 63.6667 100.913 61C100.913 58.7333 101.313 56.2333 102.113 53.5C102.913 50.7 104.013 47.9 105.413 45.1C105.68 44.6333 105.813 44.1667 105.813 43.7C105.813 42.9667 105.48 42.6 104.813 42.6C102.347 42.6 99.6133 44.3 96.6133 47.7C93.6799 51.1 90.9466 56.4333 88.4133 63.7C88.2799 64.1 87.9133 64.4333 87.3133 64.7C86.7133 64.9 86.1466 65 85.6133 65C84.8799 65 84.6133 64.7 84.8133 64.1C85.9466 61.2333 87.1133 58 88.3133 54.4C89.5799 50.8 90.6799 47.2333 91.6133 43.7C91.8799 42.4333 91.6466 41.8 90.9133 41.8C90.2466 41.8 89.5799 42.1333 88.9133 42.8C88.2466 43.4667 87.5466 44.3333 86.8133 45.4C86.6799 45.5333 86.5133 45.5 86.3133 45.3C86.1799 45.1 86.1466 44.9 86.2133 44.7C86.9466 43.5667 87.9466 42.4 89.2133 41.2C90.4799 40 91.8466 39.4 93.3133 39.4C94.9799 39.4 95.5466 40.5333 95.0133 42.8C94.7466 44.2667 94.3799 45.8333 93.9133 47.5C93.4466 49.1 92.9466 50.7 92.4133 52.3C93.3466 50.5 94.4466 48.8 95.7133 47.2C96.9799 45.6 98.2799 44.2333 99.6133 43.1C101.013 41.9667 102.38 41.0667 103.713 40.4C105.113 39.7333 106.413 39.4 107.613 39.4C108.413 39.4 109.013 39.6 109.413 40C109.88 40.4 110.113 40.8667 110.113 41.4C110.113 42.2667 109.913 43.1333 109.513 44C108.113 46.5333 106.913 49.2 105.913 52C104.98 54.7333 104.513 57.2667 104.513 59.6C104.513 61.2667 105.047 62.1 106.113 62.1C107.513 62.1 109.08 60.9333 110.813 58.6ZM134.315 38C134.515 37.8667 134.715 37.9 134.915 38.1C135.115 38.2333 135.148 38.4333 135.015 38.7C134.482 39.5 133.815 40.2333 133.015 40.9C132.215 41.5 131.215 41.7667 130.015 41.7C130.615 42.7 130.915 44 130.915 45.6C130.915 47.1333 130.682 48.5333 130.215 49.8C129.748 51.0667 129.215 52.2667 128.615 53.4C128.015 54.5333 127.382 55.6 126.715 56.6C126.115 57.6 125.615 58.6333 125.215 59.7C124.882 60.7667 124.715 61.8667 124.715 63C124.782 64.0667 125.182 65.2667 125.915 66.6C126.515 67.7333 127.048 68.7333 127.515 69.6C128.048 70.5333 128.482 71.4 128.815 72.2C129.215 73.0667 129.482 73.9333 129.615 74.8C129.815 75.6667 129.915 76.6 129.915 77.6C129.915 79.2 129.582 80.7 128.915 82.1C128.248 83.5667 127.282 84.8333 126.015 85.9C124.748 87.0333 123.215 87.9 121.415 88.5C119.615 89.1667 117.582 89.5 115.315 89.5C112.982 89.5 110.882 89.1667 109.015 88.5C107.148 87.8333 105.582 86.9333 104.315 85.8C102.982 84.7333 101.982 83.4667 101.315 82C100.648 80.6 100.315 79.1333 100.315 77.6C100.315 75.6 101.048 73.8333 102.515 72.3C103.915 70.8333 105.948 69.7333 108.615 69C108.948 69 109.182 69.1 109.315 69.3C109.382 69.5667 109.315 69.8 109.115 70C107.715 70.5333 106.582 71.3333 105.715 72.4C104.848 73.4667 104.415 74.9 104.415 76.7C104.415 80.1 105.582 82.8333 107.915 84.9C110.248 86.9667 113.315 88 117.115 88C120.315 88 122.682 87.1667 124.215 85.5C125.748 83.9 126.515 81.8 126.515 79.2C126.515 77.6667 126.282 76.3 125.815 75.1C125.348 73.9 124.648 72.5333 123.715 71C122.448 68.8667 121.882 66.8333 122.015 64.9C122.215 62.9 122.915 60.8333 124.115 58.7C124.248 58.4333 124.382 58.2 124.515 58C124.715 57.7333 124.882 57.4333 125.015 57.1C124.282 57.9 123.415 58.6 122.415 59.2C121.482 59.8 120.682 60.1 120.015 60.1C116.748 60.1 115.115 57.9667 115.115 53.7C115.115 52.3 115.382 50.7667 115.915 49.1C116.448 47.4333 117.182 45.9 118.115 44.5C119.115 43.0333 120.248 41.8333 121.515 40.9C122.848 39.9667 124.315 39.5 125.915 39.5C128.248 39.5 130.048 39.4333 131.315 39.3C132.582 39.1 133.582 38.6667 134.315 38ZM126.315 54.7C126.715 53.7667 127.048 52.8 127.315 51.8C127.582 50.8 127.715 49.8 127.715 48.8C127.715 46.8667 127.382 45.3667 126.715 44.3C126.115 43.1667 125.115 42.6 123.715 42.6C122.115 42.6 120.748 43.4 119.615 45C118.548 46.6 118.015 48.8667 118.015 51.8C118.015 53.7333 118.315 55.1333 118.915 56C119.582 56.8667 120.548 57.3 121.815 57.3C122.548 57.3 123.348 57.0667 124.215 56.6C125.082 56.1333 125.782 55.5 126.315 54.7ZM153.311 43.8C153.311 44.7333 152.944 45.6 152.211 46.4C151.478 47.2 150.478 47.9333 149.211 48.6C147.944 49.2 146.478 49.7667 144.811 50.3C143.211 50.8333 141.511 51.3333 139.711 51.8C139.644 52.5333 139.578 53.2667 139.511 54C139.511 54.7333 139.511 55.5333 139.511 56.4C139.511 58.0667 139.878 59.4667 140.611 60.6C141.344 61.7333 142.378 62.3 143.711 62.3C145.044 62.3 146.278 61.9667 147.411 61.3C148.611 60.6333 149.678 59.7333 150.611 58.6C150.878 58.4667 151.078 58.5 151.211 58.7C151.344 58.9 151.344 59.1333 151.211 59.4C150.078 60.9333 148.644 62.2667 146.911 63.4C145.244 64.4667 143.478 65 141.611 65C139.878 65 138.444 64.4333 137.311 63.3C136.244 62.1667 135.711 60.5 135.711 58.3C135.711 56.3 136.078 54.2 136.811 52C137.544 49.7333 138.511 47.6667 139.711 45.8C140.911 43.9333 142.278 42.4 143.811 41.2C145.411 40 147.078 39.4 148.811 39.4C150.078 39.4 151.144 39.8667 152.011 40.8C152.878 41.6667 153.311 42.6667 153.311 43.8ZM146.711 42C145.178 42 143.811 42.6667 142.611 44C141.411 45.3333 140.544 47.4333 140.011 50.3C143.211 49.8333 145.544 49.1667 147.011 48.3C148.544 47.3667 149.311 46.3333 149.311 45.2C149.311 44.2667 149.078 43.5 148.611 42.9C148.144 42.3 147.511 42 146.711 42ZM165.416 42.2C165.416 43.2 165.316 44.3667 165.116 45.7C164.916 47.0333 164.65 48.3667 164.316 49.7C165.65 46.5 167.116 44 168.716 42.2C170.316 40.3333 172.05 39.4 173.916 39.4C174.65 39.4 175.316 39.6 175.916 40C176.516 40.4 176.816 40.9667 176.816 41.7C176.816 42.2333 176.616 42.9333 176.216 43.8C175.816 44.6 175.416 45.2 175.016 45.6C174.616 45.8667 174.416 45.7667 174.416 45.3C174.416 44.1667 173.65 43.6 172.116 43.6C169.783 43.6 167.683 45.3667 165.816 48.9C163.95 52.3667 162.183 57.2 160.516 63.4C160.383 64.0667 159.916 64.5 159.116 64.7C158.383 64.9 157.75 65 157.216 65C156.483 65 156.316 64.6333 156.716 63.9C157.316 62.5 157.883 61 158.416 59.4C158.95 57.7333 159.45 56.0667 159.916 54.4C160.45 52.7333 160.883 51.1 161.216 49.5C161.55 47.9 161.816 46.4333 162.016 45.1C162.283 43.1 161.95 42.1 161.016 42.1C160.483 42.1 159.85 42.4 159.116 43C158.45 43.6 157.816 44.3 157.216 45.1C156.95 45.2333 156.716 45.2333 156.516 45.1C156.316 44.9 156.283 44.6667 156.416 44.4C157.416 43.1333 158.516 42 159.716 41C160.983 39.9333 162.15 39.4 163.216 39.4C164.683 39.4 165.416 40.3333 165.416 42.2ZM178.048 46.4C177.848 46.5333 177.648 46.5 177.448 46.3C177.314 46.0333 177.314 45.8 177.448 45.6C178.381 44.6667 179.648 43.6 181.248 42.4C182.848 41.2 184.448 40.2 186.048 39.4C186.581 39.4 186.848 39.7 186.848 40.3C185.981 41.8333 185.114 43.5 184.248 45.3C183.448 47.1 182.714 48.9 182.048 50.7C181.448 52.4333 180.948 54.1333 180.548 55.8C180.148 57.4 179.948 58.7333 179.948 59.8C179.948 61.2 180.414 61.9 181.348 61.9C182.081 61.9 182.781 61.6 183.448 61C184.181 60.3333 185.014 59.4667 185.948 58.4C186.081 58.2667 186.248 58.3 186.448 58.5C186.648 58.7 186.681 58.9333 186.548 59.2C185.348 60.6667 184.048 62 182.648 63.2C181.314 64.4 180.048 65 178.848 65C177.114 65 176.248 63.9 176.248 61.7C176.248 60.4333 176.448 58.9333 176.848 57.2C177.314 55.4 177.881 53.6 178.548 51.8C179.214 50 179.948 48.2667 180.748 46.6C181.614 44.9333 182.448 43.5 183.248 42.3C182.514 42.8333 181.581 43.5333 180.448 44.4C179.381 45.2 178.581 45.8667 178.048 46.4ZM187.048 35.1C186.848 35.3 186.648 35.3333 186.448 35.2C186.314 35 186.214 34.7667 186.148 34.5C186.081 34.1667 186.048 33.8 186.048 33.4C186.048 33 186.148 32.6667 186.348 32.4C188.081 30 190.514 27.4333 193.648 24.7C193.848 24.6333 194.048 24.7 194.248 24.9C194.448 25.0333 194.481 25.1667 194.348 25.3C192.948 26.5667 191.614 28.1 190.348 29.9C189.081 31.6333 187.981 33.3667 187.048 35.1ZM215.989 58.6C216.189 58.4667 216.389 58.4667 216.589 58.6C216.789 58.7333 216.856 58.9333 216.789 59.2C215.656 60.7333 214.389 62.1 212.989 63.3C211.656 64.4333 210.389 65 209.189 65C207.122 65 206.089 63.6667 206.089 61C206.089 58.7333 206.489 56.2333 207.289 53.5C208.089 50.7 209.189 47.9 210.589 45.1C210.856 44.6333 210.989 44.1667 210.989 43.7C210.989 42.9667 210.656 42.6 209.989 42.6C207.522 42.6 204.789 44.3 201.789 47.7C198.856 51.1 196.122 56.4333 193.589 63.7C193.456 64.1 193.089 64.4333 192.489 64.7C191.889 64.9 191.322 65 190.789 65C190.056 65 189.789 64.7 189.989 64.1C191.122 61.2333 192.289 58 193.489 54.4C194.756 50.8 195.856 47.2333 196.789 43.7C197.056 42.4333 196.822 41.8 196.089 41.8C195.422 41.8 194.756 42.1333 194.089 42.8C193.422 43.4667 192.722 44.3333 191.989 45.4C191.856 45.5333 191.689 45.5 191.489 45.3C191.356 45.1 191.322 44.9 191.389 44.7C192.122 43.5667 193.122 42.4 194.389 41.2C195.656 40 197.022 39.4 198.489 39.4C200.156 39.4 200.722 40.5333 200.189 42.8C199.922 44.2667 199.556 45.8333 199.089 47.5C198.622 49.1 198.122 50.7 197.589 52.3C198.522 50.5 199.622 48.8 200.889 47.2C202.156 45.6 203.456 44.2333 204.789 43.1C206.189 41.9667 207.556 41.0667 208.889 40.4C210.289 39.7333 211.589 39.4 212.789 39.4C213.589 39.4 214.189 39.6 214.589 40C215.056 40.4 215.289 40.8667 215.289 41.4C215.289 42.2667 215.089 43.1333 214.689 44C213.289 46.5333 212.089 49.2 211.089 52C210.156 54.7333 209.689 57.2667 209.689 59.6C209.689 61.2667 210.222 62.1 211.289 62.1C212.689 62.1 214.256 60.9333 215.989 58.6ZM237.491 43.8C237.491 44.7333 237.124 45.6 236.391 46.4C235.657 47.2 234.657 47.9333 233.391 48.6C232.124 49.2 230.657 49.7667 228.991 50.3C227.391 50.8333 225.691 51.3333 223.891 51.8C223.824 52.5333 223.757 53.2667 223.691 54C223.691 54.7333 223.691 55.5333 223.691 56.4C223.691 58.0667 224.057 59.4667 224.791 60.6C225.524 61.7333 226.557 62.3 227.891 62.3C229.224 62.3 230.457 61.9667 231.591 61.3C232.791 60.6333 233.857 59.7333 234.791 58.6C235.057 58.4667 235.257 58.5 235.391 58.7C235.524 58.9 235.524 59.1333 235.391 59.4C234.257 60.9333 232.824 62.2667 231.091 63.4C229.424 64.4667 227.657 65 225.791 65C224.057 65 222.624 64.4333 221.491 63.3C220.424 62.1667 219.891 60.5 219.891 58.3C219.891 56.3 220.257 54.2 220.991 52C221.724 49.7333 222.691 47.6667 223.891 45.8C225.091 43.9333 226.457 42.4 227.991 41.2C229.591 40 231.257 39.4 232.991 39.4C234.257 39.4 235.324 39.8667 236.191 40.8C237.057 41.6667 237.491 42.6667 237.491 43.8ZM230.891 42C229.357 42 227.991 42.6667 226.791 44C225.591 45.3333 224.724 47.4333 224.191 50.3C227.391 49.8333 229.724 49.1667 231.191 48.3C232.724 47.3667 233.491 46.3333 233.491 45.2C233.491 44.2667 233.257 43.5 232.791 42.9C232.324 42.3 231.691 42 230.891 42Z" fill="black"/>
</svg>
