<svg width="414" height="939" viewBox="0 0 414 939" fill="none" xmlns="http://www.w3.org/2000/svg">
<g clip-path="url(#clip0)">
<rect width="414" height="939" rx="30" fill="white"/>
<rect x="28.5" y="521.5" width="358" height="312" fill="white" stroke="black"/>
<rect x="-16.5" y="637.5" width="443" height="121" fill="white" stroke="black"/>
<rect x="143.5" y="0.5" width="121" height="60" fill="white" stroke="black"/>
<path d="M164.049 45.4492H175.668V49H159.602V23.4062H164.049V45.4492ZM198.379 36.8711C198.379 39.3789 197.945 41.582 197.078 43.4805C196.211 45.3672 194.969 46.8203 193.352 47.8398C191.746 48.8477 189.895 49.3516 187.797 49.3516C185.723 49.3516 183.871 48.8477 182.242 47.8398C180.625 46.8203 179.371 45.373 178.48 43.498C177.602 41.623 177.156 39.4609 177.145 37.0117V35.5703C177.145 33.0742 177.584 30.8711 178.463 28.9609C179.354 27.0508 180.602 25.5918 182.207 24.584C183.824 23.5645 185.676 23.0547 187.762 23.0547C189.848 23.0547 191.693 23.5586 193.299 24.5664C194.916 25.5625 196.164 27.0039 197.043 28.8906C197.922 30.7656 198.367 32.9512 198.379 35.4473V36.8711ZM193.932 35.5352C193.932 32.6992 193.393 30.5254 192.314 29.0137C191.248 27.502 189.73 26.7461 187.762 26.7461C185.84 26.7461 184.334 27.502 183.244 29.0137C182.166 30.5137 181.615 32.6406 181.592 35.3945V36.8711C181.592 39.6836 182.137 41.8574 183.227 43.3926C184.328 44.9277 185.852 45.6953 187.797 45.6953C189.766 45.6953 191.277 44.9453 192.332 43.4453C193.398 41.9453 193.932 39.7539 193.932 36.8711V35.5352ZM222.426 45.6777C221.5 46.8848 220.217 47.7988 218.576 48.4199C216.936 49.041 215.072 49.3516 212.986 49.3516C210.842 49.3516 208.943 48.8652 207.291 47.8926C205.639 46.9199 204.361 45.5312 203.459 43.7266C202.568 41.9102 202.105 39.7949 202.07 37.3809V35.377C202.07 31.5098 202.996 28.4922 204.848 26.3242C206.699 24.1445 209.283 23.0547 212.6 23.0547C215.447 23.0547 217.709 23.7578 219.385 25.1641C221.061 26.5703 222.068 28.5977 222.408 31.2461H218.049C217.557 28.1641 215.77 26.623 212.688 26.623C210.695 26.623 209.178 27.3438 208.135 28.7852C207.104 30.2148 206.57 32.3184 206.535 35.0957V37.0645C206.535 39.8301 207.115 41.9805 208.275 43.5156C209.447 45.0391 211.07 45.8008 213.145 45.8008C215.418 45.8008 217.035 45.2852 217.996 44.2539V39.2441H212.723V35.8691H222.426V45.6777ZM247.738 36.8711C247.738 39.3789 247.305 41.582 246.438 43.4805C245.57 45.3672 244.328 46.8203 242.711 47.8398C241.105 48.8477 239.254 49.3516 237.156 49.3516C235.082 49.3516 233.23 48.8477 231.602 47.8398C229.984 46.8203 228.73 45.373 227.84 43.498C226.961 41.623 226.516 39.4609 226.504 37.0117V35.5703C226.504 33.0742 226.943 30.8711 227.822 28.9609C228.713 27.0508 229.961 25.5918 231.566 24.584C233.184 23.5645 235.035 23.0547 237.121 23.0547C239.207 23.0547 241.053 23.5586 242.658 24.5664C244.275 25.5625 245.523 27.0039 246.402 28.8906C247.281 30.7656 247.727 32.9512 247.738 35.4473V36.8711ZM243.291 35.5352C243.291 32.6992 242.752 30.5254 241.674 29.0137C240.607 27.502 239.09 26.7461 237.121 26.7461C235.199 26.7461 233.693 27.502 232.604 29.0137C231.525 30.5137 230.975 32.6406 230.951 35.3945V36.8711C230.951 39.6836 231.496 41.8574 232.586 43.3926C233.688 44.9277 235.211 45.6953 237.156 45.6953C239.125 45.6953 240.637 44.9453 241.691 43.4453C242.758 41.9453 243.291 39.7539 243.291 36.8711V35.5352Z" fill="#FF0080"/>
<rect x="-12.5" y="101.5" width="443" height="83" fill="white" stroke="black"/>
<path d="M94.4688 161V126.875H106.164C110.023 126.875 112.961 127.648 114.977 129.195C116.992 130.742 118 133.047 118 136.109C118 137.672 117.578 139.078 116.734 140.328C115.891 141.578 114.656 142.547 113.031 143.234C114.875 143.734 116.297 144.68 117.297 146.07C118.312 147.445 118.82 149.102 118.82 151.039C118.82 154.242 117.789 156.703 115.727 158.422C113.68 160.141 110.742 161 106.914 161H94.4688ZM100.398 145.602V156.266H106.984C108.844 156.266 110.297 155.805 111.344 154.883C112.391 153.961 112.914 152.68 112.914 151.039C112.914 147.492 111.102 145.68 107.477 145.602H100.398ZM100.398 141.242H106.211C108.055 141.242 109.492 140.828 110.523 140C111.57 139.156 112.094 137.969 112.094 136.438C112.094 134.75 111.609 133.531 110.641 132.781C109.688 132.031 108.195 131.656 106.164 131.656H100.398V141.242ZM143.852 153.055H130.633L127.867 161H121.703L134.594 126.875H139.914L152.828 161H146.641L143.852 153.055ZM132.297 148.273H142.188L137.242 134.117L132.297 148.273ZM183.789 161H177.859L162.648 136.789V161H156.719V126.875H162.648L177.906 151.18V126.875H183.789V161ZM190.797 161V126.875H200.875C203.891 126.875 206.562 127.547 208.891 128.891C211.234 130.234 213.047 132.141 214.328 134.609C215.609 137.078 216.25 139.906 216.25 143.094V144.805C216.25 148.039 215.602 150.883 214.305 153.336C213.023 155.789 211.188 157.68 208.797 159.008C206.422 160.336 203.695 161 200.617 161H190.797ZM196.727 131.656V156.266H200.594C203.703 156.266 206.086 155.297 207.742 153.359C209.414 151.406 210.266 148.609 210.297 144.969V143.07C210.297 139.367 209.492 136.539 207.883 134.586C206.273 132.633 203.938 131.656 200.875 131.656H196.727ZM242.102 145.766H228.086V156.266H244.469V161H222.156V126.875H244.305V131.656H228.086V141.078H242.102V145.766ZM268.398 153.055H255.18L252.414 161H246.25L259.141 126.875H264.461L277.375 161H271.188L268.398 153.055ZM256.844 148.273H266.734L261.789 134.117L256.844 148.273ZM305.805 126.875V149.68C305.805 153.305 304.641 156.18 302.312 158.305C300 160.414 296.914 161.469 293.055 161.469C289.148 161.469 286.047 160.43 283.75 158.352C281.453 156.258 280.305 153.359 280.305 149.656V126.875H286.211V149.703C286.211 151.984 286.789 153.727 287.945 154.93C289.102 156.133 290.805 156.734 293.055 156.734C297.617 156.734 299.898 154.328 299.898 149.516V126.875H305.805Z" fill="#FF0080"/>
<rect x="28.5" y="230.5" width="358" height="231" fill="white" stroke="black"/>
<path d="M119.091 285.132V292H115.879V273.516H122.95C125.015 273.516 126.653 274.053 127.863 275.128C129.082 276.203 129.691 277.625 129.691 279.394C129.691 281.205 129.095 282.614 127.901 283.621C126.716 284.628 125.053 285.132 122.912 285.132H119.091ZM119.091 282.555H122.95C124.093 282.555 124.965 282.288 125.565 281.755C126.166 281.213 126.467 280.435 126.467 279.419C126.467 278.42 126.162 277.625 125.553 277.032C124.943 276.431 124.105 276.122 123.039 276.105H119.091V282.555ZM139.302 284.878H135.722V292H132.51V273.516H139.01C141.143 273.516 142.789 273.994 143.948 274.95C145.108 275.907 145.688 277.29 145.688 279.102C145.688 280.337 145.387 281.374 144.786 282.212C144.194 283.041 143.364 283.68 142.298 284.129L146.449 291.835V292H143.009L139.302 284.878ZM135.722 282.301H139.022C140.106 282.301 140.952 282.03 141.562 281.488C142.171 280.938 142.476 280.189 142.476 279.241C142.476 278.251 142.192 277.485 141.625 276.943C141.066 276.402 140.229 276.122 139.111 276.105H135.722V282.301ZM159.538 283.748H151.946V289.436H160.82V292H148.734V273.516H160.731V276.105H151.946V281.209H159.538V283.748ZM155.717 268.476H159.233L155.717 272.322H153.241L155.717 268.476ZM173.097 287.239C173.097 286.427 172.809 285.8 172.233 285.36C171.666 284.92 170.638 284.476 169.148 284.027C167.659 283.579 166.474 283.079 165.594 282.529C163.91 281.471 163.067 280.092 163.067 278.391C163.067 276.901 163.673 275.674 164.883 274.709C166.102 273.744 167.68 273.262 169.618 273.262C170.905 273.262 172.051 273.499 173.059 273.973C174.066 274.447 174.857 275.124 175.433 276.004C176.008 276.876 176.296 277.845 176.296 278.911H173.097C173.097 277.946 172.792 277.193 172.183 276.651C171.582 276.101 170.718 275.826 169.593 275.826C168.543 275.826 167.727 276.05 167.143 276.499C166.567 276.948 166.279 277.574 166.279 278.378C166.279 279.055 166.592 279.622 167.219 280.079C167.845 280.528 168.878 280.968 170.316 281.399C171.755 281.823 172.91 282.309 173.782 282.859C174.654 283.401 175.293 284.027 175.699 284.738C176.105 285.441 176.309 286.266 176.309 287.214C176.309 288.754 175.716 289.981 174.531 290.896C173.355 291.801 171.755 292.254 169.732 292.254C168.395 292.254 167.164 292.008 166.038 291.518C164.921 291.018 164.049 290.333 163.423 289.461C162.805 288.589 162.496 287.574 162.496 286.414H165.708C165.708 287.464 166.055 288.276 166.749 288.852C167.443 289.427 168.438 289.715 169.732 289.715C170.85 289.715 171.688 289.491 172.246 289.042C172.813 288.585 173.097 287.984 173.097 287.239ZM189.931 283.748H182.339V289.436H191.213V292H179.127V273.516H191.124V276.105H182.339V281.209H189.931V283.748ZM208.491 292H205.279L197.04 278.886V292H193.828V273.516H197.04L205.305 286.681V273.516H208.491V292ZM222.862 287.696H215.702L214.204 292H210.865L217.848 273.516H220.729L227.725 292H224.373L222.862 287.696ZM216.604 285.106H221.961L219.282 277.438L216.604 285.106ZM241.664 276.105H235.9V292H232.714V276.105H227.001V273.516H241.664V276.105ZM247.491 292H244.292V273.516H247.491V292ZM266.191 283.24C266.191 285.051 265.878 286.643 265.252 288.014C264.626 289.376 263.729 290.426 262.561 291.162C261.401 291.89 260.064 292.254 258.549 292.254C257.051 292.254 255.714 291.89 254.537 291.162C253.369 290.426 252.464 289.381 251.82 288.026C251.186 286.672 250.864 285.111 250.855 283.342V282.301C250.855 280.498 251.173 278.907 251.808 277.527C252.451 276.148 253.352 275.094 254.512 274.366C255.68 273.63 257.017 273.262 258.523 273.262C260.03 273.262 261.363 273.626 262.522 274.354C263.69 275.073 264.592 276.114 265.227 277.477C265.861 278.831 266.183 280.409 266.191 282.212V283.24ZM262.979 282.275C262.979 280.227 262.59 278.657 261.812 277.565C261.041 276.474 259.945 275.928 258.523 275.928C257.135 275.928 256.048 276.474 255.261 277.565C254.482 278.649 254.084 280.185 254.067 282.174V283.24C254.067 285.271 254.461 286.841 255.248 287.95C256.044 289.059 257.144 289.613 258.549 289.613C259.971 289.613 261.062 289.072 261.824 287.988C262.594 286.905 262.979 285.322 262.979 283.24V282.275ZM284.054 292H280.842L272.603 278.886V292H269.391V273.516H272.603L280.867 286.681V273.516H284.054V292Z" fill="#FF0080"/>
<rect x="-16.5" y="758.5" width="467" height="197" fill="white" stroke="black"/>
<rect x="-16.5" y="874.5" width="443" height="94" fill="#C4C4C4" stroke="black"/>
<path d="M160.35 803.154H150.049V814H145.602V788.406H161.861V791.992H150.049V799.604H160.35V803.154ZM185.82 801.871C185.82 804.379 185.387 806.582 184.52 808.48C183.652 810.367 182.41 811.82 180.793 812.84C179.188 813.848 177.336 814.352 175.238 814.352C173.164 814.352 171.312 813.848 169.684 812.84C168.066 811.82 166.812 810.373 165.922 808.498C165.043 806.623 164.598 804.461 164.586 802.012V800.57C164.586 798.074 165.025 795.871 165.904 793.961C166.795 792.051 168.043 790.592 169.648 789.584C171.266 788.564 173.117 788.055 175.203 788.055C177.289 788.055 179.135 788.559 180.74 789.566C182.357 790.562 183.605 792.004 184.484 793.891C185.363 795.766 185.809 797.951 185.82 800.447V801.871ZM181.373 800.535C181.373 797.699 180.834 795.525 179.756 794.014C178.689 792.502 177.172 791.746 175.203 791.746C173.281 791.746 171.775 792.502 170.686 794.014C169.607 795.514 169.057 797.641 169.033 800.395V801.871C169.033 804.684 169.578 806.857 170.668 808.393C171.77 809.928 173.293 810.695 175.238 810.695C177.207 810.695 178.719 809.945 179.773 808.445C180.84 806.945 181.373 804.754 181.373 801.871V800.535ZM210.676 801.871C210.676 804.379 210.242 806.582 209.375 808.48C208.508 810.367 207.266 811.82 205.648 812.84C204.043 813.848 202.191 814.352 200.094 814.352C198.02 814.352 196.168 813.848 194.539 812.84C192.922 811.82 191.668 810.373 190.777 808.498C189.898 806.623 189.453 804.461 189.441 802.012V800.57C189.441 798.074 189.881 795.871 190.76 793.961C191.65 792.051 192.898 790.592 194.504 789.584C196.121 788.564 197.973 788.055 200.059 788.055C202.145 788.055 203.99 788.559 205.596 789.566C207.213 790.562 208.461 792.004 209.34 793.891C210.219 795.766 210.664 797.951 210.676 800.447V801.871ZM206.229 800.535C206.229 797.699 205.689 795.525 204.611 794.014C203.545 792.502 202.027 791.746 200.059 791.746C198.137 791.746 196.631 792.502 195.541 794.014C194.463 795.514 193.912 797.641 193.889 800.395V801.871C193.889 804.684 194.434 806.857 195.523 808.393C196.625 809.928 198.148 810.695 200.094 810.695C202.062 810.695 203.574 809.945 204.629 808.445C205.695 806.945 206.229 804.754 206.229 801.871V800.535ZM232.086 791.992H224.105V814H219.693V791.992H211.783V788.406H232.086V791.992ZM250.42 802.574H239.908V810.449H252.195V814H235.461V788.406H252.072V791.992H239.908V799.059H250.42V802.574ZM265.221 804.139H260.264V814H255.816V788.406H264.816C267.77 788.406 270.049 789.068 271.654 790.393C273.26 791.717 274.062 793.633 274.062 796.141C274.062 797.852 273.646 799.287 272.814 800.447C271.994 801.596 270.846 802.48 269.369 803.102L275.117 813.771V814H270.354L265.221 804.139ZM260.264 800.57H264.834C266.334 800.57 267.506 800.195 268.35 799.445C269.193 798.684 269.615 797.646 269.615 796.334C269.615 794.963 269.223 793.902 268.438 793.152C267.664 792.402 266.504 792.016 264.957 791.992H260.264V800.57Z" fill="#FF0080"/>
<path d="M131.065 905.834C130.937 907.199 130.433 908.266 129.554 909.033C128.675 909.795 127.506 910.176 126.047 910.176C125.027 910.176 124.128 909.936 123.349 909.455C122.575 908.969 121.978 908.28 121.556 907.39C121.134 906.499 120.914 905.465 120.896 904.287V903.092C120.896 901.885 121.11 900.821 121.538 899.901C121.966 898.981 122.578 898.272 123.375 897.774C124.178 897.276 125.104 897.027 126.152 897.027C127.564 897.027 128.701 897.411 129.562 898.179C130.424 898.946 130.925 900.03 131.065 901.431H128.851C128.745 900.511 128.476 899.849 128.042 899.444C127.614 899.034 126.984 898.829 126.152 898.829C125.186 898.829 124.441 899.184 123.92 899.893C123.404 900.596 123.141 901.63 123.129 902.995V904.129C123.129 905.512 123.375 906.566 123.867 907.293C124.365 908.02 125.092 908.383 126.047 908.383C126.92 908.383 127.576 908.187 128.016 907.794C128.455 907.401 128.733 906.748 128.851 905.834H131.065ZM143.273 903.936C143.273 905.189 143.057 906.291 142.623 907.24C142.189 908.184 141.568 908.91 140.76 909.42C139.957 909.924 139.031 910.176 137.982 910.176C136.945 910.176 136.02 909.924 135.205 909.42C134.396 908.91 133.77 908.187 133.324 907.249C132.885 906.312 132.662 905.23 132.656 904.006V903.285C132.656 902.037 132.876 900.936 133.315 899.98C133.761 899.025 134.385 898.296 135.188 897.792C135.996 897.282 136.922 897.027 137.965 897.027C139.008 897.027 139.931 897.279 140.733 897.783C141.542 898.281 142.166 899.002 142.605 899.945C143.045 900.883 143.268 901.976 143.273 903.224V903.936ZM141.05 903.268C141.05 901.85 140.78 900.763 140.241 900.007C139.708 899.251 138.949 898.873 137.965 898.873C137.004 898.873 136.251 899.251 135.706 900.007C135.167 900.757 134.892 901.82 134.88 903.197V903.936C134.88 905.342 135.152 906.429 135.697 907.196C136.248 907.964 137.01 908.348 137.982 908.348C138.967 908.348 139.723 907.973 140.25 907.223C140.783 906.473 141.05 905.377 141.05 903.936V903.268ZM147.712 905.245V910H145.488V897.203H150.384C151.813 897.203 152.947 897.575 153.785 898.319C154.629 899.063 155.051 900.048 155.051 901.272C155.051 902.526 154.638 903.502 153.812 904.199C152.991 904.896 151.84 905.245 150.357 905.245H147.712ZM147.712 903.461H150.384C151.175 903.461 151.778 903.276 152.194 902.907C152.61 902.532 152.818 901.993 152.818 901.29C152.818 900.599 152.607 900.048 152.186 899.638C151.764 899.222 151.184 899.008 150.445 898.996H147.712V903.461ZM161.177 903.268L164.121 897.203H166.582L162.293 905.289V910H160.061V905.289L155.763 897.203H158.232L161.177 903.268ZM172.673 905.069H170.194V910H167.971V897.203H172.471C173.947 897.203 175.087 897.534 175.89 898.196C176.692 898.858 177.094 899.816 177.094 901.07C177.094 901.926 176.886 902.644 176.47 903.224C176.06 903.798 175.485 904.24 174.747 904.551L177.621 909.886V910H175.239L172.673 905.069ZM170.194 903.285H172.479C173.229 903.285 173.815 903.098 174.237 902.723C174.659 902.342 174.87 901.823 174.87 901.167C174.87 900.481 174.674 899.951 174.281 899.576C173.895 899.201 173.314 899.008 172.541 898.996H170.194V903.285ZM181.55 910H179.335V897.203H181.55V910ZM194.092 908.339C193.629 908.942 192.987 909.399 192.167 909.71C191.347 910.021 190.415 910.176 189.372 910.176C188.3 910.176 187.351 909.933 186.524 909.446C185.698 908.96 185.06 908.266 184.608 907.363C184.163 906.455 183.932 905.397 183.914 904.19V903.188C183.914 901.255 184.377 899.746 185.303 898.662C186.229 897.572 187.521 897.027 189.179 897.027C190.603 897.027 191.733 897.379 192.571 898.082C193.409 898.785 193.913 899.799 194.083 901.123H191.903C191.657 899.582 190.764 898.812 189.223 898.812C188.227 898.812 187.468 899.172 186.946 899.893C186.431 900.607 186.164 901.659 186.146 903.048V904.032C186.146 905.415 186.437 906.49 187.017 907.258C187.603 908.02 188.414 908.4 189.451 908.4C190.588 908.4 191.396 908.143 191.877 907.627V905.122H189.24V903.435H194.092V908.339ZM206.695 910H204.48V904.313H198.759V910H196.535V897.203H198.759V902.529H204.48V897.203H206.695V910ZM218.314 898.996H214.324V910H212.118V898.996H208.163V897.203H218.314V898.996ZM220.397 911.099H218.719L223.755 897.203H225.434L220.397 911.099ZM234.284 907.021H229.327L228.29 910H225.979L230.812 897.203H232.808L237.65 910H235.33L234.284 907.021ZM229.951 905.228H233.66L231.806 899.919L229.951 905.228ZM249.261 910H247.037L241.333 900.921V910H239.109V897.203H241.333L247.055 906.317V897.203H249.261V910ZM262.04 910H259.816L254.112 900.921V910H251.889V897.203H254.112L259.834 906.317V897.203H262.04V910ZM272.147 904.287H266.892V908.225H273.035V910H264.668V897.203H272.974V898.996H266.892V902.529H272.147V904.287ZM269.502 893.714H271.937L269.502 896.377H267.788L269.502 893.714ZM282.325 904.287H277.069V908.225H283.213V910H274.846V897.203H283.151V898.996H277.069V902.529H282.325V904.287ZM285.419 911.099H283.74L288.776 897.203H290.455L285.419 911.099Z" fill="black"/>
<circle cx="363" cy="560" r="23.5" fill="white" stroke="black"/>
<path d="M54.7344 698V680.938H60.582C62.5117 680.938 63.9805 681.324 64.9883 682.098C65.9961 682.871 66.5 684.023 66.5 685.555C66.5 686.336 66.2891 687.039 65.8672 687.664C65.4453 688.289 64.8281 688.773 64.0156 689.117C64.9375 689.367 65.6484 689.84 66.1484 690.535C66.6562 691.223 66.9102 692.051 66.9102 693.02C66.9102 694.621 66.3945 695.852 65.3633 696.711C64.3398 697.57 62.8711 698 60.957 698H54.7344ZM57.6992 690.301V695.633H60.9922C61.9219 695.633 62.6484 695.402 63.1719 694.941C63.6953 694.48 63.957 693.84 63.957 693.02C63.957 691.246 63.0508 690.34 61.2383 690.301H57.6992ZM57.6992 688.121H60.6055C61.5273 688.121 62.2461 687.914 62.7617 687.5C63.2852 687.078 63.5469 686.484 63.5469 685.719C63.5469 684.875 63.3047 684.266 62.8203 683.891C62.3438 683.516 61.5977 683.328 60.582 683.328H57.6992V688.121ZM79.4258 694.027H72.8164L71.4336 698H68.3516L74.7969 680.938H77.457L83.9141 698H80.8203L79.4258 694.027ZM73.6484 691.637H78.5938L76.1211 684.559L73.6484 691.637ZM99.3945 698H96.4297L88.8242 685.895V698H85.8594V680.938H88.8242L96.4531 693.09V680.938H99.3945V698ZM102.898 698V680.938H107.938C109.445 680.938 110.781 681.273 111.945 681.945C113.117 682.617 114.023 683.57 114.664 684.805C115.305 686.039 115.625 687.453 115.625 689.047V689.902C115.625 691.52 115.301 692.941 114.652 694.168C114.012 695.395 113.094 696.34 111.898 697.004C110.711 697.668 109.348 698 107.809 698H102.898ZM105.863 683.328V695.633H107.797C109.352 695.633 110.543 695.148 111.371 694.18C112.207 693.203 112.633 691.805 112.648 689.984V689.035C112.648 687.184 112.246 685.77 111.441 684.793C110.637 683.816 109.469 683.328 107.938 683.328H105.863ZM128.551 690.383H121.543V695.633H129.734V698H118.578V680.938H129.652V683.328H121.543V688.039H128.551V690.383ZM141.699 694.027H135.09L133.707 698H130.625L137.07 680.938H139.73L146.188 698H143.094L141.699 694.027ZM135.922 691.637H140.867L138.395 684.559L135.922 691.637ZM160.402 680.938V692.34C160.402 694.152 159.82 695.59 158.656 696.652C157.5 697.707 155.957 698.234 154.027 698.234C152.074 698.234 150.523 697.715 149.375 696.676C148.227 695.629 147.652 694.18 147.652 692.328V680.938H150.605V692.352C150.605 693.492 150.895 694.363 151.473 694.965C152.051 695.566 152.902 695.867 154.027 695.867C156.309 695.867 157.449 694.664 157.449 692.258V680.938H160.402ZM172.52 691.66V698H169.555V680.938H176.082C177.988 680.938 179.5 681.434 180.617 682.426C181.742 683.418 182.305 684.73 182.305 686.363C182.305 688.035 181.754 689.336 180.652 690.266C179.559 691.195 178.023 691.66 176.047 691.66H172.52ZM172.52 689.281H176.082C177.137 689.281 177.941 689.035 178.496 688.543C179.051 688.043 179.328 687.324 179.328 686.387C179.328 685.465 179.047 684.73 178.484 684.184C177.922 683.629 177.148 683.344 176.164 683.328H172.52V689.281ZM191.176 691.426H187.871V698H184.906V680.938H190.906C192.875 680.938 194.395 681.379 195.465 682.262C196.535 683.145 197.07 684.422 197.07 686.094C197.07 687.234 196.793 688.191 196.238 688.965C195.691 689.73 194.926 690.32 193.941 690.734L197.773 697.848V698H194.598L191.176 691.426ZM187.871 689.047H190.918C191.918 689.047 192.699 688.797 193.262 688.297C193.824 687.789 194.105 687.098 194.105 686.223C194.105 685.309 193.844 684.602 193.32 684.102C192.805 683.602 192.031 683.344 191 683.328H187.871V689.047ZM213.5 689.914C213.5 691.586 213.211 693.055 212.633 694.32C212.055 695.578 211.227 696.547 210.148 697.227C209.078 697.898 207.844 698.234 206.445 698.234C205.062 698.234 203.828 697.898 202.742 697.227C201.664 696.547 200.828 695.582 200.234 694.332C199.648 693.082 199.352 691.641 199.344 690.008V689.047C199.344 687.383 199.637 685.914 200.223 684.641C200.816 683.367 201.648 682.395 202.719 681.723C203.797 681.043 205.031 680.703 206.422 680.703C207.812 680.703 209.043 681.039 210.113 681.711C211.191 682.375 212.023 683.336 212.609 684.594C213.195 685.844 213.492 687.301 213.5 688.965V689.914ZM210.535 689.023C210.535 687.133 210.176 685.684 209.457 684.676C208.746 683.668 207.734 683.164 206.422 683.164C205.141 683.164 204.137 683.668 203.41 684.676C202.691 685.676 202.324 687.094 202.309 688.93V689.914C202.309 691.789 202.672 693.238 203.398 694.262C204.133 695.285 205.148 695.797 206.445 695.797C207.758 695.797 208.766 695.297 209.469 694.297C210.18 693.297 210.535 691.836 210.535 689.914V689.023ZM220.297 680.938L225.219 694.016L230.129 680.938H233.961V698H231.008V692.375L231.301 684.852L226.262 698H224.141L219.113 684.863L219.406 692.375V698H216.453V680.938H220.297ZM251.094 689.914C251.094 691.586 250.805 693.055 250.227 694.32C249.648 695.578 248.82 696.547 247.742 697.227C246.672 697.898 245.438 698.234 244.039 698.234C242.656 698.234 241.422 697.898 240.336 697.227C239.258 696.547 238.422 695.582 237.828 694.332C237.242 693.082 236.945 691.641 236.938 690.008V689.047C236.938 687.383 237.23 685.914 237.816 684.641C238.41 683.367 239.242 682.395 240.312 681.723C241.391 681.043 242.625 680.703 244.016 680.703C245.406 680.703 246.637 681.039 247.707 681.711C248.785 682.375 249.617 683.336 250.203 684.594C250.789 685.844 251.086 687.301 251.094 688.965V689.914ZM248.129 689.023C248.129 687.133 247.77 685.684 247.051 684.676C246.34 683.668 245.328 683.164 244.016 683.164C242.734 683.164 241.73 683.668 241.004 684.676C240.285 685.676 239.918 687.094 239.902 688.93V689.914C239.902 691.789 240.266 693.238 240.992 694.262C241.727 695.285 242.742 695.797 244.039 695.797C245.352 695.797 246.359 695.297 247.062 694.297C247.773 693.297 248.129 691.836 248.129 689.914V689.023ZM265.367 683.328H260.047V698H257.105V683.328H251.832V680.938H265.367V683.328ZM270.746 698H267.793V680.938H270.746V698ZM288.008 689.914C288.008 691.586 287.719 693.055 287.141 694.32C286.562 695.578 285.734 696.547 284.656 697.227C283.586 697.898 282.352 698.234 280.953 698.234C279.57 698.234 278.336 697.898 277.25 697.227C276.172 696.547 275.336 695.582 274.742 694.332C274.156 693.082 273.859 691.641 273.852 690.008V689.047C273.852 687.383 274.145 685.914 274.73 684.641C275.324 683.367 276.156 682.395 277.227 681.723C278.305 681.043 279.539 680.703 280.93 680.703C282.32 680.703 283.551 681.039 284.621 681.711C285.699 682.375 286.531 683.336 287.117 684.594C287.703 685.844 288 687.301 288.008 688.965V689.914ZM285.043 689.023C285.043 687.133 284.684 685.684 283.965 684.676C283.254 683.668 282.242 683.164 280.93 683.164C279.648 683.164 278.645 683.668 277.918 684.676C277.199 685.676 276.832 687.094 276.816 688.93V689.914C276.816 691.789 277.18 693.238 277.906 694.262C278.641 695.285 279.656 695.797 280.953 695.797C282.266 695.797 283.273 695.297 283.977 694.297C284.688 693.297 285.043 691.836 285.043 689.914V689.023ZM304.496 698H301.531L293.926 685.895V698H290.961V680.938H293.926L301.555 693.09V680.938H304.496V698ZM321.535 698H318.57L310.965 685.895V698H308V680.938H310.965L318.594 693.09V680.938H321.535V698ZM335.012 690.383H328.004V695.633H336.195V698H325.039V680.938H336.113V683.328H328.004V688.039H335.012V690.383ZM341.574 695.633H349.32V698H338.609V680.938H341.574V695.633Z" fill="#FF0080"/>
<path d="M375.791 564.998C375.996 564.86 376.172 564.687 376.299 564.48C376.427 564.271 376.5 564.035 376.5 563.787C376.5 563.539 376.427 563.303 376.299 563.094C376.172 562.887 375.996 562.713 375.791 562.575C375.791 562.575 375.791 562.575 375.791 562.575L364.474 554.916C364.474 554.916 364.474 554.916 364.474 554.916C364.269 554.778 364.035 554.674 363.787 554.604C363.539 554.535 363.277 554.5 363.014 554.5C362.752 554.5 362.489 554.535 362.241 554.604C361.994 554.674 361.76 554.778 361.555 554.916C361.555 554.916 361.555 554.916 361.555 554.916L350.242 562.573C350.033 562.708 349.851 562.879 349.718 563.085C349.584 563.294 349.505 563.532 349.5 563.784C349.496 564.036 349.567 564.277 349.695 564.489C349.822 564.701 350.002 564.878 350.209 565.018C350.417 565.158 350.655 565.263 350.908 565.332C351.16 565.401 351.427 565.435 351.694 565.432C351.96 565.43 352.226 565.392 352.477 565.317C352.724 565.244 352.958 565.135 353.16 564.992L363.014 558.323L372.873 564.995C372.873 564.995 372.873 564.995 372.873 564.995C373.077 565.134 373.311 565.238 373.558 565.308C373.806 565.378 374.068 565.413 374.331 565.413C374.594 565.413 374.856 565.379 375.104 565.31C375.352 565.24 375.586 565.137 375.791 564.999L375.511 564.584L375.791 564.998Z" fill="#FF0080" stroke="white"/>
<path d="M163.741 358.599V365H161.585V348.648H167.616C169.405 348.648 170.805 349.105 171.816 350.019C172.834 350.932 173.343 352.141 173.343 353.646C173.343 355.233 172.845 356.457 171.85 357.318C170.861 358.172 169.443 358.599 167.593 358.599H163.741ZM163.741 356.835H167.616C168.769 356.835 169.652 356.566 170.266 356.027C170.88 355.48 171.187 354.694 171.187 353.668C171.187 352.695 170.88 351.917 170.266 351.333C169.652 350.749 168.81 350.445 167.739 350.423H163.741V356.835ZM188.662 365H186.494V357.442H178.251V365H176.095V348.648H178.251V355.679H186.494V348.648H188.662V365ZM205.069 357.352C205.069 358.954 204.8 360.354 204.261 361.552C203.722 362.743 202.958 363.652 201.97 364.281C200.981 364.91 199.828 365.225 198.511 365.225C197.223 365.225 196.081 364.91 195.085 364.281C194.09 363.645 193.315 362.743 192.761 361.575C192.214 360.399 191.933 359.04 191.918 357.498V356.319C191.918 354.747 192.192 353.358 192.738 352.152C193.285 350.947 194.056 350.026 195.052 349.39C196.055 348.746 197.201 348.424 198.488 348.424C199.799 348.424 200.951 348.742 201.947 349.378C202.951 350.007 203.722 350.924 204.261 352.13C204.8 353.328 205.069 354.724 205.069 356.319V357.352ZM202.924 356.296C202.924 354.357 202.535 352.871 201.756 351.838C200.978 350.797 199.888 350.277 198.488 350.277C197.126 350.277 196.051 350.797 195.265 351.838C194.486 352.871 194.086 354.309 194.063 356.15V357.352C194.063 359.231 194.457 360.71 195.243 361.788C196.036 362.859 197.126 363.394 198.511 363.394C199.903 363.394 200.981 362.889 201.745 361.878C202.509 360.86 202.902 359.403 202.924 357.509V356.296ZM219.287 350.423H214.031V365H211.886V350.423H206.642V348.648H219.287V350.423ZM233.977 357.352C233.977 358.954 233.707 360.354 233.168 361.552C232.629 362.743 231.865 363.652 230.877 364.281C229.889 364.91 228.736 365.225 227.418 365.225C226.13 365.225 224.988 364.91 223.993 364.281C222.997 363.645 222.222 362.743 221.668 361.575C221.121 360.399 220.841 359.04 220.826 357.498V356.319C220.826 354.747 221.099 353.358 221.646 352.152C222.192 350.947 222.963 350.026 223.959 349.39C224.962 348.746 226.108 348.424 227.396 348.424C228.706 348.424 229.859 348.742 230.854 349.378C231.858 350.007 232.629 350.924 233.168 352.13C233.707 353.328 233.977 354.724 233.977 356.319V357.352ZM231.832 356.296C231.832 354.357 231.442 352.871 230.664 351.838C229.885 350.797 228.796 350.277 227.396 350.277C226.033 350.277 224.958 350.797 224.172 351.838C223.394 352.871 222.993 354.309 222.971 356.15V357.352C222.971 359.231 223.364 360.71 224.15 361.788C224.944 362.859 226.033 363.394 227.418 363.394C228.811 363.394 229.889 362.889 230.652 361.878C231.416 360.86 231.809 359.403 231.832 357.509V356.296ZM198.5 385.229H203.059V387.194H198.5V392.36H196.411V387.194H191.851V385.229H196.411V380.456H198.5V385.229ZM176.69 408.423H171.434V423H169.289V408.423H164.044V406.648H176.69V408.423ZM188.358 415.442H181.272V421.237H189.504V423H179.116V406.648H189.392V408.423H181.272V413.679H188.358V415.442ZM197.522 412.915L201.442 406.648H203.98L198.814 414.757L204.104 423H201.543L197.522 416.621L193.479 423H190.93L196.231 414.757L191.054 406.648H193.581L197.522 412.915ZM217.906 408.423H212.65V423H210.505V408.423H205.26V406.648H217.906V408.423ZM229.574 415.442H222.488V421.237H230.72V423H220.332V406.648H230.607V408.423H222.488V413.679H229.574V415.442Z" fill="black"/>
<path d="M152.226 589.696H145.065L143.567 594H140.229L147.211 575.516H150.093L157.088 594H153.736L152.226 589.696ZM145.967 587.106H151.324L148.646 579.438L145.967 587.106ZM165.987 586.878H162.407V594H159.195V575.516H165.695C167.828 575.516 169.474 575.994 170.634 576.95C171.793 577.907 172.373 579.29 172.373 581.102C172.373 582.337 172.073 583.374 171.472 584.212C170.879 585.041 170.05 585.68 168.983 586.129L173.135 593.835V594H169.694L165.987 586.878ZM162.407 584.301H165.708C166.791 584.301 167.638 584.03 168.247 583.488C168.856 582.938 169.161 582.189 169.161 581.241C169.161 580.251 168.878 579.485 168.311 578.943C167.752 578.402 166.914 578.122 165.797 578.105H162.407V584.301ZM188.141 578.105H182.377V594H179.19V578.105H173.478V575.516H188.141V578.105ZM193.968 594H190.769V575.516H193.968V594ZM212.021 587.982C211.834 589.954 211.106 591.495 209.837 592.604C208.567 593.704 206.879 594.254 204.771 594.254C203.299 594.254 202 593.907 200.874 593.213C199.757 592.51 198.894 591.516 198.284 590.229C197.675 588.943 197.357 587.449 197.332 585.748V584.021C197.332 582.278 197.641 580.742 198.259 579.413C198.877 578.084 199.761 577.06 200.912 576.341C202.072 575.621 203.409 575.262 204.924 575.262C206.964 575.262 208.605 575.816 209.85 576.925C211.094 578.034 211.817 579.599 212.021 581.622H208.821C208.669 580.293 208.28 579.337 207.653 578.753C207.035 578.16 206.126 577.864 204.924 577.864C203.527 577.864 202.452 578.376 201.699 579.4C200.954 580.416 200.574 581.91 200.557 583.882V585.52C200.557 587.517 200.912 589.04 201.623 590.09C202.342 591.139 203.392 591.664 204.771 591.664C206.033 591.664 206.98 591.381 207.615 590.813C208.25 590.246 208.652 589.303 208.821 587.982H212.021ZM218.114 591.436H226.506V594H214.902V575.516H218.114V591.436ZM239.772 585.748H232.181V591.436H241.055V594H228.969V575.516H240.966V578.105H232.181V583.209H239.772V585.748Z" fill="#FF0080"/>
</g>
<defs>
<clipPath id="clip0">
<rect width="414" height="939" rx="30" fill="white"/>
</clipPath>
</defs>
</svg>
